<svg width="163" height="171" viewBox="0 0 163 171" fill="none" xmlns="http://www.w3.org/2000/svg">
<path d="M80.0737 172C76.8137 172 73.6896 171.386 70.7012 170.157C67.7129 168.929 65.0642 167.154 62.755 164.833L21.19 122.857L27.3025 116.51C29.4758 114.325 32.0227 112.858 34.9431 112.107C37.8635 111.356 40.75 111.39 43.6025 112.21L57.05 116.1V49.1429C57.05 46.8222 57.831 44.877 59.3931 43.3071C60.9552 41.7373 62.8908 40.9524 65.2 40.9524C67.5092 40.9524 69.4448 41.7373 71.0069 43.3071C72.569 44.877 73.35 46.8222 73.35 49.1429V137.805L53.5862 132.276L74.3687 153.162C75.0479 153.844 75.8969 154.425 76.9156 154.902C77.9344 155.38 78.9871 155.619 80.0737 155.619H114.1C118.582 155.619 122.42 154.015 125.612 150.807C128.804 147.599 130.4 143.743 130.4 139.238V106.476C130.4 104.156 131.181 102.21 132.743 100.64C134.305 99.0706 136.241 98.2857 138.55 98.2857C140.859 98.2857 142.795 99.0706 144.357 100.64C145.919 102.21 146.7 104.156 146.7 106.476V139.238C146.7 148.248 143.508 155.96 137.124 162.376C130.74 168.792 123.065 172 114.1 172H80.0737ZM81.5 114.667V81.9048C81.5 79.5841 82.281 77.6389 83.8431 76.069C85.4052 74.4992 87.3408 73.7143 89.65 73.7143C91.9592 73.7143 93.8948 74.4992 95.4569 76.069C97.019 77.6389 97.8 79.5841 97.8 81.9048V114.667H81.5ZM105.95 114.667V90.0952C105.95 87.7746 106.731 85.8294 108.293 84.2595C109.855 82.6897 111.791 81.9048 114.1 81.9048C116.409 81.9048 118.345 82.6897 119.907 84.2595C121.469 85.8294 122.25 87.7746 122.25 90.0952V114.667H105.95ZM163 49.1429H122.25V36.8571H145.885C136.92 28.9397 126.936 22.8651 115.934 18.6333C104.931 14.4016 93.4533 12.2857 81.5 12.2857C69.5467 12.2857 58.0687 14.4016 47.0662 18.6333C36.0637 22.8651 26.08 28.9397 17.115 36.8571H40.75V49.1429H0V8.19048H12.225V24.7762C22.005 16.7222 32.8037 10.5794 44.6212 6.34762C56.4387 2.11587 68.7317 0 81.5 0C94.2683 0 106.561 2.11587 118.379 6.34762C130.196 10.5794 140.995 16.7222 150.775 24.7762V8.19048H163V49.1429Z" fill="#FFFF82"/>
</svg>
