<svg width="216" height="53" viewBox="0 0 216 53" fill="none" xmlns="http://www.w3.org/2000/svg">
<path d="M12.767 35.0833C13.0512 35.2472 13.3508 35.3707 13.6178 35.58C14.6299 36.3582 15.636 37.1643 16.6461 37.9476C16.6951 37.9889 16.7746 37.962 16.8406 37.9706L16.8389 37.9629C17.4474 38.441 18.0445 38.9495 18.6681 39.3999C20.1082 40.4379 21.5293 41.5137 22.8072 42.9431C23.0078 43.1693 23.384 43.4564 22.9223 44.5775C22.4434 45.744 21.9175 46.2421 21.5458 45.9069C20.6519 45.0973 19.8194 44.1134 18.8031 43.6144C17.3198 42.8856 16.0199 41.6971 14.6338 40.736C13.3878 39.8683 12.1895 38.8868 10.9397 38.0292C9.7663 37.2259 8.51461 36.6171 7.36991 35.738C6.38141 34.983 5.50565 33.9425 4.55716 33.0941C4.33224 32.8955 4.1081 32.6461 3.71627 32.9124L3.71416 32.9302C3.64965 32.2107 2.94946 32.9375 2.99328 31.9807C2.91193 31.8908 2.84607 31.7476 2.74175 31.7183C2.25822 31.605 2.31526 31.1132 2.96359 29.9261C3.10906 29.664 3.22159 29.2694 3.39807 29.1448L3.3977 29.1702L3.40171 29.1474C4.02746 28.4831 4.20112 29.1584 4.51773 29.371C6.06785 30.4232 7.58923 31.5512 9.12022 32.654C10.0603 33.3296 10.9716 34.0811 11.9615 34.6254C12.2331 34.7738 12.5526 34.796 12.7723 35.0936L12.767 35.0833Z" fill="#FEA776"/>
<path d="M24.2786 43.3627C24.4321 43.9082 24.5125 44.4273 24.4124 44.9719L24.3378 45.2908C24.1961 45.7866 23.9582 46.2074 23.6854 46.5007C23.4107 46.7991 23.0859 47.0105 22.6831 47.1472C22.2785 47.2889 21.7988 47.2874 21.3478 47.332L20.4535 47.401C20.4056 47.4054 20.3586 47.4809 20.3101 47.5234L20.3155 47.5337C19.7231 47.5738 19.1293 47.5809 18.5382 47.654C17.1718 47.8231 15.8024 47.9516 14.4207 47.6736C14.2064 47.6301 13.8402 47.658 13.7952 46.3751C13.7473 45.0388 13.9579 44.2393 14.3307 44.2545C15.2363 44.2898 16.1557 44.5081 17.0408 44.1952C17.6876 43.9629 18.3417 43.8576 18.9989 43.793L19.9799 43.7024L20.4695 43.6532L20.7163 43.6236L20.7789 43.6168C20.7972 43.6171 20.79 43.6119 20.7992 43.612L20.8214 43.6022C20.8861 43.5777 20.947 43.5633 21.0095 43.5565C21.0685 43.5472 21.1443 43.5177 21.1623 43.4215C21.177 43.2973 21.0939 43.1996 21.0382 43.1151C21.0202 43.0894 21.0004 43.0688 20.9785 43.0533C20.9676 43.0455 20.9603 43.0403 20.944 43.0223L20.817 42.7971L20.2974 41.9013C19.9498 41.3074 19.6097 40.706 19.3179 40.0621C18.8108 38.9505 18.4994 37.6639 18.0593 36.4974C17.955 36.2243 17.8679 35.9057 17.4576 35.928L17.4483 35.9405C17.6653 35.3189 16.8363 35.569 17.2283 34.8025C17.1969 34.6903 17.1992 34.538 17.125 34.4659C16.7808 34.131 17.0088 33.7609 17.9726 33.1063C18.1843 32.9619 18.4255 32.691 18.6094 32.6808C19.3592 32.4448 19.2466 33.0832 19.4162 33.4156C20.2629 35.0447 21.0537 36.7239 21.8686 38.3882L22.6008 39.9294C22.7256 40.185 22.8504 40.4407 22.9845 40.6837L23.5692 41.7735C23.8448 42.2648 24.2665 42.8216 24.2805 43.3576L24.2786 43.3627Z" fill="#FEA776"/>
<path d="M30.3121 19.8449C30.5189 20.1424 30.7546 20.4155 30.9353 20.7419C31.6181 21.9802 32.282 23.232 32.9583 24.4775C32.9919 24.544 33.0715 24.56 33.1254 24.5968L33.1261 24.5887C33.5302 25.3423 33.9205 26.1184 34.3476 26.8468C35.3355 28.5408 36.2972 30.2637 37.0207 32.2342C37.1343 32.5383 37.3848 33.0024 36.6251 33.7876C35.8359 34.6053 35.2053 34.782 34.9725 34.2837C34.4099 33.0757 33.9497 31.7476 33.1838 30.7636C32.0589 29.324 31.2437 27.5655 30.2783 25.9651C29.4137 24.5274 28.6246 23.0067 27.7508 21.5717C26.9297 20.2267 25.984 19.019 25.2089 17.6234C24.5444 16.4166 24.0689 15.0164 23.4635 13.7445C23.3197 13.4441 23.1943 13.1013 22.7574 13.1387L22.7502 13.154C22.9093 12.468 22.0569 12.7635 22.388 11.9103C22.3411 11.7843 22.327 11.6222 22.2375 11.5432C21.8347 11.1878 22.0325 10.77 22.9867 10.0221C23.1974 9.85654 23.4216 9.55768 23.6181 9.53364L23.6102 9.55709L23.6207 9.53814C24.3944 9.25554 24.3443 9.96192 24.5611 10.3225C25.6451 12.0882 26.6825 13.9127 27.7337 15.7146C28.3822 16.8206 28.9756 17.9799 29.7093 18.9919C29.9089 19.2678 30.1931 19.4579 30.3035 19.8395L30.3121 19.8449Z" fill="#FEA776"/>
<path d="M38.2281 33.4652C38.2107 34.0616 38.1327 34.5915 37.8785 35.0418L37.7147 35.2964C37.436 35.6775 37.0895 35.9335 36.7479 36.0508C36.4031 36.1716 36.0371 36.1827 35.6203 36.0795C35.2002 35.98 34.7522 35.7039 34.3175 35.4873L33.4611 35.0396C33.4151 35.0163 33.3488 35.0598 33.291 35.0717L33.293 35.0843C32.7273 34.7825 32.1702 34.4492 31.596 34.1789C30.2688 33.5543 28.9508 32.8901 27.7412 31.84C27.5536 31.6766 27.203 31.493 27.5394 30.2714C27.8888 28.9983 28.3215 28.3736 28.6656 28.6013C29.5018 29.1527 30.2935 29.8861 31.2165 30.0976C31.8897 30.2513 32.5322 30.5277 33.1656 30.8436L34.1094 31.3208L34.5816 31.5553L34.821 31.6689L34.8815 31.6985C34.9019 31.7056 34.8934 31.7003 34.9019 31.7056L34.9256 31.7092C34.9933 31.7234 35.0545 31.7448 35.115 31.7744C35.1728 31.7994 35.2524 31.8153 35.2976 31.7359C35.348 31.6286 35.2991 31.49 35.272 31.3793C35.2627 31.3451 35.2502 31.3145 35.2344 31.2875C35.2265 31.2741 35.2212 31.265 35.2113 31.2389L35.1589 30.9563L34.9375 29.8237C34.7878 29.0711 34.6472 28.3158 34.5644 27.5486C34.4182 26.2221 34.5066 24.8445 34.4393 23.5052C34.4224 23.1909 34.4349 22.844 34.0449 22.6299L34.0324 22.6363C34.4187 22.181 33.5699 21.9396 34.1625 21.4495C34.1662 21.327 34.2133 21.1863 34.1652 21.0766C33.9422 20.5674 34.2645 20.3529 35.3585 20.2945C35.599 20.2811 35.9044 20.1667 36.0794 20.2625C36.8499 20.4718 36.5564 21.0024 36.6169 21.4093C36.9278 23.4127 37.1717 25.4306 37.4426 27.4485L37.6724 29.3043C37.7136 29.6141 37.7549 29.9238 37.8086 30.2272L38.0337 31.5778C38.1464 32.1936 38.3764 32.954 38.2314 33.4616L38.2281 33.4652Z" fill="#FEA776"/>
<path d="M199.109 22.9521C198.713 23.4139 198.333 23.914 197.917 24.3413C196.341 25.9571 194.752 27.5514 193.17 29.1586C193.088 29.24 193.038 29.3774 192.976 29.4932L192.986 29.4897C192.027 30.4601 191.06 31.405 190.117 32.4011C187.934 34.7047 185.735 36.9781 183.372 38.9261C183.004 39.2324 182.417 39.8304 181.892 38.8228C181.346 37.7764 181.407 36.7707 182.026 36.1873C183.524 34.7814 185.106 33.5219 186.447 31.853C188.41 29.4106 190.591 27.3801 192.662 25.1477C194.526 23.1456 196.443 21.2463 198.3 19.2313C200.043 17.3453 201.698 15.2836 203.475 13.4578C205.01 11.8805 206.678 10.5563 208.261 9.06512C208.633 8.71344 209.046 8.37283 209.182 7.64122L209.167 7.63611C209.83 7.65983 209.857 6.3084 210.622 6.56247C210.772 6.43594 210.952 6.35285 211.072 6.17468C211.608 5.35395 211.971 5.53971 212.373 6.89504C212.463 7.19489 212.693 7.46272 212.634 7.78988L212.614 7.78437L212.627 7.79768C212.617 9.0054 211.893 9.18029 211.426 9.69107C209.131 12.1857 206.799 14.6158 204.475 17.0713C203.052 18.5774 201.592 20.019 200.233 21.637C199.861 22.0797 199.547 22.6338 199.102 22.9599L199.109 22.9521Z" fill="#FEA776"/>
<path d="M182.022 41.0413C181.573 41.0525 181.179 40.9764 180.859 40.6529L180.68 40.4423C180.414 40.081 180.247 39.6146 180.188 39.1555C180.125 38.6877 180.146 38.1843 180.259 37.6042C180.368 37.0197 180.613 36.3865 180.813 35.775L181.221 34.5691C181.242 34.5044 181.215 34.4156 181.211 34.3367L181.201 34.3402C181.475 33.5434 181.773 32.7564 182.024 31.9497C182.605 30.085 183.215 28.2305 184.107 26.5027C184.246 26.2347 184.414 25.741 185.31 26.1322C186.244 26.5383 186.681 27.0973 186.481 27.5846C185.996 28.7687 185.376 29.9025 185.141 31.1861C184.97 32.1223 184.709 33.0235 184.418 33.9144L183.98 35.2424L183.764 35.9066L183.659 36.243L183.632 36.3281C183.624 36.3566 183.629 36.3445 183.624 36.3566L183.62 36.3894C183.604 36.4835 183.582 36.569 183.555 36.6541C183.531 36.7352 183.513 36.8457 183.569 36.9033C183.646 36.9664 183.755 36.8909 183.841 36.847C183.868 36.8322 183.892 36.8132 183.913 36.7898C183.924 36.7781 183.932 36.7703 183.952 36.7551L184.17 36.6663L185.045 36.2945C185.626 36.0438 186.208 35.8056 186.795 35.6463C187.81 35.3668 188.845 35.4071 189.863 35.2354C190.102 35.1934 190.363 35.1903 190.557 34.6404L190.553 34.6236C190.866 35.1288 191.118 33.9456 191.44 34.7328C191.532 34.7307 191.635 34.7872 191.722 34.7144C192.125 34.3773 192.261 34.8085 192.216 36.3118C192.206 36.6422 192.268 37.056 192.181 37.3027C191.96 38.3762 191.583 38.0033 191.27 38.1106C189.73 38.6571 188.184 39.1121 186.636 39.6043L185.214 40.0303C184.976 40.1055 184.739 40.1806 184.505 40.2725L183.465 40.6621C182.991 40.8538 182.397 41.2154 182.025 41.0456L182.022 41.0413Z" fill="#FEA776"/>
</svg>
