<svg width="41" height="84" viewBox="0 0 41 84" fill="none" xmlns="http://www.w3.org/2000/svg">
<path fill-rule="evenodd" clip-rule="evenodd" d="M40.209 1.34265C39.9128 1.2967 39.9108 1.36027 40.1429 1.73665C40.3007 1.99258 40.3614 2.39157 40.29 2.64337C40.2186 2.89516 40.2235 3.20383 40.3071 3.33932C40.3907 3.47482 40.3633 4.03192 40.2634 4.57147C40.1485 5.12023 40.1196 5.57445 40.1922 5.592C40.4008 5.6296 40.2106 6.5573 39.9963 6.54396C39.8939 6.54482 39.9161 6.61424 40.0351 6.70707C40.1542 6.7999 40.1418 7.3478 40.01 7.96933C39.8689 8.57581 39.8005 9.19984 39.8299 9.34789C39.8538 9.5202 39.7844 9.70842 39.665 9.78205C39.5605 9.84648 39.5227 10.1192 39.6022 10.3818C39.7058 10.7058 39.6417 10.78 39.4098 10.6044C39.0192 10.305 38.8868 10.3243 39.1302 10.6521C39.2138 10.7876 39.232 10.9842 39.161 11.0695C38.948 11.3255 38.5823 10.6991 38.6932 10.2774C38.7347 10.0441 38.8299 9.96457 39.0235 10.0114C39.2172 10.0582 39.2454 9.93689 39.1437 9.60483C39.0585 9.36644 39.0516 9.12135 39.1262 9.07533C39.2008 9.02931 39.1677 8.84194 39.062 8.63702C38.867 8.32087 38.8819 8.31166 39.1777 8.52407C39.3545 8.64366 39.4513 8.66706 39.3956 8.57673C39.3549 8.4772 39.3612 8.12002 39.4309 7.76534C39.5232 7.31362 39.4736 7.03257 39.269 6.86782C39.1221 6.72983 39.072 6.61524 39.1596 6.62359C39.4428 6.61517 39.8125 5.41056 39.5724 5.28848C39.457 5.23496 39.3041 5.28769 39.2517 5.40314C39.1843 5.52778 39.1621 5.45836 39.1887 5.23418C39.2096 5.03425 39.1801 4.8862 39.1204 4.92302C38.9413 5.03347 38.6315 6.97 38.7614 7.18077C38.8264 7.28615 38.8039 7.38318 38.6921 7.36898C38.5896 7.36984 38.5037 7.46438 38.4997 7.59152C38.5013 7.69441 38.6074 7.73287 38.7269 7.65923C38.9955 7.49356 39.1888 7.70682 39.0485 7.98038C39.0017 8.07157 38.8992 8.07243 38.8343 7.96705C38.5929 7.57562 38.5592 8.4899 38.7946 9.07204C39.0614 9.73867 39.0534 9.99297 38.7749 9.54132C38.4964 9.08967 38.2261 9.15246 38.2714 9.72712C38.2727 9.99647 38.1771 10.2424 38.054 10.2767C37.8826 10.2994 37.8879 10.4415 38.0364 10.6824C38.1756 10.9083 38.1749 11.2412 38.0495 11.5055C37.7462 12.1497 37.8552 12.5604 38.2583 12.3119C38.4374 12.2014 38.4991 12.101 38.4172 12.0684C38.2328 12.0367 38.275 11.4704 38.484 11.3415C38.5735 11.2863 38.6627 11.3975 38.7015 11.5606C38.7254 11.7329 38.848 11.8651 38.9747 11.8701C39.3455 11.87 39.0266 12.8563 38.607 13.0111C38.3733 13.0998 38.4049 13.1288 38.7019 13.0981C38.9988 13.0673 39.0775 13.1504 38.938 13.3473C38.8109 13.5088 38.6964 13.8911 38.692 14.1847C38.6889 14.7476 37.9777 15.3316 37.8949 14.8632C37.8598 14.7394 37.9421 14.6056 38.0744 14.5863C38.2217 14.5578 38.226 14.2642 38.1077 13.8385C37.947 13.2103 37.9978 12.992 38.3931 12.8313C38.6207 12.7325 38.3398 12.5109 38.0602 12.5587C37.8589 12.5997 37.7213 12.4768 37.6046 12.1539C37.4621 11.7223 37.4415 11.7558 37.5054 12.3605C37.5325 12.7386 37.4979 13.2171 37.4136 13.4145C37.3294 13.6119 37.3213 13.8662 37.3863 13.9716C37.4606 14.0921 37.4675 14.3371 37.3832 14.5346C37.3232 14.7379 37.3055 15.1435 37.3588 15.4639C37.434 16.0202 37.4191 16.0294 37.1253 15.7534C36.9691 15.6003 36.7568 15.5234 36.6822 15.5694C36.6076 15.6155 36.6185 15.7334 36.719 15.7961C36.8138 15.8831 36.9139 16.1123 36.9378 16.2846C36.9649 16.6627 37.5144 16.7186 37.8376 16.3739C37.9795 16.2032 38.0037 16.2091 37.8989 16.44C37.8352 16.6039 37.8925 16.7972 38.0301 16.9201C38.1827 17.0338 38.2049 17.1033 38.0633 17.1075C37.9366 17.1025 37.8188 17.279 37.8071 17.494C37.7766 17.8453 37.7261 17.8972 37.4953 17.7902C37.298 17.704 37.2754 17.8011 37.4236 18.2084C37.6162 18.7546 37.4964 18.9947 37.1728 18.7371C37.0723 18.6744 37.0832 18.7923 37.2132 19.0031C37.4582 19.4339 37.2614 19.95 36.9321 19.7167C36.8131 19.6239 36.7832 19.6423 36.876 19.7928C37.0375 20.0881 36.811 21.3914 36.6476 21.1597C36.5677 21.0635 36.4805 20.8887 36.449 20.8042C36.4231 20.6955 36.3117 20.5148 36.2096 20.3492C36.1019 20.2079 36.0243 19.8816 36.0323 19.6274C36.0311 19.358 35.9459 19.1196 35.797 19.0452C35.6146 18.9499 35.5549 18.9867 35.5489 19.1774C35.5449 19.3046 35.5949 19.4192 35.6675 19.4367C35.7252 19.4635 35.7414 19.7236 35.683 20.0298C35.6169 20.4238 35.5254 20.5426 35.3615 20.4774C35.2126 20.4029 35.2106 20.4665 35.3612 20.6438C35.521 20.8362 35.5021 20.9725 35.308 21.0922C35.1438 21.1934 35.0446 21.4001 35.089 21.5389C35.1609 21.8894 35.0614 22.2625 34.8314 22.5913C34.71 22.7285 34.7113 22.9978 34.832 23.1935C34.962 23.4043 35.0428 23.3683 35.0745 23.0856C35.101 22.8614 35.1591 22.7217 35.2148 22.812C35.2612 22.8873 35.3116 22.8354 35.3213 22.684C35.316 22.5418 35.4358 22.3017 35.5758 22.1946C35.7065 22.0725 35.7516 21.8784 35.6717 21.7822C35.5825 21.671 35.5982 21.3289 35.72 21.0252L35.928 20.4605L36.2158 20.9272C36.5722 21.5386 36.5808 21.8866 36.193 21.9594C35.9675 21.9946 35.9506 22.0674 36.1366 22.202C36.4603 22.4596 36.1024 24.218 35.7618 24.0332C35.6129 23.9588 35.594 24.0951 35.7236 24.4723C35.8439 24.8345 35.8435 25.001 35.674 24.96C35.4319 24.9015 35.134 25.6879 35.3011 25.9589C35.3568 26.0492 35.241 26.1621 35.0433 26.2425C34.7766 26.3446 34.7597 26.4174 34.955 26.567C35.0833 26.6749 35.1205 26.7352 35.0236 26.7117C34.7573 26.6474 34.015 28.6844 34.2438 28.855C34.3108 28.8968 34.2527 29.0365 34.1071 29.1678C33.9409 29.3327 33.8683 29.3151 33.8593 29.1336C33.8597 28.9671 33.8262 28.9462 33.7681 29.0859C33.7008 29.2106 33.6169 29.2416 33.5612 29.1512C33.5148 29.0759 33.5151 28.9095 33.5619 28.8183C33.6143 28.7029 33.5885 28.5941 33.4973 28.5465C33.2907 28.4453 33.6522 26.7262 33.8814 26.7304C33.9839 26.7295 34.0064 26.6325 33.9322 26.512C33.8579 26.3916 33.6586 26.3691 33.5093 26.4611C33.3451 26.5623 33.2927 26.6778 33.3988 26.7162C33.49 26.7639 33.4707 27.0667 33.3582 27.3854C33.2308 27.7134 33.1724 28.0195 33.1853 28.0739C33.2224 28.1341 33.2814 28.4302 33.3254 28.7355C33.3751 29.0166 33.5011 29.3545 33.5996 29.4808C33.7223 29.6129 33.6622 29.8162 33.4754 30.0145C33.2588 30.2312 33.2362 30.3282 33.4263 30.3357C33.6312 30.334 33.6777 30.4093 33.6454 30.6577C33.5451 31.3637 32.9838 30.754 32.7959 29.7478C32.7592 29.5211 32.668 29.4734 32.4739 29.5931C32.2799 29.7127 32.2779 29.7763 32.4437 29.778C32.7996 29.7871 32.763 30.3291 32.3845 30.4171C32.2131 30.4397 32.1477 30.5007 32.2631 30.5543C32.3636 30.617 32.5351 30.5944 32.6395 30.5299C32.759 30.4563 32.8966 30.5792 33.0189 30.8778C33.2563 31.3964 32.8026 32.632 32.3366 32.7115C32.1353 32.7526 32.0679 32.8772 32.1531 33.1156C32.242 33.3933 32.2008 33.4602 31.9531 33.426C31.778 33.4093 31.6404 33.2863 31.6444 33.1592C31.6334 33.0413 31.5943 33.0446 31.5419 33.16C31.454 33.3182 31.5339 33.4143 31.8075 33.5573C32.1145 33.7212 32.1311 33.8149 31.9622 34.3762C31.844 34.7192 31.6888 35.002 31.5956 35.0179C31.508 35.0095 31.437 35.0949 31.433 35.222C31.429 35.3492 31.3338 35.4286 31.2164 35.4387C31.0506 35.4371 31.0728 35.5065 31.2346 35.6353C31.4727 35.8209 31.4372 35.8636 30.8889 36.077C30.2958 36.318 30.2809 36.3272 30.7038 36.3782C31.1024 36.4233 31.1117 36.4383 30.8971 36.5914C30.7478 36.6835 30.6655 36.8173 30.712 36.8926C30.7677 36.9829 30.6519 37.0959 30.4691 37.167C30.2864 37.2382 30.1912 37.3176 30.2674 37.3745C30.4983 37.4815 30.4189 37.9876 30.124 38.211C29.9542 38.3365 29.7876 38.6678 29.7534 38.9798C29.6796 39.4617 29.6591 39.4951 29.4863 39.2484C29.3471 39.0226 29.3003 39.1137 29.1685 39.7353C29.0968 40.1535 28.9899 40.448 28.9621 40.4028C28.9342 40.3577 28.8499 40.5551 28.7879 40.822C28.6976 41.2101 28.6117 41.3046 28.4386 41.2244C28.2654 41.1441 28.2336 41.2261 28.2982 41.4979C28.3592 41.7305 28.3495 41.8819 28.2769 41.8643C28.1893 41.856 28.122 41.9806 28.116 42.1713C28.1007 42.347 27.8914 42.6423 27.6711 42.8197C27.4359 43.0063 27.2157 43.1837 27.1652 43.2355C27.1055 43.2723 27.1891 43.4078 27.3174 43.5157C27.5034 43.6504 27.4865 43.7231 27.261 43.7583C27.0746 43.7901 26.9419 43.9759 26.9282 44.2544C26.9146 44.533 26.8379 44.6426 26.7076 44.5982C26.4005 44.4344 26.2137 44.6326 26.4611 44.8333C26.6137 44.9471 26.6004 45.0592 26.4362 45.1604C26.3018 45.2433 26.2643 45.3495 26.3463 45.3821C26.4375 45.4298 26.4149 45.5268 26.2955 45.6004C26.1761 45.6741 26.0849 45.6264 26.0739 45.5085C26.0779 45.3813 26.0126 45.4424 25.9432 45.6306C25.8832 45.8339 25.7468 45.9803 25.6294 45.9904C25.5176 45.9762 25.4781 46.146 25.5206 46.3484C25.6167 46.7047 25.4073 47 25.2402 46.7291C25.1938 46.6538 25.0708 46.6881 24.9792 46.8069C24.8969 46.9408 24.876 47.1407 24.9502 47.2611C25.0431 47.4117 24.9757 47.5363 24.7595 47.5866C24.5077 47.6795 24.5057 47.743 24.7232 47.9621C24.9743 48.2022 24.9686 48.2264 24.57 48.1813C24.3464 48.1529 24.229 48.163 24.3352 48.2014C24.432 48.2249 24.4724 48.4908 24.4103 48.7577C24.333 49.2002 24.2825 49.2521 24.0275 49.1392C23.8786 49.0648 23.7039 48.8816 23.6502 48.7277C23.6207 48.5797 23.3975 48.3848 23.2002 48.2987C22.8483 48.1624 22.8427 48.1867 23.1099 48.6868C23.2863 48.9729 23.4849 49.3284 23.5834 49.4547C23.6911 49.596 23.7057 49.7533 23.6161 49.8085C23.5415 49.8545 23.5338 49.9423 23.64 49.9808C23.9136 50.1238 23.6538 50.471 23.3185 50.4284C23.0857 50.3849 23.0203 50.446 23.0571 50.6727C23.0959 50.8358 23.0378 50.9755 22.9353 50.9763C22.8328 50.9772 22.8119 51.1771 22.8914 51.4398L23.0433 51.8864L22.5687 51.618C22.3157 51.4415 22.0982 51.2224 22.1022 51.0953C22.0912 50.9773 22.0521 50.9807 21.9997 51.0961C21.9323 51.2208 22.0527 51.583 22.2569 51.9142C22.5075 52.3207 22.5499 52.5231 22.399 52.5122C22.2816 52.5223 22.1751 52.6503 22.1655 52.8017C22.1631 53.0317 22.124 53.0351 21.994 52.8243C21.9105 52.6888 21.7616 52.6144 21.672 52.6696C21.5974 52.7157 21.5805 52.7884 21.6474 52.8302C21.7386 52.8779 21.8202 53.077 21.8477 53.2886C21.9066 53.5847 21.8489 53.5579 21.5741 53.1456L21.2193 52.6371L21.382 53.2017C21.5835 53.9294 21.0677 54.6631 20.5298 54.3922C20.0346 54.1572 19.8293 54.3254 20.0985 54.762C20.2285 54.9728 20.2838 55.2295 20.2221 55.3299C20.1697 55.4454 20.2234 55.5993 20.3424 55.6921C20.4615 55.7849 20.4446 55.8577 20.2824 55.8954C20.1351 55.9239 19.9006 55.7775 19.7315 55.5701C19.464 55.2364 19.4397 55.2305 19.3495 55.6187C19.2987 55.837 19.1789 56.0771 19.0744 56.1415C18.9699 56.206 19.0704 56.2687 19.3089 56.2879C19.6199 56.3246 19.7055 56.3966 19.664 56.6299C19.6301 56.7755 19.6968 56.9838 19.8065 57.0615C19.9591 57.1753 19.9179 57.2422 19.7315 57.274C19.4911 57.3184 19.439 57.2674 19.4397 56.9345C19.4348 56.6258 19.3642 56.5447 19.014 56.5113C18.6488 56.4871 18.5891 56.5239 18.5698 56.8267C18.5489 57.0266 18.6119 57.1956 18.7143 57.1948C18.8019 57.2031 19.0029 57.3285 19.1647 57.4573C19.3971 57.6672 19.4081 57.7852 19.1765 58.0111C19.0345 58.1817 18.8554 58.2922 18.7921 58.2897C18.7344 58.2629 18.7456 58.2144 18.8352 58.1592C18.9248 58.104 18.8525 57.92 18.6778 57.7368C18.3952 57.4123 18.3803 57.4215 18.3348 57.782C18.2986 58.1576 18.2837 58.1668 18.2118 57.8164C18.1477 57.5788 18.083 57.6187 18.0177 57.936C17.9463 58.1878 17.9549 58.5358 18.0328 58.6955C18.3723 59.3797 18.361 59.4282 18.031 59.5278C17.755 59.6149 17.7288 59.6726 17.9334 59.8374C18.0767 59.936 18.1174 60.0356 18.015 60.0364C17.9125 60.0373 17.8153 60.1803 17.785 60.3652C17.7548 60.5501 17.6556 60.7567 17.5511 60.8211C17.4317 60.8948 17.368 61.0587 17.3939 61.1675C17.427 61.3548 17.3971 61.3733 17.3043 61.2227C17.2244 61.1265 17.1219 61.1274 17.0546 61.252C16.9965 61.3917 16.9388 61.365 16.8907 61.1868C16.8762 61.0296 16.7498 60.8581 16.6102 60.7987C16.4762 60.7151 16.4517 60.8757 16.5962 61.2438C16.7536 61.6662 16.7404 61.7782 16.5245 61.662C16.3514 61.5817 16.292 61.4521 16.3557 61.2881C16.4194 61.1242 16.4102 61.1091 16.2738 61.2555C16.173 61.3593 16.1835 61.6437 16.2836 61.8728C16.4116 62.1472 16.4 62.3622 16.2358 62.4634C16.0417 62.5831 16.0082 62.5622 16.1074 62.3555C16.201 62.1732 16.1639 62.1129 15.9738 62.1055C15.7447 62.1013 15.6156 62.3264 15.7064 62.5405C15.9938 63.1736 15.8573 64.2552 15.5244 63.9826C15.2492 63.7367 15.0305 64.017 15.315 64.2779C15.6181 64.569 15.4386 64.8459 14.9448 64.8803C14.6466 64.8979 14.5946 64.8469 14.6324 64.5742C14.6477 64.3985 14.6239 64.2262 14.5605 64.2237C14.3091 64.1501 14.0882 64.6604 14.1935 65.0318C14.2602 65.2401 14.2412 65.3764 14.1537 65.3681C13.9023 65.2945 13.8169 65.9913 14.0381 66.2498C14.1886 66.4271 14.1604 66.5484 13.9421 66.6622C13.4161 66.945 13.1216 67.002 12.8685 66.8255C12.6825 66.6909 12.6526 66.7093 12.7826 66.92C12.8605 67.0798 12.8154 67.2739 12.6903 67.3718C12.4366 67.5282 12.4608 67.5341 12.7646 67.4922C13.089 67.4169 13.0926 67.4562 13.0076 67.9865C12.9282 68.4926 12.8984 68.511 12.8152 68.2091C12.7511 67.9715 12.7032 67.9941 12.6716 68.2768C12.6543 68.5161 12.6055 68.6708 12.5683 68.6106C12.5405 68.5655 12.4413 68.7721 12.353 69.0967C12.2704 69.397 11.984 69.9684 11.7428 70.3457C11.3334 70.9513 11.0713 71.5286 11.1549 71.6641C11.1734 71.6942 11.5111 71.5067 11.929 71.249C12.347 70.9913 12.6382 70.7286 12.5918 70.6533C12.5454 70.578 12.6684 70.5437 12.8528 70.5755C13.1248 70.6156 13.1696 70.588 13.0675 70.4224C12.9653 70.2567 13.0101 70.2291 13.2409 70.3362C13.4625 70.4281 13.5315 70.4064 13.4983 70.219C13.4394 69.9229 13.6725 69.7999 14.1325 69.9111C14.4622 69.9779 14.5272 70.0833 14.5264 70.4162C14.5201 70.7734 14.5535 70.7943 14.7645 70.6019C14.9456 70.4278 14.9162 70.2798 14.6357 69.8917C14.2938 69.4376 14.2902 69.3983 14.6533 69.486C14.8712 69.5387 15.1391 69.7059 15.2655 69.8774C15.4289 70.1091 15.5072 70.1023 15.6456 69.8924C15.7335 69.7342 15.8735 69.6272 15.961 69.6355C16.0336 69.6531 16.0599 69.5953 16.0042 69.505C15.9485 69.4147 15.643 69.3537 15.3057 69.3746C14.9833 69.3864 14.6722 69.3497 14.6258 69.2744C14.4959 69.0636 15.0219 68.7808 15.3609 68.8627C15.5788 68.9154 15.6255 68.8242 15.5536 68.4737C15.5076 68.232 15.5451 68.1257 15.6343 68.237C15.755 68.4327 15.7699 68.4235 15.7836 68.1449C15.7839 67.9785 15.8307 67.8873 15.8864 67.9776C15.9328 68.0529 15.9889 67.9767 16.0042 67.8011C16.0215 67.5618 16.1107 67.6731 16.4001 68.2427C16.5967 68.6617 16.8493 69.0046 16.9518 69.0038C17.1326 68.9962 17.1067 68.8875 16.6575 68.1255C16.4032 67.6797 16.4188 67.3376 16.7174 67.1535C16.8069 67.0983 16.8348 67.1434 16.7916 67.2739C16.6755 67.5533 17.1639 68.3119 17.4193 68.2584C17.7529 68.1981 18.0061 67.4393 17.7813 67.1416C17.5622 66.8196 17.2298 67.1492 17.434 67.4804C17.5083 67.6009 17.4615 67.6921 17.3199 67.6963C17.1541 67.6946 17.1359 67.4981 17.2653 67.1065C17.3947 66.715 17.3709 66.5427 17.2143 66.5562C17.082 66.5754 17.1978 66.4625 17.4551 66.3453C18.026 66.0349 18.3444 66.1502 18.1738 66.6087C18.0371 66.9215 18.0464 66.9366 18.3094 66.7952C18.4438 66.7123 18.5167 66.5634 18.461 66.4731C18.3868 66.3527 18.4614 66.3066 18.6942 66.3501C18.9662 66.3902 19.0017 66.3475 18.8624 66.1217C18.7325 65.9109 18.768 65.8683 18.9858 65.9209C19.4216 66.0262 19.543 65.889 19.3202 65.5277C19.1717 65.2868 19.0841 65.2785 18.8917 65.501C18.7498 65.6717 18.6118 65.7152 18.5468 65.6098C18.4911 65.5195 18.5472 65.4434 18.6496 65.4425C18.7671 65.4325 18.7711 65.3053 18.6689 65.1397C18.5204 64.8988 18.5635 64.7683 18.8322 64.6026C19.3099 64.3081 19.5593 64.4452 19.452 64.9062C19.3335 65.4156 19.4191 65.4875 19.852 65.2206C20.1057 65.0641 20.2808 65.0808 20.3979 65.2372C20.5371 65.4631 20.567 65.4447 20.4987 65.1335C20.4526 64.8918 20.3207 64.7446 20.1456 64.7279C19.9313 64.7145 19.805 64.5431 19.694 64.1959C19.5442 63.6857 19.5591 63.6765 19.9444 63.8337C20.1567 63.9106 20.5291 64.0134 20.7526 64.0418C21.1513 64.0869 21.1662 64.0777 20.8071 63.8628C20.3567 63.6002 20.249 63.4589 20.5024 63.4689C20.6198 63.4588 20.6984 63.2857 20.7044 63.0949C20.7031 62.8256 20.7685 62.7645 20.8875 62.8573C21.2596 63.1266 21.3665 62.8322 21.0488 62.3839C20.7683 61.9958 20.7292 61.9991 20.7042 62.3262C20.6507 62.941 20.4989 62.4944 20.4931 61.7499C20.4942 61.2505 20.599 61.0196 20.8415 60.9117C21.0392 60.8313 21.157 60.6548 21.1033 60.5009C21.0423 60.2684 21.0274 60.2776 21.0137 60.5561C20.9851 60.8439 20.9702 60.8531 20.8495 60.6574C20.7753 60.537 20.7143 60.3044 20.7239 60.153C20.7207 59.9472 20.8082 59.9556 21.0685 60.2107C21.3623 60.4866 21.4349 60.5042 21.5212 60.2432C21.6019 60.0065 21.6616 59.9696 21.7358 60.0901C21.7915 60.1804 21.9275 60.2005 22.0469 60.1268C22.2858 59.9796 22.5735 60.4463 22.4518 60.7499C22.3937 60.8896 22.4922 61.0159 22.7323 61.138C23.4433 61.4892 23.4391 62.5515 22.7472 62.8327C22.4506 62.9532 23.0479 63.3538 23.3444 63.2333C23.5364 63.1772 23.5832 63.086 23.4585 63.0175C23.3431 62.9639 23.3116 62.8795 23.4012 62.8242C23.4758 62.7782 23.636 62.8041 23.7216 62.876C23.9169 63.0257 23.7501 62.5883 23.4511 62.1701C23.3675 62.0346 23.3881 62.0011 23.4979 62.0789C23.6076 62.1567 23.7605 62.1039 23.8521 61.9851C23.9287 61.8756 23.9569 61.7543 23.89 61.7125C23.8323 61.6857 23.8177 61.5284 23.8572 61.3586C23.9136 61.116 24.0125 61.0759 24.2489 61.1586C24.437 61.2297 24.5076 61.3108 24.4346 61.4597C24.3878 61.5509 24.3875 61.7174 24.4432 61.8077C24.5081 61.9131 24.5961 61.755 24.6488 61.4731C24.7581 60.9486 24.7084 60.6675 24.5475 60.9745C24.4071 61.2481 24.2255 60.8199 24.26 60.3414C24.3116 59.7901 24.1687 59.525 24.0392 59.9165C23.9755 60.0804 23.8598 60.1934 23.7871 60.1758C23.6903 60.1524 23.6693 60.3524 23.7247 60.6092C23.8277 61.2106 23.6704 61.5569 23.4384 61.1805C23.3455 61.03 23.1893 60.8769 23.0925 60.8535C22.9807 60.8393 22.7725 60.6353 22.6425 60.4245C22.1429 59.7144 22.0908 59.6634 22.0029 59.8215C21.9037 60.0282 21.4326 59.0303 21.5003 58.7392C21.5285 58.6179 21.6423 58.5685 21.7428 58.6312C21.8582 58.6848 21.8897 58.7692 21.815 58.8153C21.5911 58.9533 21.7317 59.4485 22 59.4493C22.1267 59.4543 22.1472 59.4208 22.0467 59.3581C21.9313 59.3046 21.9095 59.0687 21.9809 58.8169C22.0954 58.4346 22.1756 58.3643 22.427 58.4379C22.6542 58.5056 22.6635 58.5207 22.4827 58.5282C22.3262 58.5416 22.3 58.5994 22.419 58.6922C22.5288 58.77 22.8399 58.8067 23.1138 58.7832C23.4369 58.7503 23.4495 58.6594 23.1517 58.5105C22.8632 58.3767 22.7312 58.2295 22.7836 58.1141C22.8453 58.0137 22.9236 58.007 22.97 58.0823C23.0257 58.1726 23.1766 58.1835 23.296 58.1098C23.4154 58.0362 23.5849 58.0771 23.6592 58.1976C23.7335 58.318 23.8601 58.323 23.9517 58.2042C24.0433 58.0854 24.0101 57.8981 23.8632 57.7601C23.6122 57.52 23.7082 57.1076 23.9817 57.2506C24.2795 57.3995 24.4441 58.8357 24.1956 59.1343C24.0443 59.29 24.044 59.4564 24.1816 59.5794C24.3006 59.6722 24.4568 59.8252 24.5125 59.9156C24.6425 60.1263 24.6387 59.3183 24.5118 58.5446C24.4419 58.1305 24.4794 58.0243 24.686 58.1254C24.8741 58.1965 24.8704 58.1572 24.6807 57.9832C24.4483 57.7733 24.4559 57.6855 24.8085 57.4889C25.0175 57.36 25.2729 57.3064 25.3584 57.3783C25.6244 57.6092 25.7323 58.5192 25.4789 58.5092C25.3224 58.5226 25.3539 58.6071 25.5678 58.7869C25.7816 58.9667 25.7982 59.0604 25.6715 59.0554C25.5541 59.0655 25.4533 59.1692 25.4493 59.2964C25.4638 59.4536 25.488 59.4595 25.5554 59.3348C25.7014 59.037 25.7793 59.1968 25.867 59.9738C25.9091 60.3427 25.8393 60.6974 25.7348 60.7618C25.6154 60.8355 25.5723 60.966 25.628 61.0563C25.6837 61.1466 25.5921 61.2654 25.4243 61.3274C25.1782 61.396 25.1556 61.493 25.3191 61.7247C25.5104 62.0016 25.5069 62.731 25.304 62.6691C25.0433 62.5805 24.3456 62.1172 24.3197 62.0085C24.2975 61.9391 24.1987 61.9792 24.1071 62.098C23.9595 62.293 23.9873 62.3381 24.3021 62.4142C24.5107 62.4518 24.6632 62.5655 24.6649 62.6684C24.6665 62.7713 24.7726 62.8097 24.89 62.7997C25.0373 62.7712 25.0386 63.0406 24.8958 63.5442C24.7701 63.975 24.568 64.3489 24.4207 64.3774C24.2436 64.4243 24.2509 64.5029 24.4555 64.6676C24.7122 64.8834 24.6859 64.9411 24.3204 65.0834C24.0239 65.2039 23.8819 65.3746 23.8719 65.6925C23.849 65.9559 23.9099 66.1885 24.0011 66.2361C24.0923 66.2838 24.1053 66.3382 24.0213 66.3691C23.6558 66.5114 23.5324 66.7122 23.739 66.8134C23.9065 66.9179 23.8915 66.9271 23.6587 66.8836C23.3291 66.8168 23.1236 66.2162 23.4552 66.2195C23.5577 66.2187 23.6138 66.1425 23.5674 66.0673C23.4467 65.8715 23.2881 65.9485 23.1159 66.3041C23.0373 66.4772 23.1039 66.6855 23.3549 66.9255C23.6915 67.2375 23.6858 67.2617 23.3263 67.2133C23.1028 67.1849 23.0189 67.2159 23.1436 67.2844C23.259 67.3379 23.3183 67.4676 23.2659 67.583C23.2191 67.6742 23.1445 67.7202 23.0831 67.6542C23.046 67.5939 22.9048 67.4317 22.7914 67.3146C22.6687 67.1825 22.6468 66.9466 22.7255 66.7734C22.8283 66.6061 22.8117 66.5124 22.7222 66.5676C22.6177 66.6321 22.4297 66.561 22.2828 66.423C21.9611 66.1019 22.0059 66.0743 22.5385 66.203C22.9501 66.3024 22.965 66.2932 22.7027 66.1017C22.5502 65.988 22.3661 65.7898 22.2919 65.6693C22.1898 65.5037 22.0667 65.538 21.8146 65.7974C21.6129 66.0049 21.4391 66.2575 21.4052 66.4031C21.3657 66.5729 21.3899 66.5788 21.4573 66.4541C21.5246 66.3295 21.6679 66.4281 21.8499 66.6899C22.199 67.2227 22.0865 67.5414 21.6923 67.2027C21.5304 67.0739 21.361 67.033 21.3235 67.1392C21.2618 67.2396 21.3154 67.3935 21.4345 67.4863C21.5628 67.5942 21.5645 67.6971 21.4507 67.7465C21.253 67.8268 20.9093 68.205 20.6363 68.6643C20.5484 68.8224 20.2999 69.1211 20.0591 69.3319C19.8424 69.5486 19.7319 69.8037 19.8026 69.8849C19.8825 69.981 19.8393 70.1115 19.705 70.1944C19.5707 70.2772 19.4174 70.4964 19.348 70.6846C19.2561 70.9699 18.6418 71.5773 18.0278 72.0182C17.9233 72.0827 17.8745 72.2374 17.8947 72.3704C17.9278 72.5578 18.0509 72.5235 18.3179 72.2549C18.8556 71.7571 18.978 72.0557 18.5052 72.6589C18.0119 73.2956 17.9877 73.2897 17.6846 72.9987C17.5377 72.8607 17.5026 72.7369 17.6144 72.7511C17.7168 72.7502 17.7116 72.608 17.6095 72.4424L17.4145 72.1263L17.2512 72.6633C17.1536 72.9728 17.1828 73.2874 17.2925 73.3651C17.4116 73.458 17.4374 73.5667 17.3479 73.6219C17.2732 73.6679 17.0795 73.6211 16.9512 73.5133C16.7224 73.3427 16.6776 73.3703 16.6845 73.6154C16.6842 73.7818 16.7621 73.9416 16.8291 73.9834C16.978 74.0578 16.7763 74.2653 16.4648 74.395C16.3958 74.4168 16.2837 74.569 16.2293 74.748C16.1486 74.9848 16.0796 75.0066 15.8936 74.8719C15.7653 74.764 15.6632 74.5984 15.6522 74.4805C15.6506 74.3776 15.5392 74.1969 15.3774 74.0681C15.1486 73.8975 15.1373 73.9461 15.2947 74.3685C15.3985 74.637 15.3998 74.9063 15.286 74.9557C15.1629 74.99 15.144 75.1263 15.2183 75.2468C15.4318 75.593 14.4039 76.1646 14.1008 75.8735C13.9204 75.7146 13.924 75.7539 14.0576 76.004C14.1783 76.1997 14.1816 76.4055 14.092 76.4607C14.0025 76.516 13.8927 76.4382 13.8782 76.2809C13.845 76.0936 13.724 76.0643 13.5299 76.184C13.3657 76.2852 13.2964 76.4734 13.3707 76.5939C13.4449 76.7143 13.4502 76.8565 13.3606 76.9117C13.286 76.9578 13.165 76.9285 13.1185 76.8532C13.0628 76.7629 12.9511 76.7487 12.8615 76.8039C12.7869 76.85 12.7942 76.9286 12.8946 76.9913C13.2259 77.161 12.4501 77.4732 11.951 77.3654C11.3885 77.2551 11.2074 77.4291 11.7287 77.6063C11.9894 77.695 12.0116 77.7644 11.8491 77.9685C11.7519 78.1116 11.53 78.1861 11.3754 78.1359C11.1482 78.0682 11.139 78.0531 11.3346 78.0364C11.4613 78.0414 11.5323 77.956 11.4859 77.8808C11.4302 77.7904 11.2494 77.798 11.1002 77.89C10.8016 78.0741 10.6418 77.8818 10.6336 77.3673C10.634 77.2009 10.5448 77.0896 10.3641 77.0972C10.0082 77.0881 9.86785 77.3616 10.1564 77.4954C10.5119 77.671 10.92 78.4999 10.7481 78.6889C10.6715 78.7985 10.5989 78.781 10.5936 78.6388C10.5943 78.3059 10.048 78.4557 9.75642 78.8849C9.40874 79.3902 8.80313 79.4104 8.85829 78.8984C8.89616 78.6257 8.87759 78.5956 8.79895 78.7688C8.71667 78.9026 8.61419 78.9035 8.53064 78.768C8.44709 78.6325 8.27762 78.5916 8.15821 78.6652C8.03879 78.7388 7.98072 78.8785 8.03643 78.9689C8.08284 79.0441 8.15547 79.0617 8.21154 78.9856C8.24339 78.9036 8.38665 79.0023 8.50733 79.198C8.67079 79.4296 8.68535 79.5869 8.50623 79.6974C8.29726 79.8262 8.31583 79.8563 8.58414 79.8571C8.86174 79.8729 8.87102 79.888 8.68626 80.0227C8.56685 80.0963 8.28688 80.3105 8.04242 80.4821C7.62247 80.8034 6.60692 80.827 6.68957 80.5267C6.69721 80.4388 6.63751 80.4756 6.52538 80.6279C6.41889 80.7559 6.36446 80.9349 6.41088 81.0102C6.45729 81.0855 6.22575 81.3114 5.89736 81.5139C5.31523 81.8728 5.29102 81.867 4.97538 81.3551C4.799 81.0691 4.57583 80.8742 4.5012 80.9202C4.35193 81.0123 4.963 81.903 5.3185 82.0786C5.4097 82.1263 5.42626 82.2199 5.35163 82.266C5.26207 82.3212 5.14102 82.2919 5.0946 82.2167C5.0389 82.1263 4.89728 82.1305 4.77787 82.2042C4.65846 82.2778 4.50756 82.267 4.46114 82.1917C4.40544 82.1014 4.29367 82.0872 4.20411 82.1424C4.12947 82.1884 4.12183 82.2762 4.21302 82.3239C4.29494 82.3565 4.09325 82.564 3.76486 82.7665C3.37677 83.0058 3.19966 83.0527 3.28759 82.8946C3.36622 82.7214 3.32345 82.6854 3.09955 82.8235C2.92043 82.934 2.75424 83.0988 2.71674 83.205C2.67359 83.3355 2.64938 83.3297 2.66267 83.2176C2.68925 82.9934 2.29497 82.6547 1.97824 82.6422C1.81241 82.6406 1.77164 82.541 1.82243 82.3227C1.85629 82.1771 1.85301 81.9714 1.79731 81.881C1.7509 81.8058 1.68919 81.9062 1.67754 82.1211C1.65624 82.4875 1.6171 82.4909 1.25431 82.2367C0.94359 82.0334 0.80434 81.8076 0.691668 81.3576C0.614127 81.0314 0.508732 80.66 0.473601 80.5362C0.43847 80.4124 0.539684 80.1422 0.702239 79.9381C0.891007 79.6762 0.917586 79.4521 0.759768 79.1961C0.583384 78.9101 0.624888 78.6767 0.892295 78.2417C1.09235 77.9313 1.20121 77.5733 1.12694 77.4528C1.05267 77.3324 1.09946 77.2412 1.20194 77.2403C1.32863 77.2453 1.37905 77.1935 1.3177 77.1274C0.99242 76.7669 0.963299 76.4524 1.21705 76.2959C1.38124 76.1947 1.51395 76.009 1.50867 75.8668C1.51832 75.7154 1.47918 75.7187 1.37633 75.886C1.27148 76.1169 1.25291 76.0868 1.30206 75.7656C1.33065 75.4778 1.41657 75.3833 1.64938 75.4267C1.89713 75.461 1.98869 75.3422 2.09027 74.9055C2.27285 74.0657 2.98715 72.9187 3.27767 72.9889C3.44714 73.0299 3.51649 72.8416 3.4708 72.4335C3.44733 72.0947 3.52633 71.755 3.66067 71.6722C3.78008 71.5986 3.87693 71.622 3.88785 71.7399C3.89877 71.8579 3.96775 71.8361 4.05931 71.7173C4.1658 71.5893 4.15889 71.3442 4.06606 71.1937C3.85254 70.8474 3.96267 70.7587 4.51586 70.854C4.90322 70.9476 4.93307 70.9292 4.85917 70.6423C4.62818 69.7665 4.64511 69.6937 4.87192 69.9279C5.08016 70.132 5.11001 70.1136 5.19265 69.8132C5.2378 69.6192 5.22525 69.3983 5.16954 69.308C5.12313 69.2327 5.11785 69.0905 5.1497 69.0086C5.19649 68.9174 5.32282 69.0888 5.45078 69.3632C5.70107 69.9361 5.91204 69.7437 5.82231 69.0302C5.8018 68.7519 5.77261 68.7491 5.73475 69.0218C5.70252 69.2703 5.63518 69.3949 5.57948 69.3046C5.51449 69.1992 5.50922 69.057 5.56164 68.9416C5.60842 68.8504 5.55472 68.6965 5.42075 68.6128C5.3017 68.52 5.2815 68.387 5.38599 68.3226C5.47555 68.2674 5.54253 68.3092 5.55345 68.4271C5.55509 68.53 5.63136 68.5869 5.72092 68.5316C5.91497 68.412 6.11411 67.6658 6.00271 67.4851C5.8449 67.2292 6.22698 67.1806 6.47799 67.4206C6.69552 67.6398 6.72373 67.5185 6.5985 66.8476C6.48092 66.089 6.51842 65.9827 6.87829 65.8647C7.1244 65.7961 7.25509 65.6739 7.20303 65.6229C6.92981 65.3135 6.95639 65.0893 7.29479 64.5689C7.49485 64.2585 7.6037 63.9005 7.52944 63.7801C7.45517 63.6596 7.5318 63.55 7.73877 63.4847C7.93081 63.4287 8.11594 63.1275 8.21188 62.7151C8.33603 62.1814 8.42194 62.0868 8.62855 62.188C8.83515 62.2892 8.85572 62.2557 8.72211 62.0056C8.63492 61.8308 8.52352 61.6502 8.46218 61.5841C8.42504 61.5239 8.4569 61.4419 8.53154 61.3959C8.6211 61.3407 8.6251 61.2135 8.56012 61.1081C8.49514 61.0027 8.52735 60.7543 8.64149 60.5385C8.74634 60.3076 8.82661 60.2373 8.82825 60.3402C8.83917 60.4581 8.96387 60.5267 9.11113 60.4982C9.31245 60.4572 9.33703 60.2966 9.19815 59.9043C9.07582 59.6057 9.10076 59.2786 9.23146 59.1565C9.3678 59.0101 9.41095 58.8796 9.32904 58.847C9.26205 58.8051 9.25713 58.4965 9.297 58.1602C9.3953 57.5178 9.87296 57.2232 10.1236 57.6297C10.1979 57.7502 10.3133 57.8037 10.3879 57.7577C10.4775 57.7024 10.4387 57.5393 10.3309 57.398C10.2288 57.2324 10.0985 57.1881 10.0574 57.255C10.0255 57.337 9.93794 57.3286 9.88224 57.2383C9.72442 56.9824 9.85331 55.9886 10.0321 56.0446C10.2742 56.1031 10.4172 55.433 10.2316 55.1319C10.1387 54.9814 10.171 54.733 10.3073 54.5865C10.4344 54.4251 10.4739 54.2553 10.3827 54.2076C10.2765 54.1691 10.2842 54.0813 10.3588 54.0353C10.4484 53.9801 10.5694 54.0093 10.6251 54.0997C10.6716 54.1749 10.7591 54.1833 10.8059 54.0921C10.8434 53.9859 10.7675 53.7625 10.6077 53.5702C10.4442 53.3385 10.4204 53.1662 10.5398 53.0925C10.6592 53.0189 10.693 52.8734 10.6281 52.768C10.4981 52.5572 10.7972 51.2715 11.0062 51.1426C11.0808 51.0966 11.1933 50.7779 11.263 50.4232C11.3271 50.0928 11.3182 49.9112 11.2657 50.0267C11.1105 50.3094 11.0733 50.2492 10.9517 49.6177C10.8762 49.2279 10.923 49.1367 11.2361 49.1099C11.5584 49.0981 11.5867 48.9768 11.4578 48.2667C11.3843 47.8133 11.3963 47.4319 11.4988 47.431C11.5863 47.4394 11.6275 47.3724 11.581 47.2972C11.5346 47.2219 11.604 47.0337 11.7403 46.8873C11.8767 46.7408 11.9089 46.4924 11.8068 46.3268C11.7047 46.1612 11.7369 45.9128 11.8732 45.7663C12.0096 45.6199 12.0511 45.3865 11.9582 45.236C11.8097 44.9951 11.8246 44.9859 12.2007 45.128C12.5768 45.2702 12.5768 45.2702 12.3165 45.0151C12.0041 44.709 12.0507 43.8491 12.3791 43.6466C12.4836 43.5822 12.5062 43.4851 12.415 43.4375C12.1264 43.3037 12.1053 42.7349 12.37 42.6963C12.5322 42.6587 12.5717 42.4889 12.4829 42.2112C12.4126 41.9636 12.413 41.7971 12.4856 41.8147C12.5582 41.8322 12.676 41.6557 12.7324 41.4131C12.8244 41.1278 12.8897 41.0668 12.9733 41.2023C13.0661 41.3528 13.1109 41.3252 13.1972 41.0642C13.2778 40.8275 13.252 40.7187 13.0861 40.7171C12.9203 40.7154 12.913 40.6368 13.0401 40.4753C13.2849 40.1374 13.6457 40.4552 13.756 41.1352C13.8 41.4405 13.9317 41.7542 14.0414 41.8319C14.1605 41.9248 14.2129 41.8093 14.1539 41.5132C14.1135 41.2472 14.1417 41.1259 14.216 41.2464C14.333 41.4028 14.3835 41.3509 14.4084 41.0238C14.4539 40.6633 14.4894 40.6206 14.7444 40.7335C14.8933 40.8079 14.9865 40.792 14.9308 40.7017C14.8658 40.5963 14.9352 40.4081 15.0566 40.2709C15.3442 39.9688 16.1166 40.3861 15.9444 40.7416C15.8863 40.8813 15.8528 40.8604 15.8439 40.6789C15.835 40.4974 15.8015 40.4765 15.7285 40.6254C15.6761 40.7408 15.7298 40.8947 15.8452 40.9483C15.9698 41.0168 16.1502 41.1757 16.2338 41.3112C16.6051 41.9134 16.6159 41.2626 16.2522 40.5726C15.9757 40.0574 15.8159 39.865 15.7578 40.0047C15.6961 40.1051 15.5843 40.0909 15.5101 39.9705C15.4172 39.8199 15.4789 39.7195 15.6411 39.6819C15.9207 39.6341 16.129 39.8382 16.3998 40.3777C16.5092 40.6219 16.5782 40.6001 16.7968 40.3199C16.9537 40.14 17.174 39.9626 17.3213 39.9341C17.4685 39.9057 17.4854 39.8329 17.3608 39.7643C17.1542 39.6632 17.3018 39.4682 17.5681 39.5326C17.786 39.5852 17.8333 40.0963 17.6191 40.083C17.5166 40.0838 17.5481 40.1683 17.6764 40.2762C17.8959 40.4317 17.9258 40.4133 17.9564 40.062C17.9777 39.6956 18.0019 39.7015 18.2154 40.0477C18.5811 40.6742 18.6026 41.0765 18.2467 41.0674C17.7641 41.0533 17.7024 41.1537 18.0297 41.4506C18.2044 41.6337 18.2359 41.7182 18.0701 41.7166C17.9285 41.7208 17.8724 41.7969 17.9188 41.8722C17.9745 41.9625 18.0956 41.9918 18.1702 41.9457C18.2598 41.8905 18.3566 41.9139 18.403 41.9892C18.4495 42.0645 18.3131 42.2109 18.0763 42.2946C17.7648 42.4243 17.7237 42.4912 17.8948 42.6351C18.1478 42.8115 18.0419 43.5418 17.7756 43.4774C17.6787 43.454 17.7009 43.5234 17.8051 43.6255C17.8942 43.7367 18.0524 43.8262 18.14 43.8345C18.2126 43.8521 18.27 44.0453 18.2434 44.2695C18.2261 44.5087 18.1644 44.6091 18.0994 44.5037C18.0344 44.3983 17.9561 44.405 17.8944 44.5054C17.8476 44.5966 17.903 44.8534 18.0237 45.0491C18.2186 45.3653 18.1924 45.423 17.8438 45.4925C17.4803 45.5712 17.4484 45.6532 17.5962 46.227C17.6923 46.5833 17.8574 46.9179 17.9486 46.9655C18.0491 47.0282 17.9039 46.9931 17.6041 46.9079C17.1497 46.7725 17.0807 46.7942 17.1268 47.0359C17.1599 47.2233 17.2604 47.286 17.3947 47.2032C17.6485 47.0467 17.8454 47.2993 17.8407 47.7594C17.84 48.0923 17.8157 48.0864 17.252 47.7068L16.8408 47.4409L17.0915 47.8473C17.2251 48.0974 17.2768 48.3149 17.2021 48.3609C17.1275 48.4069 17.1251 48.637 17.2103 48.8754C17.2806 49.1229 17.2484 49.3714 17.114 49.4542C16.9946 49.5279 16.9813 49.64 17.0725 49.6876C17.1879 49.7411 17.2545 49.9494 17.2243 50.1343C17.1675 50.5433 16.8307 51.1666 16.7585 50.9826C16.5861 50.5694 16.3294 50.3536 16.221 50.5452C16.148 50.6941 16.0773 50.613 15.9421 50.26C15.8291 49.9764 15.6377 49.6996 15.5223 49.6461C15.3884 49.5625 15.4308 49.7649 15.6294 50.1204C15.828 50.4758 16.1068 50.761 16.267 50.7869C16.5781 50.8237 17.1275 51.8148 16.8349 51.8082C16.7325 51.809 16.6482 52.0064 16.6309 52.2457C16.6285 52.4757 16.5499 52.6489 16.4623 52.6405C16.3897 52.623 16.4547 52.7284 16.6201 52.8965C16.8433 53.0913 16.8506 53.1699 16.6605 53.1625C16.4648 53.1792 16.4778 53.2336 16.7009 53.4284C16.9576 53.6442 16.9463 53.6927 16.5586 53.7656C16.141 53.8568 16.1148 53.9146 16.1921 55.176C16.2193 55.5541 16.2899 55.6352 16.5433 55.6452C16.7967 55.6552 16.8152 55.6853 16.6955 55.9254C16.5269 56.3202 16.7319 56.3185 17.1687 55.9244C17.4955 55.6191 17.5374 55.2192 17.209 55.4217C17.1343 55.4677 16.9947 55.4084 16.9205 55.2879C16.7534 55.0169 17.0705 54.863 17.5192 55.0226C17.804 55.1171 17.8545 55.0652 17.9225 54.6077C17.9753 54.3258 18.0765 54.0555 18.1512 54.0095C18.2258 53.9635 18.2802 53.7845 18.2415 53.6214C18.212 53.4733 18.2793 53.3487 18.3967 53.3386C18.4992 53.3378 18.5012 53.2742 18.3822 53.1814C18.2631 53.0885 18.2001 52.9196 18.2469 52.8284C18.3611 52.6126 19.0508 53.3301 19.1263 53.7199C19.2128 54.2276 19.3495 53.9148 19.3005 53.3008C19.2714 52.9863 19.1252 52.5154 18.9674 52.2594C18.791 51.9734 18.7635 51.7618 18.8979 51.6789C19.0322 51.5961 19.142 51.6739 19.2142 51.8579C19.253 52.021 19.4742 52.2794 19.6937 52.435C19.9418 52.6145 19.9778 52.6061 19.8018 52.4099C19.5992 52.1815 19.5827 52.0878 19.784 52.0468C19.9163 52.0276 19.9966 51.9573 19.9446 51.9063C19.8925 51.8552 19.8222 51.6077 19.7818 51.3417C19.7414 51.0757 19.6844 50.716 19.6364 50.5378C19.5976 50.3747 19.6278 50.1898 19.7025 50.1438C19.792 50.0886 19.8776 50.1605 19.9071 50.3086C20.0121 50.8464 20.3631 50.5469 20.2879 49.9906C20.2366 49.6067 20.2966 49.4034 20.483 49.3716C20.7515 49.3169 21.0152 49.1543 21.2741 48.8838C21.4815 48.652 21.5379 48.4094 21.4265 48.2288C21.3151 48.0481 21.3526 47.9419 21.5297 47.895C21.7161 47.8632 21.7536 47.7569 21.6422 47.5763C21.503 47.3505 21.5235 47.317 21.7301 47.4182C21.9609 47.5252 22.0057 47.4976 22.094 47.173C22.1299 46.9639 22.106 46.7916 22.0241 46.759C21.8789 46.7239 22.2447 46.4151 22.5562 46.2854C22.6401 46.2544 22.6179 46.185 22.5025 46.1315C22.4113 46.0838 22.3185 45.9333 22.3132 45.7911C22.3228 45.6397 22.431 45.6146 22.6916 45.7032C22.9324 45.8041 22.999 45.7561 22.8913 45.5593C22.8134 45.3995 22.702 45.2189 22.6407 45.1528C22.5087 45.0056 22.6616 44.9529 23.2317 44.9753C23.5795 44.9825 23.6451 44.8105 23.4285 44.4592C23.2336 44.143 23.1746 43.8469 23.2661 43.7281C23.3783 43.5759 23.4509 43.5934 23.484 43.7808C23.5559 44.1313 24.0469 43.7246 24.2158 43.1633C24.2908 42.9508 24.459 42.7224 24.6026 42.6547C24.7704 42.5927 24.8458 42.2138 24.8005 41.6391C24.7446 40.7801 24.9785 40.3241 25.1897 40.9004C25.2656 41.1238 25.3047 41.1204 25.3966 40.8352C25.4567 40.6319 25.4312 40.3567 25.3291 40.1911C25.1806 39.9502 25.2068 39.8925 25.4545 39.9267C25.7023 39.961 25.7434 39.894 25.651 39.577C25.5585 39.26 25.5847 39.2023 25.7913 39.3035C25.9979 39.4046 26.0241 39.3469 25.9466 39.0207C25.869 38.6945 25.8952 38.6368 26.1019 38.738C26.3085 38.8391 26.329 38.8057 26.1898 38.5798C26.0784 38.3992 26.1159 38.2929 26.3172 38.2519C26.4645 38.2234 26.5149 38.1716 26.4144 38.1089C26.232 38.0135 26.4991 37.745 26.9783 37.5533C27.1817 37.4487 27.1631 37.4186 26.8782 37.3241C26.5207 37.2121 26.5413 37.1787 27.1278 36.5261C27.1988 36.4407 27.3739 36.4574 27.4873 36.5745C27.6156 36.6824 27.5805 36.5586 27.4283 36.2784C27.2576 35.9681 27.2208 35.7414 27.3552 35.6586C27.4596 35.5942 27.5738 35.3783 27.604 35.1935C27.6249 34.9935 27.7576 34.8078 27.9049 34.7794C28.0372 34.7601 28.0989 34.6597 28.034 34.5543C27.9597 34.4339 28.038 34.4272 28.2111 34.5074C28.4419 34.6145 28.4717 34.5961 28.3139 34.3401C28.1654 34.0992 28.186 34.0658 28.3926 34.1669C28.6234 34.274 28.6403 34.2012 28.52 33.839C28.409 33.4919 28.4634 33.3129 28.7321 33.1472C28.9261 33.0276 29.0475 32.8903 29.0011 32.8151C28.7799 32.5566 28.8174 32.4504 29.1285 32.4871C29.4489 32.5389 29.4735 32.3783 29.1873 32.0145C29.0796 31.8732 29.6242 31.6204 29.8457 31.7124C30.0003 31.7626 30.0059 31.7383 29.8683 31.6154C29.6266 31.3904 29.5534 30.7706 29.7475 30.6509C29.837 30.5957 29.971 30.6793 30.0695 30.8056C30.1994 31.0164 30.22 30.9829 30.1574 30.6475C30.1206 30.4208 30.1621 30.1874 30.2517 30.1322C30.3263 30.0862 30.336 29.9348 30.2617 29.8144C30.1874 29.6939 30.2269 29.5241 30.3463 29.4505C30.4508 29.386 30.5593 29.1945 30.554 29.0523C30.558 28.9251 30.6258 28.634 30.7008 28.4215C30.8133 28.1028 30.8879 28.0568 31.2398 28.1931C31.5004 28.2817 31.5459 28.2329 31.3761 28.0466C31.2013 27.8635 31.1517 27.5824 31.2512 27.2093C31.3883 26.73 31.4238 26.6873 31.5631 26.9132C31.6466 27.0487 31.7677 27.0779 31.8144 26.9867C31.8669 26.8713 31.8317 26.7475 31.7405 26.6998C31.4762 26.5719 31.922 26.3594 32.2759 26.4321C32.5273 26.5056 32.4994 26.4605 32.2 26.2087C31.7089 25.8466 31.645 25.2419 32.1066 25.4559C32.2555 25.5303 32.3487 25.5144 32.293 25.4241C32.2466 25.3488 32.2473 25.0159 32.3001 24.734C32.3868 24.3065 32.4578 24.2212 32.6551 24.3073C32.7798 24.3759 32.9121 24.3566 32.9347 24.2596C32.9665 24.1776 32.8196 24.0396 32.6409 23.9836C32.4528 23.9125 32.3673 23.8406 32.4512 23.8096C32.8167 23.6674 33.0894 23.3745 32.9966 23.224C32.9502 23.1487 32.842 23.1738 32.7803 23.2742C32.713 23.3989 32.7206 23.311 32.7863 23.0835C32.8613 22.871 33.009 22.6761 33.1114 22.6752C33.2139 22.6744 33.2159 22.6108 33.1267 22.4996C33.0226 22.3975 33.075 22.2821 33.2578 22.211C33.4555 22.1306 33.4744 21.9943 33.3166 21.7383C33.1681 21.4975 33.1797 21.2825 33.3366 21.1026C33.473 20.9562 33.596 20.9219 33.5827 21.034C33.5844 21.1369 33.6514 21.1787 33.726 21.1326C33.8156 21.0774 33.8086 20.8323 33.7291 20.5697C33.6124 20.2468 33.6499 20.1406 33.823 20.2209C34.0054 20.3162 34.0316 20.2585 33.9819 19.9774C33.9153 19.7691 33.9213 19.5784 33.981 19.5416C34.3764 19.3809 34.4458 19.1927 34.1984 18.992C34.0422 18.8389 34.0034 18.6758 34.1156 18.5236C34.2221 18.3956 34.291 18.3738 34.302 18.4917C34.3012 18.8247 34.5235 18.5837 34.7017 18.0375C34.7936 17.7522 34.7924 17.4828 34.677 17.4293C34.5858 17.3817 34.5692 17.288 34.6438 17.242C34.7334 17.1867 34.7338 17.0203 34.6409 16.8697C34.5073 16.6197 34.5222 16.6104 34.8592 16.7559C35.2352 16.8981 35.2409 16.8738 35.1355 16.5024C35.0672 16.1913 35.0935 16.1335 35.315 16.2255C35.5123 16.3116 35.4808 16.2271 35.2112 15.957C34.972 15.7028 34.9859 15.625 35.2527 15.7236C35.5258 15.8323 35.5961 15.7682 35.4637 15.5312C35.3523 15.3505 35.3341 15.154 35.4087 15.1079C35.4983 15.0527 35.5454 14.7951 35.505 14.5291C35.4646 14.2631 35.5509 14.0021 35.6945 13.9343C35.8624 13.8724 35.8906 13.7511 35.7586 13.6039C35.5096 13.3003 35.7117 12.9263 36.0337 13.081C36.2403 13.1822 36.2516 13.1337 36.1123 12.9079C35.9508 12.6126 35.9288 11.608 36.0959 11.879C36.1423 11.9543 36.1948 11.8388 36.1971 11.6088C36.2237 11.3846 36.3415 11.2081 36.4682 11.2131C36.6732 11.2114 36.7412 10.7538 36.5838 10.3314C36.4413 9.89978 36.4622 9.69987 36.628 9.70151C36.7305 9.70065 36.7624 9.61867 36.716 9.54339C36.5489 9.2724 37.086 6.46841 37.3172 6.40897C37.3862 6.38721 37.3975 6.33868 37.3362 6.27261C37.1651 6.12877 37.1689 5.2329 37.3531 4.49592C37.4285 4.11697 37.4796 3.73218 37.4332 3.65691C37.4017 3.57243 37.348 3.41852 37.3165 3.33404C37.2758 3.23451 37.2406 3.11072 37.2091 3.02624C37.1869 2.95681 37.2987 2.97101 37.4476 3.04543C37.6877 3.16751 37.7175 3.1491 37.5839 2.89902C37.5153 2.75432 37.4245 2.5402 37.393 2.45572C37.3522 2.35618 37.2985 2.20228 37.267 2.1178C37.2113 2.02747 37.2936 1.89362 37.413 1.81999C37.5324 1.74635 37.5905 1.60665 37.5441 1.53137C37.4884 1.44104 37.5259 1.3348 37.6154 1.27958C37.705 1.22435 37.7998 1.31133 37.8386 1.47444C37.881 1.67686 38.0206 1.73622 38.2425 1.66173C38.4346 1.60565 38.6617 1.67336 38.7546 1.82391C38.9217 2.0949 38.8197 2.69802 38.6018 2.64537C38.5441 2.61861 38.5458 2.7215 38.62 2.84194C38.7036 2.97743 38.8396 2.99749 38.9162 2.88789C39.0078 2.76909 39.0804 2.78664 39.1192 2.94975C39.1487 3.0978 39.0757 3.24671 38.9768 3.28688C38.8631 3.33626 38.874 3.4542 38.9781 3.55623C39.1528 3.73938 39.4353 4.06389 39.7493 4.47287C39.8478 4.59916 39.9281 4.52888 40.0257 4.21936C40.1027 3.94331 40.0695 3.75594 39.9485 3.72668C39.6822 3.66233 39.6256 3.13619 39.7597 2.28462C39.8033 1.98766 39.7927 1.70326 39.7499 1.66729C39.5788 1.52345 39.4479 0.87688 39.5472 0.670249C39.7137 0.338969 39.9594 0.436785 40.2658 0.933598C40.5072 1.32503 40.5052 1.3886 40.209 1.34265ZM39.9086 2.35904C39.834 2.40506 39.8244 2.55647 39.9079 2.69196C39.9822 2.8124 40.0939 2.8266 40.1407 2.73541C40.2024 2.63502 40.1972 2.49282 40.1415 2.40249C40.095 2.32722 39.9982 2.30381 39.9086 2.35904ZM37.7705 1.93201C37.7237 2.0232 37.8557 2.17039 38.0381 2.26571C38.2931 2.37859 38.3956 2.37773 38.4016 2.18701C38.4003 1.91767 37.8903 1.69192 37.7705 1.93201ZM39.3079 4.39181C39.2333 4.43783 39.2236 4.58924 39.2979 4.70968C39.3722 4.83012 39.5118 4.88948 39.5864 4.84346C39.676 4.78823 39.6707 4.64603 39.5964 4.52559C39.5222 4.40515 39.3975 4.33659 39.3079 4.39181ZM38.7209 4.44211C38.6741 4.5333 38.6737 4.69977 38.7201 4.77504C38.7758 4.86537 38.8598 4.8344 38.9065 4.74321C38.9683 4.64282 38.9537 4.48557 38.9073 4.4103C38.8516 4.31997 38.7826 4.34172 38.7209 4.44211ZM36.5501 12.9496C36.4755 12.9956 36.4937 13.1922 36.6051 13.3728C36.7814 13.6589 36.8206 13.6555 36.8286 13.4012C36.8463 12.9955 36.7441 12.8299 36.5501 12.9496ZM36.9889 14.1959C36.972 14.2686 37.0406 14.4134 37.1504 14.4911C37.2695 14.5839 37.2864 14.5112 37.1843 14.3456C37.0971 14.1708 36.9966 14.108 36.9889 14.1959ZM36.3608 14.3131C36.2119 14.2387 36.0795 14.2579 36.042 14.3642C36.0287 14.4763 36.1143 14.5482 36.241 14.5532C36.3677 14.5582 36.6021 14.7045 36.7769 14.8877L37.0687 15.2272L36.8515 14.8417C36.7365 14.6217 36.5246 14.3783 36.3608 14.3131ZM36.5748 16.9656C36.2912 17.1404 36.5846 17.5829 37.0038 17.5945C37.1063 17.5937 37.1176 17.5451 37.0022 17.4916C36.9017 17.4289 36.8517 17.3143 36.9041 17.1989C37.0501 16.9011 36.8883 16.7723 36.5748 16.9656ZM36.5016 18.0497C36.4101 18.1685 36.2777 18.1877 36.222 18.0974C36.1106 17.9167 35.9796 18.2053 36.091 18.386C36.1281 18.4462 36.1519 18.6185 36.1516 18.785C36.1492 19.015 36.1976 19.0267 36.3303 18.841C36.4517 18.7038 36.5655 18.6544 36.6212 18.7448C36.6769 18.8351 36.7552 18.8284 36.8076 18.7129C36.8544 18.6217 36.8007 18.4678 36.6667 18.3842C36.5477 18.2914 36.5275 18.1584 36.617 18.1032C36.7066 18.0479 36.7534 17.9568 36.7255 17.9116C36.6977 17.8664 36.5839 17.9158 36.5016 18.0497ZM35.6419 16.6889C35.625 16.7616 35.6936 16.9063 35.8034 16.9841C35.9224 17.0769 35.9393 17.0042 35.8372 16.8386C35.75 16.6637 35.6495 16.601 35.6419 16.6889ZM35.3233 17.5087C35.3064 17.5815 35.375 17.7262 35.4848 17.8039C35.6038 17.8968 35.6208 17.824 35.5187 17.6584C35.4315 17.4836 35.331 17.4208 35.3233 17.5087ZM34.4554 24.153C34.4756 24.286 34.3969 24.4592 34.2626 24.5421C34.1133 24.6341 34.0028 24.8892 34.0061 25.095C34.011 25.4037 34.0481 25.4639 34.1639 25.351C34.414 25.1552 34.724 23.9874 34.5639 23.9615C34.4763 23.9531 34.4295 24.0443 34.4554 24.153ZM33.7396 25.9658C33.7283 26.0144 33.8361 26.1557 33.9886 26.2694C34.2453 26.4852 34.2602 26.476 34.1734 26.1347C34.12 25.8144 33.7924 25.6839 33.7396 25.9658ZM30.4448 32.9846C30.4279 33.0574 30.4965 33.2021 30.6062 33.2798C30.7253 33.3727 30.7422 33.2999 30.6401 33.1343C30.5529 32.9595 30.4524 32.8968 30.4448 32.9846ZM30.0478 34.7463C29.9453 34.7472 29.9227 34.8442 29.997 34.9646C30.0712 35.0851 30.1681 35.1085 30.2149 35.0173C30.2467 34.9353 30.2693 34.8383 30.2507 34.8082C30.2322 34.7781 30.1353 34.7547 30.0478 34.7463ZM28.9722 33.2693C28.9552 33.3421 29.0239 33.4868 29.1336 33.5645C29.2527 33.6574 29.2696 33.5846 29.1675 33.419C29.0803 33.2442 28.9798 33.1815 28.9722 33.2693ZM28.91 38.6479C28.8354 38.6939 28.7793 38.7701 28.7979 38.8002C28.8258 38.8453 28.9468 38.8746 29.0493 38.8737C29.1667 38.8637 29.2078 38.7967 29.1614 38.7215C29.1057 38.6311 28.9996 38.5927 28.91 38.6479ZM28.365 39.0671C28.3126 39.1825 28.3663 39.3364 28.5003 39.4201C28.6621 39.5488 28.6359 39.6066 28.4196 39.6568C28.2183 39.6978 28.1715 39.789 28.2829 39.9697C28.4964 40.3159 28.7413 39.9779 28.696 39.4033C28.6486 38.8922 28.5259 38.7601 28.365 39.0671ZM25.0191 41.3589C24.9723 41.4501 24.972 41.6165 25.0184 41.6918C25.0741 41.7821 25.158 41.7512 25.2048 41.66C25.2665 41.5596 25.2519 41.4023 25.2055 41.327C25.1498 41.2367 25.0808 41.2585 25.0191 41.3589ZM25.6489 43.0484C25.5464 43.0493 25.4811 43.1104 25.5368 43.2007C25.5832 43.276 25.7321 43.3504 25.8346 43.3495C25.952 43.3395 26.0024 43.2876 25.9467 43.1973C25.9003 43.122 25.7663 43.0384 25.6489 43.0484ZM25.0713 45.5865C25.0265 45.6141 24.989 45.7203 25 45.8382C25.0016 45.9411 25.0779 45.998 25.1525 45.952C25.2421 45.8968 25.2703 45.7755 25.2239 45.7002C25.1682 45.6099 25.1012 45.568 25.0713 45.5865ZM23.7747 44.6197C23.7578 44.6925 23.8768 44.7853 24.0463 44.8263C24.2791 44.8697 24.2848 44.8455 24.0652 44.6899C23.9276 44.567 23.7917 44.547 23.7747 44.6197ZM24.5267 45.8392C24.4242 45.84 24.4016 45.9371 24.4759 46.0575C24.5502 46.1779 24.647 46.2014 24.6938 46.1102C24.7256 46.0282 24.7482 45.9311 24.7296 45.901C24.7111 45.8709 24.6142 45.8475 24.5267 45.8392ZM23.8222 47.6035C23.8477 47.8787 23.9087 48.1112 23.9664 48.1379C24.1265 48.1638 24.1204 47.5858 23.9383 47.3241C23.8548 47.1886 23.8024 47.304 23.8222 47.6035ZM17.3606 40.6995C17.3287 40.7815 17.3247 40.9087 17.3804 40.999C17.4268 41.0743 17.5237 41.0977 17.5834 41.0608C17.658 41.0148 17.6527 40.8726 17.5785 40.7522C17.5042 40.6317 17.4073 40.6083 17.3606 40.6995ZM22.4752 50.0964C22.4058 50.2847 22.4204 50.4419 22.5023 50.4745C22.5749 50.4921 22.6423 50.3674 22.6426 50.201C22.6566 49.756 22.5989 49.7292 22.4752 50.0964ZM21.6611 49.1438C21.6313 49.1623 21.7407 49.4065 21.8985 49.6624C22.112 50.0087 22.2125 50.0714 22.2092 49.8656C22.2172 49.6113 21.7955 49.061 21.6611 49.1438ZM21.4294 52.0089C21.295 52.0917 21.3285 52.1126 21.5 52.09C21.6081 52.0649 21.7272 52.1577 21.7288 52.2606C21.7341 52.4028 21.7732 52.3994 21.8406 52.2748C21.9511 52.0196 21.6738 51.8373 21.4294 52.0089ZM15.5996 43.3231C15.4802 43.3967 15.5819 43.7288 15.7328 43.7396C15.8353 43.7388 15.8579 43.6417 15.7836 43.5213C15.7093 43.4009 15.6145 43.3139 15.5996 43.3231ZM25 60.2383C24.9831 60.3111 25.0517 60.4558 25.1615 60.5336C25.2805 60.6264 25.2974 60.5536 25.1953 60.388C25.1081 60.2132 25.0076 60.1505 25 60.2383ZM20.8225 53.4636C20.8055 53.5364 20.8742 53.6811 20.9839 53.7589C21.103 53.8517 21.1199 53.7789 21.0178 53.6133C20.9306 53.4385 20.8301 53.3758 20.8225 53.4636ZM12.8999 41.5176C12.7732 41.5126 12.7861 41.567 12.935 41.6414C13.0597 41.71 13.2958 41.9592 13.4201 42.1943C13.6559 42.6099 13.8588 42.6718 13.9471 42.3472C13.9773 42.1624 13.1924 41.5243 12.8999 41.5176ZM19.9333 53.6587C19.8135 53.8988 19.636 54.1121 19.5335 54.113C19.431 54.1138 19.4085 54.2109 19.492 54.3464C19.6591 54.6174 20.1129 54.1505 20.183 53.6294C20.2382 53.1174 20.1841 53.13 19.9333 53.6587ZM23.511 59.4942C23.4941 59.5669 23.5627 59.7116 23.6725 59.7894C23.7915 59.8822 23.8084 59.8095 23.7063 59.6439C23.6191 59.469 23.5186 59.4063 23.511 59.4942ZM16.825 48.7182C16.7225 48.719 16.6999 48.8161 16.7742 48.9365C16.8484 49.057 16.9453 49.0804 16.9921 48.9892C17.0239 48.9072 17.0465 48.8101 17.0279 48.78C17.0094 48.7499 16.9125 48.7265 16.825 48.7182ZM15.1612 46.0869C15.1609 46.2534 15.2497 46.5311 15.3518 46.6967C15.5153 46.9284 15.5302 46.9191 15.4397 46.5386C15.279 45.9104 15.1583 45.7147 15.1612 46.0869ZM15.548 47.2822C15.2984 47.256 15.302 47.2953 15.5589 47.4001C15.7805 47.4921 16.002 47.5841 16.0355 47.605C16.0839 47.6167 16.0803 47.5774 16.0246 47.487C15.9689 47.3967 15.7473 47.3047 15.548 47.2822ZM22.8928 59.2935C22.7903 59.2944 22.7343 59.3705 22.7807 59.4458C22.8364 59.5361 22.9574 59.5654 23.0321 59.5193C23.1216 59.4641 23.1628 59.3972 23.1442 59.3671C23.1164 59.3219 23.0102 59.2835 22.8928 59.2935ZM14.4449 45.5935C14.3982 45.6847 14.4071 45.8662 14.4628 45.9566C14.5278 46.0619 14.5782 46.0101 14.5842 45.8194C14.5869 45.4229 14.5498 45.3626 14.4449 45.5935ZM16.7869 49.9261C16.77 49.9988 16.8386 50.1435 16.9484 50.2213C17.0674 50.3141 17.0843 50.2414 16.9822 50.0758C16.895 49.901 16.7945 49.8382 16.7869 49.9261ZM14.5572 47.9139C14.5274 47.9323 14.5177 48.0837 14.5565 48.2468C14.586 48.3949 14.638 48.4459 14.6998 48.3455C14.7933 48.1631 14.6766 47.8403 14.5572 47.9139ZM21.7804 60.9977C21.5775 60.9358 21.4544 60.9701 21.5008 61.0454C21.5472 61.1207 21.7446 61.2068 21.929 61.2385C22.1134 61.2703 22.2364 61.236 22.2086 61.1908C22.1714 61.1306 21.9741 61.0445 21.7804 60.9977ZM18.4659 55.7895C18.3723 55.9719 18.1919 55.813 17.9953 55.3939C17.9546 55.2944 17.8392 55.2409 17.7645 55.2869C17.6899 55.3329 17.738 55.5111 17.8699 55.6583C18.0112 55.8205 18.1577 56.125 18.161 56.3308C18.1917 56.7482 18.2926 56.6444 18.5474 55.9886C18.6543 55.6941 18.5913 55.5252 18.4659 55.7895ZM15.6244 51.5156C15.522 51.5165 15.4845 51.6227 15.5587 51.7432C15.6423 51.8786 15.7819 51.938 15.8565 51.892C15.9461 51.8368 15.9687 51.7397 15.9222 51.6645C15.8665 51.5741 15.7418 51.5056 15.6244 51.5156ZM14.2583 49.9684C14.1837 50.0144 14.1833 50.1809 14.2669 50.3164C14.4061 50.5422 14.4453 50.5388 14.444 50.2695C14.4467 49.873 14.4374 49.8579 14.2583 49.9684ZM21.7182 62.1997C21.6883 62.2181 21.6786 62.3695 21.7174 62.5326C21.7469 62.6807 21.799 62.7317 21.8607 62.6313C21.9542 62.4489 21.8376 62.1261 21.7182 62.1997ZM22.9446 65.3915C22.9363 65.8122 23.0569 66.008 23.1767 65.7679C23.2384 65.6675 23.196 65.4651 23.1125 65.3296C22.9732 65.1037 22.9434 65.1221 22.9446 65.3915ZM22.5112 65.0562C22.5214 65.507 22.6348 65.6241 22.7437 65.2661C22.7981 65.087 22.765 64.8997 22.6738 64.852C22.5919 64.8194 22.5209 64.9047 22.5112 65.0562ZM22.1556 64.1118C22.1088 64.203 22.1363 64.4146 22.2347 64.5409C22.3647 64.7517 22.3853 64.7182 22.3412 64.4129C22.2836 64.0744 22.2217 63.9741 22.1556 64.1118ZM14.456 51.592C14.4092 51.6832 14.4908 51.8822 14.6376 52.0202C15.0021 52.3773 15.0638 52.2769 14.776 51.8102C14.646 51.5995 14.5028 51.5008 14.456 51.592ZM21.436 63.4127C21.3912 63.4403 21.3537 63.5465 21.3646 63.6645C21.3663 63.7673 21.4425 63.8242 21.5172 63.7782C21.6067 63.723 21.635 63.6017 21.5885 63.5264C21.5328 63.4361 21.4658 63.3943 21.436 63.4127ZM21.3597 65.0597C21.3948 65.1835 21.5062 65.3642 21.5918 65.4361C21.7016 65.5139 21.685 65.4202 21.555 65.2094C21.4251 64.9986 21.3488 64.9418 21.3597 65.0597ZM16.2369 56.8523C16.1623 56.8983 16.1341 57.0196 16.1898 57.1099C16.2362 57.1852 16.3294 57.1693 16.3762 57.0781C16.4379 56.9777 16.4512 56.8656 16.4233 56.8205C16.4047 56.7903 16.3265 56.797 16.2369 56.8523ZM20.9825 65.417C20.9656 65.4897 21.0342 65.6344 21.144 65.7122C21.263 65.805 21.28 65.7323 21.1779 65.5667C21.0907 65.3919 20.9902 65.3291 20.9825 65.417ZM17.107 59.4327C17.0324 59.4787 17.0952 60.5828 17.188 60.7334C17.2158 60.7785 17.3389 60.7442 17.4732 60.6614C17.6225 60.5693 17.6265 60.4422 17.4982 60.3343C17.3642 60.2507 17.3105 60.0968 17.3573 60.0056C17.4508 59.8232 17.2413 59.3498 17.107 59.4327ZM14.2772 54.9438C14.2175 54.9806 14.2413 55.1529 14.3342 55.3035C14.4363 55.4691 14.5517 55.5226 14.5928 55.4557C14.6247 55.3737 14.6008 55.2014 14.5266 55.0809C14.4523 54.9605 14.3369 54.907 14.2772 54.9438ZM15.4873 57.1067C15.4575 57.1251 15.4627 57.2673 15.4773 57.4246C15.5068 57.5726 15.6016 57.6596 15.6763 57.6136C15.7658 57.5584 15.7605 57.4162 15.6863 57.2957C15.612 57.1753 15.5172 57.0883 15.4873 57.1067ZM14.97 56.8023C14.8954 56.8484 14.8671 56.9696 14.9228 57.06C14.9693 57.1353 15.0625 57.1193 15.1092 57.0282C15.1709 56.9278 15.1842 56.8157 15.1564 56.7705C15.1378 56.7404 15.0595 56.7471 14.97 56.8023ZM16.2596 59.2279C16.2129 59.3191 16.2666 59.473 16.4005 59.5566C16.7 59.8083 16.771 59.723 16.5389 59.3466C16.4368 59.181 16.3121 59.1124 16.2596 59.2279ZM14.0316 55.6147C13.9849 55.7059 13.9938 55.8874 14.0495 55.9777C14.1145 56.0831 14.1649 56.0312 14.1709 55.8405C14.1736 55.444 14.1365 55.3838 14.0316 55.6147ZM13.7362 56.9398C13.6967 57.1096 13.7524 57.1999 13.9218 57.2409C14.0671 57.276 14.099 57.194 13.9783 56.9983C13.8576 56.8025 13.77 56.7942 13.7362 56.9398ZM10.6502 54.5413C10.5587 54.6601 10.6313 54.6777 10.7955 54.5764C10.969 54.4902 11.0307 54.3898 10.9431 54.3815C10.8705 54.3639 10.7269 54.4317 10.6502 54.5413ZM10.7251 55.264C10.6504 55.31 10.5944 55.3862 10.6129 55.4163C10.6408 55.4614 10.7618 55.4907 10.8643 55.4898C10.9817 55.4798 11.0229 55.4129 10.9764 55.3376C10.9207 55.2473 10.8146 55.2088 10.7251 55.264ZM18.6221 70.3426C18.5475 70.3887 18.5527 70.5309 18.627 70.6513C18.7013 70.7718 18.7981 70.7952 18.8449 70.704C18.8768 70.622 18.8808 70.4948 18.8251 70.4045C18.7787 70.3292 18.6818 70.3058 18.6221 70.3426ZM16.1662 68.6986C16.2013 68.8224 16.1396 68.9228 16.0371 68.9236C15.9253 68.9094 15.9568 68.9939 16.0852 69.1018C16.2712 69.2364 16.3551 69.2055 16.4208 68.9779C16.4845 68.814 16.4365 68.6358 16.3211 68.5823C16.1722 68.5079 16.1367 68.5505 16.1662 68.6986ZM17.0432 71.5241C16.9685 71.5701 16.9125 71.6462 16.931 71.6763C16.9589 71.7215 17.0799 71.7508 17.1824 71.7499C17.2998 71.7398 17.341 71.6729 17.2945 71.5976C17.2388 71.5073 17.1327 71.4688 17.0432 71.5241ZM9.21981 59.3715C9.20288 59.4442 9.27151 59.5889 9.38127 59.6667C9.50032 59.7595 9.51724 59.6868 9.41512 59.5212C9.32793 59.3463 9.22745 59.2836 9.21981 59.3715ZM16.5389 72.0428C16.5386 72.2093 16.5661 72.4209 16.6218 72.5112C16.6682 72.5865 16.7242 72.5103 16.7246 72.3439C16.725 72.1774 16.6882 71.9507 16.6418 71.8755C16.5861 71.7851 16.5393 71.8763 16.5389 72.0428ZM13.6578 70.5778C13.5142 70.6456 13.4637 70.6975 13.5456 70.7301C13.6332 70.7384 13.8196 70.7066 13.9483 70.648C14.0919 70.5803 14.1423 70.5284 14.0604 70.4958C13.9729 70.4874 13.7865 70.5192 13.6578 70.5778ZM15.023 73.3932C14.9782 73.4208 14.9407 73.527 14.9516 73.645C14.9533 73.7479 15.0295 73.8047 15.1042 73.7587C15.1937 73.7035 15.2219 73.5822 15.1755 73.5069C15.1198 73.4166 15.0528 73.3748 15.023 73.3932ZM13.4945 71.1149C13.392 71.1157 13.3359 71.1919 13.3824 71.2671C13.4381 71.3575 13.5591 71.3867 13.6337 71.3407C13.7233 71.2855 13.7644 71.2186 13.7459 71.1884C13.718 71.1433 13.6119 71.1048 13.4945 71.1149ZM14.3333 74.3795C13.9648 74.1496 13.8139 74.1387 13.8527 74.3018C13.8822 74.4499 14.0105 74.5578 14.1336 74.5234C14.2417 74.4983 14.3906 74.5727 14.4556 74.6781C14.5298 74.7986 14.688 74.888 14.7905 74.8872C15.083 74.8938 14.9603 74.7617 14.3333 74.3795ZM13.3021 73.0413C13.365 73.2103 13.5321 73.4813 13.6734 73.6435C13.8239 73.8208 13.7795 73.682 13.5753 73.3508C13.386 73.0104 13.2633 72.8782 13.3021 73.0413ZM14.4235 75.6953C14.332 75.8141 14.4046 75.8316 14.5688 75.7304C14.7423 75.6442 14.804 75.5438 14.7164 75.5355C14.6438 75.5179 14.5002 75.5857 14.4235 75.6953ZM11.3088 72.8159C11.1907 73.1589 11.2093 73.189 11.5187 73.1228C11.7051 73.091 11.7277 72.994 11.5921 72.8075C11.4472 72.6059 11.3838 72.6034 11.3088 72.8159ZM10.7449 71.6675C10.6703 71.7135 10.6328 71.8198 10.6885 71.9101C10.7349 71.9854 10.856 72.0146 10.9306 71.9686C11.0201 71.9134 11.0334 71.8013 10.987 71.726C10.9313 71.6357 10.8345 71.6123 10.7449 71.6675ZM10.1715 73.1432C10.0162 73.4259 10.0441 73.4711 10.2567 73.3815C10.3947 73.338 10.5101 73.3915 10.521 73.5095C10.517 73.6366 10.5654 73.6483 10.6178 73.5329C10.6796 73.4325 10.6279 73.215 10.5201 73.0737C10.3659 72.857 10.3026 72.8546 10.1715 73.1432ZM9.17398 74.2985C9.03964 74.3814 9.05055 74.4993 9.17888 74.6072C9.31286 74.6908 9.43955 74.6958 9.48633 74.6046C9.62104 74.3553 9.4128 74.1513 9.17398 74.2985ZM7.26771 78.5909C7.23786 78.6093 7.27299 78.7331 7.34726 78.8536C7.42153 78.974 7.54622 79.0426 7.63578 78.9873C7.71041 78.9413 7.67527 78.8175 7.55623 78.7247C7.42225 78.6411 7.29756 78.5725 7.26771 78.5909ZM3.72338 81.296C3.66167 81.3964 3.71901 81.5896 3.83605 81.746C3.94381 81.8873 4.05922 81.9408 4.10036 81.8739C4.13222 81.7919 4.0898 81.5895 3.98769 81.4239C3.88557 81.2583 3.76088 81.1897 3.72338 81.296ZM3.28814 81.7929C3.20586 81.9268 3.20185 82.0539 3.29305 82.1016C3.48473 82.212 3.66986 81.9108 3.54917 81.7151C3.50276 81.6398 3.3797 81.6741 3.28814 81.7929ZM2.98523 82.2706C2.94045 82.2982 2.90296 82.4045 2.91388 82.5224C2.91552 82.6253 2.99178 82.6822 3.06641 82.6361C3.15597 82.5809 3.1842 82.4596 3.13778 82.3843C3.08208 82.294 3.01509 82.2522 2.98523 82.2706ZM1.59418 81.0504C1.53975 81.2295 1.53738 81.4595 1.59308 81.5498C1.64878 81.6402 1.71613 81.5155 1.74271 81.2913C1.79423 80.7401 1.72925 80.6347 1.59418 81.0504Z" fill="#154AD4"/>
</svg>
