<svg width="126" height="5" viewBox="0 0 126 5" fill="none" xmlns="http://www.w3.org/2000/svg">
<path fill-rule="evenodd" clip-rule="evenodd" d="M85.4202 0.287383C84.378 0.273458 83.5378 0.262232 83.0509 0.258355C82.8544 0.257783 82.6672 0.275406 82.4982 0.291318C82.3591 0.304411 82.2324 0.316345 82.1229 0.316026C78.1138 0.208761 73.873 0.210841 69.6298 0.212922C67.3663 0.214032 65.1023 0.215143 62.8723 0.199657C61.6783 0.190098 60.4827 0.232066 59.2867 0.274048C58.7946 0.291322 58.3024 0.308598 57.8103 0.322288C56.7121 0.232222 55.6225 0.300093 54.5366 0.367728C54.0221 0.399775 53.5085 0.43177 52.9952 0.446885C48.6817 0.574368 44.3595 0.556184 40.0383 0.538006C38.5049 0.531555 36.9717 0.525105 35.439 0.525164C32.6339 0.527148 29.8285 0.525404 27.023 0.52366C20.2893 0.519473 13.5551 0.515286 6.82205 0.562661C6.33716 0.565554 5.85325 0.537843 5.37073 0.510212C3.91958 0.427112 2.48112 0.344739 1.06723 1.09781C1.05453 1.10209 1.03546 1.11066 1.0164 1.11923C0.997335 1.12781 0.978271 1.13638 0.965567 1.14065C0.547163 1.31369 0.508465 1.58563 0.469723 1.85788C0.450945 1.98983 0.432157 2.12186 0.37012 2.24273C-0.494909 3.91319 0.183234 4.44119 2.7475 4.20719C3.21775 4.165 3.71171 4.21455 4.19601 4.26314C4.28695 4.27227 4.37756 4.28136 4.4676 4.2898C5.54183 4.39824 7.21447 4.42839 8.51892 4.45191C8.81672 4.45728 9.09534 4.4623 9.34326 4.46783C10.1505 4.48315 10.9984 4.4249 11.8283 4.36788C12.654 4.31116 13.4619 4.25566 14.1946 4.27499C16.638 4.34284 19.0808 4.44635 21.5235 4.54986C25.3227 4.71085 29.1216 4.87182 32.9219 4.89862C37.055 4.92543 41.1885 4.83962 45.3224 4.75381C48.4237 4.68943 51.5253 4.62504 54.6273 4.60819C58.6938 4.58361 62.7602 4.60467 66.8266 4.62573C70.4649 4.64457 74.1033 4.66341 77.7418 4.64956C80.5173 4.63811 83.2924 4.65643 86.0677 4.67476C91.871 4.71308 97.6751 4.75141 103.485 4.51746C107.817 4.33923 112.18 4.50364 116.539 4.6679C118.09 4.72632 119.639 4.78472 121.187 4.82768C123.623 4.89513 125.216 4.02016 125.272 2.49395C125.32 1.12965 123.267 1.02167 121.854 0.947402C121.749 0.941874 121.648 0.936532 121.551 0.930873C112.609 0.413321 103.641 0.369988 94.6756 0.369779C91.9064 0.374049 88.0299 0.322253 85.4202 0.287383Z" fill="#B3E48A" fill-opacity="0.3"/>
</svg>
