<svg width="133" height="95" viewBox="0 0 133 95" fill="none" xmlns="http://www.w3.org/2000/svg">
<path fill-rule="evenodd" clip-rule="evenodd" d="M120.05 37.1963C120.084 37.8932 120.111 38.4549 120.131 38.7802C120.141 38.9113 120.181 39.0339 120.217 39.1446C120.247 39.2357 120.274 39.3187 120.279 39.3917C120.318 42.0792 120.553 44.9074 120.789 47.7371C120.914 49.2465 121.04 50.7564 121.136 52.2456C121.185 53.0431 121.321 53.8352 121.457 54.6275C121.513 54.9535 121.569 55.2795 121.619 55.606C121.527 56.3499 121.701 57.068 121.875 57.7835C121.957 58.1226 122.039 58.4611 122.092 58.8015C122.543 61.662 122.749 64.547 122.954 67.4313C123.027 68.4548 123.1 69.4782 123.184 70.5004C123.341 72.371 123.491 74.2422 123.642 76.1135C124.003 80.6051 124.364 85.097 124.812 89.5814C124.844 89.9045 124.823 90.2307 124.803 90.5561C124.743 91.5345 124.683 92.5044 126.028 93.3513C126.036 93.3592 126.052 93.3708 126.067 93.3824C126.083 93.394 126.098 93.4057 126.106 93.4136C126.42 93.6706 126.881 93.6617 127.341 93.6528C127.564 93.6484 127.788 93.6441 127.995 93.6701C130.856 94.0338 131.708 93.5142 131.174 91.8338C131.077 91.5256 131.133 91.1898 131.189 90.8606C131.199 90.7988 131.209 90.7372 131.219 90.6761C131.343 89.9458 131.302 88.8264 131.27 87.9534C131.263 87.7541 131.256 87.5676 131.252 87.4016C131.234 86.8612 131.089 86.3032 130.948 85.7569C130.807 85.2135 130.669 84.6818 130.662 84.1906C130.643 82.5524 130.683 80.91 130.724 79.2676C130.787 76.7133 130.851 74.1591 130.688 71.621C130.507 68.8611 130.137 66.1153 129.766 63.3691C129.488 61.309 129.21 59.2486 129.012 57.182C128.748 54.473 128.561 51.7582 128.374 49.0435C128.207 46.6145 128.04 44.1855 127.818 41.7607C127.647 39.911 127.526 38.0579 127.405 36.2046C127.152 32.3292 126.899 28.4533 126.187 24.6082C125.65 21.7419 125.689 18.811 125.727 15.8827C125.741 14.8414 125.754 13.8003 125.742 12.7627C125.722 11.1291 124.161 10.1782 121.588 10.3361C119.287 10.4778 119.218 11.8613 119.17 12.8127C119.166 12.8835 119.163 12.9519 119.158 13.0173C118.776 19.0467 119.193 25.0335 119.683 31.013C119.842 32.8593 119.966 35.4513 120.05 37.1963Z" fill="#B3E48A" fill-opacity="0.3"/>
<path fill-rule="evenodd" clip-rule="evenodd" d="M85.684 4.13128C84.6438 4.06328 83.8053 4.00846 83.3191 3.98113C83.1228 3.97177 82.9344 3.99352 82.7644 4.01315C82.6244 4.02931 82.4968 4.04403 82.3875 4.03882C78.3903 3.68664 74.1531 3.50907 69.9136 3.3314C67.6522 3.23663 65.39 3.14183 63.1633 3.02048C61.9711 2.95337 60.7733 2.97313 59.5752 2.9929C59.0822 3.00104 58.5891 3.00917 58.0963 3.01126C57.0061 2.81239 55.9122 2.88039 54.8221 2.94815C54.3056 2.98026 53.79 3.01231 53.2759 3.0159C48.9565 3.04683 44.6396 2.8316 40.3237 2.61641C38.7922 2.54005 37.2609 2.4637 35.7296 2.39836C32.9268 2.28193 30.1241 2.1592 27.3213 2.03647C20.594 1.74188 13.8662 1.44727 7.13557 1.23971C6.6509 1.22389 6.16957 1.15647 5.68963 1.08924C4.24623 0.887058 2.81546 0.686644 1.34448 1.89699C1.33146 1.90366 1.31174 1.91731 1.29203 1.93096C1.27232 1.94461 1.25261 1.95826 1.23958 1.96493C0.808147 2.23904 0.748406 2.69625 0.688596 3.15399C0.659608 3.37584 0.630603 3.59782 0.559253 3.79913C-0.434471 6.58087 0.202133 7.50076 2.78222 7.21541C3.25531 7.16429 3.74499 7.26901 4.22508 7.37168C4.31523 7.39096 4.40505 7.41016 4.49436 7.42825C5.55922 7.6571 7.22801 7.7794 8.52946 7.87478C8.82658 7.89656 9.10455 7.91693 9.35182 7.93685C10.1571 7.99716 11.0087 7.93508 11.8424 7.8743C12.6717 7.81385 13.4832 7.75469 14.2137 7.81859C16.6496 8.03742 19.0822 8.31639 21.5147 8.59535C25.2979 9.02921 29.0809 9.46304 32.8758 9.67054C37.0031 9.89224 41.1394 9.92395 45.2763 9.95567C48.3798 9.97946 51.4835 10.0033 54.584 10.1073C58.6487 10.2394 62.7098 10.4486 66.7709 10.6578C70.4045 10.8449 74.0382 11.032 77.6744 11.164C80.4483 11.2632 83.2195 11.4126 85.9909 11.5621C91.7859 11.8745 97.5818 12.187 103.405 12.0404C107.747 11.9246 112.093 12.3883 116.435 12.8516C117.98 13.0164 119.523 13.1811 121.066 13.3196C123.495 13.5375 125.155 12.1291 125.328 9.5562C125.483 7.25619 123.439 6.9863 122.034 6.80067C121.929 6.78686 121.828 6.77351 121.732 6.75982C112.839 5.50473 103.882 5.04868 94.9246 4.6655C92.1577 4.55447 88.2887 4.30155 85.684 4.13128Z" fill="#B3E48A" fill-opacity="0.3"/>
</svg>
