<svg width="274" height="6" viewBox="0 0 274 6" fill="none" xmlns="http://www.w3.org/2000/svg">
<path fill-rule="evenodd" clip-rule="evenodd" d="M273.002 0.782088C272.311 0.557747 271.006 0.426881 269.011 0.426881C267.399 0.408186 265.788 0.333406 265.481 0.221235C265.174 0.109065 264.867 0.183846 264.867 0.370796C264.867 0.557747 264.33 0.688612 263.562 0.688612C262.488 0.688612 262.411 0.651222 263.255 0.520356C264.637 0.296015 262.564 0.146456 258.497 0.165151L255.581 0.165151L257.269 0.520356C258.19 0.707307 258.574 0.875563 258.113 0.875563C257.576 0.875563 256.502 0.707308 255.581 0.482967C254.353 0.183845 253.432 0.109065 251.667 0.20254C250.286 0.258626 248.828 0.221235 248.29 0.109065C247.676 -0.00310565 247.216 -0.0404964 247.216 0.052979C247.216 0.146454 242.918 0.202541 237.623 0.183846C231.714 0.146455 228.107 0.20254 228.414 0.314711C229.105 0.595137 227.339 1.24946 225.881 1.24946C224.807 1.24946 224.807 1.28686 225.651 1.41772C226.265 1.5112 227.263 1.54859 227.953 1.4925C228.874 1.43642 228.798 1.47381 227.8 1.62337C226.802 1.77293 226.112 1.79162 225.421 1.64206C224.884 1.52989 224.27 1.47381 224.116 1.52989C223.886 1.56728 223.733 1.45511 223.733 1.26816C223.733 1.06251 224.27 0.931648 224.884 0.969039C226.649 1.02512 227.953 0.651222 226.956 0.389491C226.188 0.183845 215.214 0.183845 212.912 0.408186C212.451 0.445576 211.914 0.389492 211.684 0.258626C211.53 0.127761 210.456 0.23993 209.075 0.576442C207.079 1.02512 206.772 1.19338 207.386 1.56728C207.77 1.79162 207.847 1.99727 207.617 1.99727C207.079 1.99727 205.391 0.819478 205.621 0.613832C205.775 0.520356 205.314 0.501662 204.777 0.557747C204.163 0.613832 203.242 0.557748 202.782 0.445577C202.168 0.296016 201.938 0.296016 201.938 0.464272C201.938 0.595137 201.17 0.688612 200.173 0.688612C199.175 0.688612 198.024 0.595137 197.487 0.464272C196.949 0.333406 196.566 0.31471 196.566 0.426881C196.566 0.520356 192.421 0.595137 186.819 0.595137C166.175 0.613832 143.383 0.894258 140.006 1.15599C139.469 1.19338 138.855 1.15599 138.548 1.04382C138.318 0.931649 137.627 0.894258 137.013 0.950344C136.476 1.00643 135.785 0.969039 135.555 0.856868C135.248 0.763393 134.711 0.726002 134.327 0.800782C133.56 0.912953 128.725 0.969039 114.758 1.06251C111.304 1.0999 108.081 1.04382 107.544 0.969039C106.853 0.856868 106.7 0.894258 107.16 1.08121C107.697 1.28685 107.621 1.30555 106.7 1.13729C106.086 1.02512 104.244 0.969039 102.556 1.00643C100.867 1.02512 97.7975 1.04382 95.6487 1.04382C90.7372 1.00643 92.1185 1.00643 73.3933 1.15599C35.1753 1.47381 32.3358 1.5112 25.0453 1.82901C22.129 1.94118 18.2919 2.07205 16.6035 2.09074C14.9152 2.12813 13.6105 2.2403 13.6873 2.35248C13.8408 2.46465 12.8432 2.50204 11.1548 2.46465C9.6967 2.40856 8.62231 2.44595 8.85254 2.52073C9.00602 2.59551 8.31527 2.6516 7.16412 2.6516C6.01298 2.6329 4.40142 2.76377 3.55725 2.95072C2.71308 3.11897 1.33172 3.30592 0.487549 3.36201C-0.433366 3.4181 -0.0496718 3.45549 1.63867 3.47418C6.47347 3.49288 7.08743 3.54896 6.24326 3.75461C5.01537 4.05373 5.32233 4.48371 6.7037 4.35285C7.31765 4.29676 7.62464 4.31546 7.39441 4.40893C7.16418 4.50241 7.31765 4.63328 7.77811 4.70806C8.23856 4.78284 8.39209 4.9324 8.08511 5.04457C7.85488 5.17543 8.54549 5.02587 9.54315 4.72675C10.6176 4.42763 11.8454 4.24068 12.2292 4.31546C13.3036 4.46502 12.5361 4.98848 11.385 4.9324C10.9245 4.9137 10.4641 5.06326 10.3106 5.26891C10.0803 5.56803 10.1571 5.58672 10.7711 5.36238C11.385 5.13804 11.7687 5.15674 13.1501 5.45586C14.2245 5.69266 14.5827 5.68643 14.2245 5.43716C13.6873 5.11935 13.7641 5.10065 14.992 5.36238C16.9105 5.71759 21.5918 5.79237 21.5918 5.45586C21.5918 5.3063 21.9755 5.13804 22.5127 5.06326C23.0499 4.98848 23.1267 5.00718 22.8197 5.13804C22.2825 5.34369 22.5894 5.39977 24.8917 5.43716C25.3522 5.45586 26.0429 5.53064 26.3499 5.64281C26.7336 5.75498 27.194 5.75498 27.808 5.60542C28.2684 5.49325 29.1894 5.43717 29.7266 5.49325C30.3405 5.54934 31.4149 5.47455 32.1056 5.34369C33.18 5.11935 33.3335 5.11935 32.7196 5.34369C32.2591 5.54933 32.5661 5.58673 34.5614 5.49325C36.0963 5.41847 36.8637 5.43716 36.5567 5.54933C36.3265 5.64281 36.5566 5.6802 37.1706 5.62412C38.1682 5.53064 41.1612 5.43716 44.0774 5.38108C44.9216 5.36238 45.2287 5.26891 44.9217 5.15674C44.6147 5.02587 44.9984 5.02587 46.0728 5.17543C47.3775 5.34369 48.0681 5.34369 48.9123 5.17543C49.7564 4.98848 50.0634 5.00718 50.4471 5.23152C50.9076 5.54934 56.1261 5.60542 56.9703 5.2876C57.2773 5.19413 58.1214 5.19413 58.8889 5.26891C59.733 5.36238 60.5772 5.39977 60.9609 5.39977C61.2678 5.38108 61.4981 5.45586 61.4981 5.58673C61.4981 5.6989 61.9585 5.66151 62.4957 5.45586C63.2632 5.21282 63.7237 5.17543 64.1074 5.34369C64.5679 5.51194 64.9515 5.51194 65.7957 5.34369C66.5631 5.19413 67.4841 5.19413 69.0957 5.32499C70.3236 5.43716 71.5514 5.47456 71.7049 5.41847C71.9351 5.38108 72.3189 5.51195 72.6259 5.71759C73.0863 6.0728 73.2398 6.0728 74.2374 5.82976C74.9281 5.6802 75.849 5.60542 76.3095 5.6802C76.7699 5.75498 76.9234 5.6802 76.6165 5.49325C76.3095 5.26891 76.6165 5.23152 77.9979 5.2876C79.149 5.34369 80.0699 5.25021 80.5303 5.06326C81.0675 4.82023 81.3745 4.80153 81.835 4.98848C82.142 5.11935 81.9885 5.2876 81.3746 5.38108C80.8374 5.45586 80.6071 5.58672 80.914 5.6615C81.1443 5.73629 81.9117 5.6989 82.4489 5.58673C83.2163 5.41847 83.7536 5.43716 84.4443 5.60542C85.2117 5.77368 85.2884 5.75498 84.9047 5.51195C84.5978 5.32499 84.7513 5.17543 85.2117 5.17543C85.6722 5.17543 85.8256 5.02587 85.5186 4.85762C85.2884 4.67067 85.2885 4.57719 85.5954 4.65197C86.1326 4.74545 86.5931 5.13804 86.7466 5.60542C86.8233 5.6802 87.3605 5.73629 87.9744 5.73629C88.5884 5.73629 89.1256 5.6802 89.1256 5.60542C89.1256 5.51195 89.893 5.45586 90.8906 5.43716C91.8115 5.43716 94.3441 5.38108 96.5696 5.3063C99.7928 5.21282 100.79 5.25021 101.865 5.51195C102.735 5.71136 103.016 5.71136 102.709 5.51195C102.325 5.25021 102.709 5.19413 105.242 5.23152C106.853 5.23152 108.081 5.3063 107.928 5.38108C107.697 5.43716 108.618 5.49325 109.846 5.51195C111.074 5.51195 112.302 5.43716 112.532 5.34369C112.839 5.25021 113.53 5.17543 114.144 5.17543C114.758 5.17543 115.141 5.25021 114.911 5.32499C114.758 5.39977 115.295 5.49325 116.216 5.49325C117.213 5.51195 117.52 5.47455 116.983 5.39977C116.369 5.3063 116.293 5.15674 116.753 4.98848C117.367 4.76414 117.52 4.76414 117.52 4.96979C117.52 5.11935 117.981 5.17543 118.672 5.10065C119.286 5.04457 120.744 5.08196 121.895 5.19413C122.969 5.2876 124.12 5.3063 124.351 5.23152C124.581 5.15674 126.039 5.06326 127.497 5.02587C128.955 5.00718 130.413 4.87631 130.72 4.74545C131.181 4.57719 131.334 4.57719 131.334 4.76414C131.334 4.87631 131.948 4.98848 132.715 4.98848C133.79 4.98848 133.867 4.95109 132.869 4.80153C132.178 4.68936 132.102 4.61458 132.639 4.61458C133.176 4.61458 133.943 4.76414 134.327 4.95109C134.788 5.11935 135.171 5.17543 135.171 5.06326C135.171 4.78284 140.697 4.76414 141.464 5.04457C141.925 5.21282 142.078 5.21282 142.078 5.04457C142.078 4.9137 142.922 4.80153 143.997 4.80153C145.071 4.80153 145.915 4.72675 145.915 4.61458C145.915 4.5211 145.301 4.48371 144.611 4.5398C143.536 4.63328 143.46 4.61458 144.304 4.46502C144.918 4.35285 145.839 4.31546 146.376 4.37155C146.836 4.40894 147.604 4.22198 148.064 3.92286C148.525 3.64244 148.908 3.51157 148.908 3.64244C148.985 3.97895 150.366 3.92286 150.827 3.54896C151.441 3.08158 155.124 2.67029 155.124 3.06289C155.124 3.21245 154.817 3.28723 154.357 3.21245C153.59 3.10028 150.136 3.84808 150.827 3.99764C151.057 4.05373 151.901 3.99764 152.592 3.84808C153.462 3.68606 153.564 3.71099 152.899 3.92286C152.285 4.10981 151.211 4.22198 150.52 4.18459C149.829 4.1472 148.832 4.25937 148.294 4.44632C147.604 4.72675 147.68 4.80153 148.371 4.76414C148.908 4.72675 149.522 4.67067 149.752 4.61458C149.983 4.5585 151.287 4.37154 152.669 4.20329C155.048 3.88547 155.201 3.88547 156.659 4.24068C158.348 4.65197 159.345 4.74545 158.501 4.39024C158.117 4.25937 158.348 4.22198 159.192 4.29676C159.882 4.35285 160.573 4.31546 160.803 4.18459C161.187 4.01634 161.341 4.01634 161.724 4.18459C162.031 4.37155 162.799 4.35285 164.948 4.1472C166.84 3.96025 167.224 3.98518 166.099 4.22198C164.641 4.52111 164.564 4.59589 165.561 4.68936C166.175 4.74545 166.482 4.72675 166.252 4.61458C166.022 4.50241 166.482 4.42763 167.327 4.42763C168.171 4.42763 169.015 4.35285 169.322 4.25937C169.936 3.99764 174.387 4.05373 173.85 4.31546C173.62 4.42763 173.85 4.39024 174.464 4.24068C175.615 3.90417 178.531 3.73591 177.764 4.03503C177.15 4.29676 177.687 4.29676 180.757 3.97895C183.059 3.75461 183.596 3.75461 184.977 3.97895C185.975 4.1659 186.589 4.18459 186.589 4.05373C186.589 3.94156 186.896 3.90417 187.356 3.96025C187.74 4.01634 187.97 3.96025 187.74 3.82939C187.51 3.69852 187.663 3.47418 188.047 3.32462C188.584 3.10028 189.045 3.10028 189.889 3.26853C190.426 3.3994 191.27 3.4181 191.577 3.34332C191.961 3.26853 191.961 3.32462 191.654 3.45549C191.347 3.58635 190.733 3.64244 190.349 3.58635C189.966 3.51157 189.659 3.54896 189.659 3.66113C189.659 4.05373 191.347 4.07242 192.421 3.71722C193.112 3.47418 194.11 3.36201 195.031 3.3994C195.875 3.43679 196.566 3.3994 196.566 3.28723C196.566 3.19375 196.949 3.11897 197.41 3.11897C197.793 3.11897 197.947 3.21245 197.717 3.30592C197.487 3.41809 197.794 3.49288 198.484 3.49288C199.252 3.49288 199.482 3.58635 199.175 3.71722C198.868 3.82939 199.405 3.792 200.326 3.62374C201.324 3.47418 202.628 3.38071 203.165 3.43679C203.856 3.49288 204.24 3.3994 204.24 3.21245C204.24 2.93202 204.393 2.91333 205.545 3.13767C206.389 3.32462 206.619 3.32462 206.235 3.17506C205.928 3.04419 206.082 2.93202 206.465 2.93202C207.54 2.93202 207.54 3.17506 206.465 3.43679C205.928 3.56766 205.928 3.67983 206.389 3.75461C206.849 3.82939 207.693 3.71722 208.231 3.54896C209.305 3.17506 211.147 3.0255 211.147 3.28723C211.147 3.38071 211.837 3.49288 212.682 3.54896C213.833 3.62374 214.216 3.54896 214.216 3.30592C214.216 2.89463 212.835 2.6329 210.993 2.70768C210.226 2.74507 209.612 2.68899 209.612 2.59551C209.612 2.50204 210.456 2.42726 211.53 2.42726C212.605 2.42726 213.449 2.50204 213.449 2.59551C213.449 2.68899 213.833 2.70768 214.37 2.6329C214.83 2.55812 214.984 2.57682 214.754 2.68899C214.447 2.80116 214.754 2.98811 215.368 3.11897C215.982 3.24984 216.288 3.43679 215.982 3.56766C215.751 3.67983 215.982 3.67983 216.596 3.54896C217.133 3.4181 218.437 3.30592 219.435 3.30592C220.893 3.30592 221.123 3.23114 220.74 2.91333C220.356 2.6329 220.433 2.55812 221.047 2.6329C221.507 2.70768 221.891 2.93202 221.891 3.13767C221.891 3.45548 222.121 3.47418 223.426 3.30592C224.27 3.19375 224.961 2.96941 224.961 2.78246C224.961 2.52073 225.114 2.50204 225.651 2.74507C226.112 2.89463 226.188 3.08158 225.958 3.19375C225.728 3.28723 225.881 3.30592 226.342 3.23114C226.879 3.15636 227.263 2.96941 227.263 2.81985C227.263 2.6516 227.8 2.55812 228.644 2.59551C229.412 2.6329 229.872 2.80116 229.719 2.98811C229.565 3.15636 229.872 3.30592 230.333 3.30592C230.716 3.30592 231.1 3.21245 231.1 3.08158C231.1 2.96941 231.56 3.0255 232.174 3.23114C232.891 3.46795 233.223 3.46172 233.172 3.21245C233.018 2.81985 235.551 2.68899 236.702 3.0255C237.086 3.13767 237.086 3.0255 236.856 2.80116C236.472 2.48334 236.702 2.37117 237.546 2.37117C238.237 2.37117 238.774 2.50204 238.774 2.6516C238.774 2.80116 239.158 2.93202 239.618 2.93202C240.002 2.93202 240.156 2.85724 239.925 2.74507C239.618 2.61421 240.156 2.61421 241.46 2.74507C243.072 2.89463 243.916 2.85724 245.604 2.57682C247.293 2.27769 247.983 2.24031 248.751 2.42726C249.518 2.59551 249.595 2.59551 249.211 2.42726C248.828 2.259 249.211 2.18422 250.362 2.18422C251.514 2.18422 251.821 2.259 251.36 2.42726C250.976 2.55812 251.283 2.50204 252.051 2.31509C253.202 1.99727 253.739 1.97857 255.351 2.16552C257.806 2.42726 260.492 2.44595 259.802 2.16552C259.495 2.01596 259.725 2.01596 260.723 2.14683C263.025 2.44595 266.325 2.22161 266.018 1.79162C265.864 1.58598 266.018 1.47381 266.478 1.52989C266.862 1.60467 267.092 1.45511 266.939 1.21208C266.862 0.931649 267.169 0.800783 267.783 0.838173C268.397 0.856869 268.627 0.800783 268.32 0.688612C268.09 0.595137 268.167 0.501661 268.627 0.501661C269.011 0.501661 269.548 0.576442 269.855 0.688612C270.085 0.782088 270.853 0.800783 271.543 0.744698C272.311 0.669918 272.618 0.707308 272.311 0.819479C272.004 0.931649 272.311 1.06251 272.925 1.13729C274.306 1.26816 274.383 1.23077 273.002 0.782088ZM257.193 1.34294C256.809 1.39903 256.425 1.36164 256.425 1.26816C256.425 1.15599 256.809 1.06251 257.193 1.06251C257.653 1.06251 257.96 1.0999 257.96 1.13729C257.96 1.19338 257.653 1.28686 257.193 1.34294ZM243.532 2.6329C243.149 2.68899 242.842 2.61421 242.842 2.46465C242.842 2.31508 243.149 2.2403 243.532 2.29639C243.839 2.35247 244.146 2.42726 244.146 2.46465C244.146 2.50204 243.839 2.57682 243.532 2.6329ZM240.77 1.1186C240.309 1.06251 240.309 1.1186 240.923 1.26816C242.151 1.60467 242.151 1.90379 240.846 1.64206C240.232 1.52989 239.465 1.5112 239.158 1.58598C238.774 1.66076 238.774 1.60467 239.081 1.4925C239.388 1.36164 239.311 1.24946 239.004 1.24946C238.621 1.24946 238.314 1.08121 238.237 0.856868C238.16 0.576442 238.39 0.520357 239.004 0.651223C239.542 0.744698 240.693 0.800783 241.614 0.782088C242.995 0.763393 243.149 0.800784 242.535 1.00643C242.074 1.1373 241.307 1.19338 240.77 1.1186ZM238.391 2.05335C237.7 1.99727 237.316 1.90379 237.546 1.8664C237.777 1.81032 238.237 1.82901 238.697 1.90379C239.925 2.07205 239.695 2.18422 238.391 2.05335ZM208.384 1.38033C208.154 1.32425 208.077 1.15599 208.307 1.02512C208.537 0.875564 208.768 0.931649 208.768 1.13729C208.845 1.34294 208.614 1.45511 208.384 1.38033ZM202.321 2.55812C201.707 2.55812 201.017 2.48334 200.786 2.37117C200.48 2.259 201.17 2.18422 202.321 2.18422C203.472 2.18422 204.163 2.259 203.856 2.37117C203.626 2.48334 202.935 2.55812 202.321 2.55812ZM198.331 2.76377C197.103 3.0068 197.026 2.98811 198.024 2.70768C199.021 2.38987 199.635 2.29639 199.635 2.44595C199.635 2.48334 199.021 2.6329 198.331 2.76377ZM191.577 2.44595C190.963 2.37117 190.426 2.24031 190.426 2.14683C190.426 2.03466 190.887 2.05335 191.577 2.18422C192.191 2.31508 192.728 2.44595 192.728 2.48334C192.728 2.52073 192.191 2.50204 191.577 2.44595ZM183.366 1.82901C181.754 2.03466 181.678 2.03466 182.675 1.75423C183.212 1.56728 183.98 1.43642 184.363 1.43642C185.515 1.43642 185.131 1.60467 183.366 1.82901ZM174.617 3.19375C174.003 3.24984 173.773 3.41809 174.003 3.58635C174.694 4.01634 172.238 3.94156 171.24 3.51157C170.243 3.04419 170.243 2.93202 171.317 2.93202C171.701 2.93202 171.854 3.0255 171.624 3.11897C171.394 3.23114 171.701 3.30592 172.392 3.30592C173.159 3.30592 173.389 3.21245 173.082 3.08158C172.775 2.95072 172.775 2.89463 173.159 2.96941C173.466 3.04419 174.157 2.96941 174.694 2.81985C175.538 2.53943 175.615 2.53943 175.615 2.80116C175.615 2.96941 175.154 3.13767 174.617 3.19375ZM162.799 3.86678C162.415 3.86678 162.031 3.73591 162.031 3.56766C162.031 3.41809 162.415 3.34331 162.799 3.3994C163.259 3.45549 163.566 3.58635 163.566 3.69852C163.566 3.792 163.259 3.86678 162.799 3.86678ZM150.904 2.42726C150.29 2.50204 149.599 2.46465 149.369 2.37117C149.062 2.259 149.599 2.18422 150.443 2.18422C152.362 2.18422 152.515 2.29639 150.904 2.42726ZM144.227 3.47418C142.846 3.45549 142.769 3.43679 143.843 3.36201C144.994 3.28723 145.071 3.23114 144.227 2.96941C143.306 2.68899 143.383 2.67029 144.611 2.91333C146.452 3.26853 146.222 3.49288 144.227 3.47418ZM74.1607 5.54933C73.47 5.6802 73.0096 5.6989 73.0096 5.58673C73.0096 5.49325 73.5468 5.36238 74.1607 5.2876C74.7747 5.23152 75.3119 5.21282 75.3119 5.25021C75.3119 5.2876 74.7747 5.41847 74.1607 5.54933ZM54.4377 2.87594C53.8238 2.81985 54.0541 2.76377 54.8983 2.76377C55.7424 2.74507 56.2028 2.80116 55.8959 2.85724C55.6656 2.91333 54.9749 2.93202 54.4377 2.87594ZM52.4424 5.08196C52.2122 5.02587 52.4425 4.87631 52.9797 4.74545C53.7471 4.57719 53.8239 4.59589 53.3634 4.85762C53.1332 5.04457 52.6727 5.13804 52.4424 5.08196ZM42.3124 5.17543C41.9287 5.17543 41.545 5.13804 41.545 5.10065C41.545 5.04457 41.9287 4.95109 42.3124 4.89501C42.7729 4.83892 43.0798 4.87631 43.0798 4.96979C43.0798 5.08196 42.7729 5.17543 42.3124 5.17543ZM23.8941 3.67983C23.5104 3.67983 23.1267 3.64244 23.1267 3.60505C23.1267 3.54896 23.5104 3.45549 23.8941 3.3994C24.3546 3.34331 24.6615 3.3807 24.6615 3.47418C24.6615 3.58635 24.3546 3.67983 23.8941 3.67983ZM14.8384 4.52111C14.6082 4.46502 14.8385 4.31546 15.3757 4.18459C16.1431 4.01634 16.2199 4.03503 15.7594 4.29676C15.5292 4.48372 15.0686 4.57719 14.8384 4.52111ZM10.0804 3.86678C9.69667 3.86678 9.31296 3.82939 9.31296 3.792C9.31296 3.73591 9.69667 3.64244 10.0804 3.58635C10.5408 3.53027 10.8478 3.56766 10.8478 3.66113C10.8478 3.7733 10.5408 3.86678 10.0804 3.86678Z" fill="#0841D1"/>
</svg>
