<svg width="123" height="84" viewBox="0 0 123 84" fill="none" xmlns="http://www.w3.org/2000/svg">
<path d="M67.4245 74.1807C71.4531 72.9366 75.446 71.4867 79.385 69.826C83.1049 68.2481 86.809 66.5551 90.4145 64.549L91.7735 63.8181L93.1163 63.035C94.0107 62.5052 94.9072 61.9986 95.7944 61.4543C97.5538 60.3289 99.3407 59.2462 101.057 58.0415C104.5 55.6699 107.776 53.0121 110.627 49.7961C112.054 48.192 113.341 46.4301 114.48 44.5279C115.608 42.6431 116.556 40.6072 117.277 38.4126C117.417 37.9665 117.544 37.5068 117.653 37.0501L117.942 35.6546L117.913 35.7299C119.241 30.3163 119.149 24.3737 117.078 19.7097C115.044 14.9849 111.24 11.7477 107.048 9.74156C104.604 8.59541 102.032 7.76012 99.399 7.18556C96.7577 6.65157 94.0351 6.20922 91.3383 5.92729C85.9258 5.35082 80.4768 5.31335 75.0549 5.79666C64.1995 6.7652 53.4415 9.81874 43.2027 14.8102C42.3946 15.1691 41.4695 15.6883 40.5175 16.1726C39.5669 16.6723 38.5757 17.116 37.7032 17.5559C35.9425 18.3915 34.5017 18.7986 34.2637 17.9751C33.7635 16.3241 36.9886 12.8827 42.7644 10.0292C46.2426 8.27116 49.8175 6.87362 53.4032 5.59976C55.2108 5.03097 57.0066 4.39355 58.8367 3.94652C59.7508 3.71141 60.6556 3.43861 61.5716 3.22669L64.3159 2.61509C65.2313 2.39544 66.1468 2.24632 67.0676 2.08851C67.989 1.93843 68.9012 1.75066 69.8239 1.61604C71.6682 1.40186 73.5046 1.09491 75.357 0.973497C79.0438 0.59248 82.7373 0.563142 86.4224 0.574356L90.4621 0.762977L94.4906 1.16509L98.5079 1.78067C99.8497 2.01679 101.203 2.3138 102.544 2.68324C105.222 3.4308 107.895 4.40634 110.46 5.90919C111.1 6.29094 111.74 6.66496 112.362 7.1201C112.993 7.53468 113.601 8.02362 114.204 8.52896C114.817 9.0092 115.376 9.61591 115.964 10.155L116.788 11.0791C117.07 11.3781 117.336 11.7032 117.587 12.0543C119.665 14.7417 121.31 18.1268 122.113 21.8998C122.95 25.6516 122.983 29.6049 122.487 33.3544C122.22 35.2243 121.838 37.0583 121.337 38.8408C120.818 40.6108 120.198 42.3187 119.483 43.956C118.011 47.2294 116.153 50.0955 114.092 52.6182C110.385 57.165 106.075 60.5089 101.757 63.4383C97.4247 66.3233 92.9967 68.9338 88.4695 71.2233C79.4222 75.8168 70.002 79.0601 60.4564 81.1322C51.4701 82.9957 42.3973 83.8621 33.2634 83.4057C30.9642 83.2471 28.6674 82.9784 26.372 82.5214C24.0805 82.0402 21.7932 81.4015 19.5379 80.5146C17.2911 79.5871 15.0776 78.4269 12.9606 76.9374C10.8475 75.4237 8.86651 73.5122 7.10522 71.2514L6.00393 69.7376C5.65504 69.2143 5.33737 68.6389 5.00994 68.0887L4.52142 67.2589C4.36617 66.9785 4.23233 66.671 4.08748 66.3732L3.24779 64.5816C2.20621 62.1095 1.47852 59.4138 1.04296 56.6549C0.613269 53.895 0.511459 51.0738 0.652555 48.3072C0.805389 45.5386 1.21871 42.8217 1.81873 40.1998C3.0436 34.9677 5.03389 30.1204 7.57027 25.874C8.83812 23.7469 10.2433 21.7621 11.7839 19.9669C12.5509 19.0659 13.3521 18.2142 14.1872 17.4118C15.0244 16.6327 15.8595 15.9009 16.7131 15.1739C19.9583 12.5131 23.6451 10.4154 26.8425 8.23273L26.778 8.24323C28.9314 7.68083 31.1306 6.61711 33.3727 5.77374C35.6063 4.90039 37.8567 4.2203 39.9659 4.31573C41.3912 4.00518 42.8559 3.8058 44.2244 3.45748C50.5245 1.91396 52.2429 2.30822 50.3285 4.66603C49.9095 5.18892 50.5043 5.6643 49.0072 6.24522C49.0013 6.24618 48.8872 6.23342 48.8872 6.23342L48.9367 6.2567C46.8751 7.32936 44.5374 7.96098 42.127 8.51037C39.723 9.06654 37.2537 9.55497 34.9539 10.2823C29.3185 12.0782 23.8401 14.6559 18.999 18.6114C18.3791 19.0808 17.8069 19.6208 17.2164 20.156C16.6188 20.6766 16.0596 21.2302 15.5136 21.7973C14.4223 22.9393 13.3958 24.2118 12.4354 25.5597C10.5152 28.2634 8.86845 31.3066 7.56277 34.5765C4.96701 41.0902 3.73049 48.6603 4.88218 55.6297C5.16926 57.3624 5.59462 59.0413 6.16711 60.6334L6.62569 61.8051C6.78965 62.186 6.98227 62.5545 7.15797 62.9335L7.69024 64.0618C7.88807 64.4216 8.10225 64.7629 8.31048 65.1053C9.96273 67.8934 12.0906 70.1964 14.4778 71.9868C17.3982 74.2313 20.718 75.6582 24.1034 76.6746C27.5005 77.689 31.0184 78.1743 34.5467 78.3678C41.6659 78.7212 48.8392 78.1878 55.9032 76.9431C59.7718 76.1876 63.5953 75.118 67.4869 74.147L67.4245 74.1807Z" fill="#5474E8" fill-opacity="0.7"/>
</svg>
