<svg width="217" height="4" viewBox="0 0 217 4" fill="none" xmlns="http://www.w3.org/2000/svg">
<path d="M143.838 0.259735C146.791 0.266202 157.262 0.279131 163.971 0.23386C179.501 0.123917 195.023 -0.0506954 210.515 0.0139769C212.936 0.0269114 217.053 -0.0442243 216.999 1.04874C216.945 2.19344 214.208 2.91129 209.982 2.94363C199.75 3.04064 189.463 2.89835 179.293 3.19584C164.403 3.61621 149.536 3.51274 134.669 3.58388C121.321 3.59035 107.958 3.60329 94.6105 3.60975C82.0724 3.65502 69.542 3.89431 57.0116 3.91371C46.2008 3.92665 35.39 3.7003 24.5714 3.69383C22.0268 3.69383 18.9656 3.93312 16.1742 3.93959C13.8686 3.94606 10.0208 3.99779 7.73065 3.93312C6.74364 3.90725 5.71809 3.86844 4.75422 3.92664C0.320393 4.17886 -0.86712 3.79731 0.590259 2.52326C0.914121 2.24517 0.528562 1.88946 1.59268 1.68251C1.63895 1.67605 1.72379 1.65665 1.76235 1.64371C5.00097 0.835308 8.35524 1.13926 11.7249 1.07459C28.2573 0.777099 44.7974 0.680097 61.3375 0.615424C71.4852 0.570154 81.6406 0.628357 91.7651 0.492545C94.5334 0.453742 97.3093 0.292065 100.124 0.395541H100.078C103.015 0.363205 105.953 0.292069 108.884 0.298537C119.987 0.317938 131.585 0.233857 142.241 0.311464C142.658 0.311464 143.221 0.259735 143.838 0.259735Z" fill="#5474E8" fill-opacity="0.7"/>
</svg>
