<svg width="178" height="5" viewBox="0 0 178 5" fill="none" xmlns="http://www.w3.org/2000/svg">
<path d="M117.987 0.324668C120.409 0.332752 128.999 0.348914 134.501 0.292325C147.24 0.154897 159.973 -0.0633692 172.68 0.0174712C174.666 0.0336392 178.044 -0.0552804 178 1.31092C177.955 2.7418 175.71 3.63912 172.244 3.67954C163.85 3.8008 155.412 3.62294 147.07 3.9948C134.856 4.52026 122.661 4.39092 110.466 4.47985C99.5171 4.48793 88.5556 4.50411 77.6067 4.51219C67.322 4.56878 57.0437 4.86789 46.7653 4.89214C37.8974 4.90831 29.0296 4.62537 20.1554 4.61729C18.0681 4.61729 15.557 4.9164 13.2673 4.92449C11.3761 4.93257 8.21984 4.99723 6.34127 4.91639C5.53165 4.88406 4.69042 4.83555 3.89977 4.9083C0.262811 5.22358 -0.711278 4.74664 0.484176 3.15408C0.749832 2.80647 0.433567 2.36183 1.30644 2.10314C1.34439 2.09506 1.41399 2.07081 1.44561 2.05464C4.10217 1.04413 6.85361 1.42408 9.6177 1.34324C23.1788 0.971374 36.7463 0.850121 50.3137 0.76928C58.6376 0.712692 66.9678 0.785447 75.2728 0.615682C77.5435 0.567178 79.8206 0.365082 82.1292 0.494426H82.0913C84.5012 0.454006 86.911 0.365087 89.3146 0.373171C98.4228 0.397423 107.936 0.292321 116.677 0.38933C117.019 0.38933 117.481 0.324668 117.987 0.324668Z" fill="#FE833D" fill-opacity="0.7"/>
</svg>
