<svg width="79" height="135" viewBox="0 0 79 135" fill="none" xmlns="http://www.w3.org/2000/svg">
<path fill-rule="evenodd" clip-rule="evenodd" d="M65.5455 3.41743C63.7036 5.73984 62.182 7.822 62.182 8.22241C62.182 8.54275 59.8596 11.1855 56.9766 14.0685C54.0936 16.9515 51.7712 19.8345 51.7712 20.4751C51.7712 21.1959 51.2907 21.6764 50.8102 21.5162C50.2496 21.4361 49.7691 22.0768 49.7691 22.9577C49.7691 23.9187 48.8882 25.0399 47.687 25.6004C44.8841 27.0419 36.0749 35.2104 36.3953 36.2515C36.4754 36.6519 36.0749 36.9722 35.5144 36.9722C34.8737 36.9722 33.7525 37.693 32.9517 38.5739C31.9907 39.6417 32.4178 40.0154 34.233 39.695C35.7546 39.3747 37.3563 38.654 37.8368 38.0934C38.5575 37.2125 38.9579 37.2926 40.1592 38.5739C41.5206 40.0955 41.5206 40.1755 39.5986 40.8963C38.5575 41.2967 37.1961 42.1776 36.6355 42.8984C36.0749 43.6191 35.0339 44.1797 34.3932 44.1797C33.7525 44.1797 33.5123 44.5801 33.7525 45.0606C34.0729 45.5411 34.7936 45.7013 35.4343 45.461C36.0749 45.2208 36.5554 45.5411 36.5554 46.1818C36.5554 47.5432 34.4733 47.7834 33.7525 46.5822C33.4322 46.1017 32.8716 46.0216 32.3911 46.2619C31.8305 46.6623 31.6704 46.3419 31.9907 45.5411C32.231 44.7403 32.1509 44.1797 31.7505 44.1797C30.309 44.1797 30.9496 42.4179 32.5513 42.0175C33.4322 41.7772 34.153 41.2967 34.153 40.8963C34.153 39.1345 26.8654 43.539 22.7011 47.8635C19.738 50.9067 19.738 50.9868 21.4998 51.4673C22.621 51.7075 23.4218 51.4673 23.582 50.8266C23.7422 50.266 24.6231 49.7855 25.5841 49.7054C26.5451 49.7054 26.8654 49.4652 26.3849 49.2249C24.6231 48.5843 25.2637 47.383 27.3459 47.383C28.4671 47.383 29.348 47.5432 29.348 47.7834C29.348 49.1448 26.5451 52.1079 24.8633 52.5083C23.8222 52.8287 22.9413 53.5494 22.9413 54.1901C22.9413 54.8307 22.3807 55.3913 21.7401 55.3913C20.2986 55.3913 20.1384 54.0299 21.5799 53.5494C22.1405 53.3892 21.5799 52.7486 20.2185 52.1079C18.0563 51.1469 17.816 51.1469 16.2144 53.2291C15.2534 54.4303 13.972 55.3913 13.3314 55.3913C12.6907 55.3913 11.2492 56.3523 10.2081 57.3934C9.16704 58.5146 7.9658 59.3955 7.40522 59.3955C5.72347 59.4756 1.3189 64.2005 1.3189 65.9623C1.3189 67.7241 1.31891 67.8042 2.35999 65.8021C3.00065 64.5208 4.20189 63.72 5.72347 63.4797C7.80563 63.2395 7.88571 63.1594 6.5243 62.5988C5.24297 62.1183 5.56331 61.9581 7.9658 61.6378C9.80771 61.4776 10.8488 61.6378 10.6085 62.1183C10.4484 62.5988 9.88779 62.9191 9.40729 62.8391C7.88572 62.4386 8.4463 64.0403 10.3683 65.4818C12.05 66.7631 11.5695 66.683 8.28613 65.4017C6.92472 64.8411 2.7604 68.0444 3.16082 69.3258C3.40107 69.8063 2.7604 71.0075 1.87949 71.9685C0.998572 73.0096 0.678242 73.8104 1.15874 73.8104C1.63924 73.8104 1.87949 74.371 1.63924 75.0117C1.31891 75.6523 1.39899 76.2129 1.71932 76.2129C2.84048 76.2129 10.6886 72.2088 12.1301 70.7673C13.011 69.9664 14.0521 69.1656 14.5326 68.9254C14.933 68.7652 15.2534 68.2847 15.0932 67.8843C14.6928 66.683 16.855 65.8021 17.4957 66.8432C17.9762 67.5639 18.1363 67.5639 18.1363 66.7631C18.1363 66.2826 18.6168 65.8021 19.1774 65.8021C20.4588 65.8021 28.8675 59.9561 32.6314 56.4324C34.153 54.9909 35.8347 53.7897 36.3152 53.7897C36.8758 53.7897 37.9169 52.9088 38.6376 51.7876C39.3583 50.6664 40.3193 49.7855 40.7998 49.7855C41.2003 49.7855 43.1222 48.344 45.0442 46.5822C46.9662 44.8204 49.0484 43.3789 49.7691 43.3789C51.3708 43.3789 51.3708 46.9025 49.7691 48.1838C49.0484 48.7444 48.648 49.7054 48.8882 50.266C49.1285 50.8266 48.5679 52.188 47.687 53.3092C46.8061 54.4303 46.2455 55.7117 46.5658 56.1121C46.8061 56.5125 46.5658 57.1532 46.0853 57.3934C45.6849 57.7137 45.4447 58.4345 45.6849 59.0751C45.9252 59.7158 45.765 60.1963 45.2845 60.1963C44.804 60.1963 44.5637 60.7569 44.8841 61.3976C45.1243 62.0382 44.5637 63.0793 43.6828 63.72C42.6418 64.4407 42.4015 65.0013 42.882 65.4017C43.3625 65.642 43.7629 66.2826 43.7629 66.683C43.7629 67.1635 43.4426 67.3237 43.0422 67.0835C41.6808 66.2025 41.3604 70.2067 42.7218 71.1677C43.9231 72.1287 43.9231 72.2088 42.4015 72.2088C41.2803 72.2088 40.5596 73.0096 39.9189 75.1718C38.7177 79.3362 38.7978 79.8167 40.7998 79.6565C42.4015 79.4963 42.4015 79.5764 41.2003 80.4573L38.5575 82.2191C37.4364 82.8598 36.5554 85.5025 34.5534 93.9913C34.3932 94.7121 33.9127 95.9934 33.4322 96.8743C32.9517 97.7553 32.8716 98.7162 33.192 99.0366C33.5123 99.2768 33.192 99.9976 32.4712 100.478C31.7505 101.039 30.7094 103.361 30.1488 105.603C29.5081 107.926 28.7073 109.848 28.3069 109.848C27.9065 109.848 27.8264 110.408 28.0666 111.129C28.387 111.85 28.1467 112.971 27.6662 113.532C27.1857 114.172 26.9455 114.653 27.1857 114.653C27.426 114.653 27.2658 115.694 26.8654 116.975C26.3048 118.577 26.3048 119.858 26.7853 120.819C27.5061 122.1 27.7463 122.02 28.6272 120.018C29.1878 118.817 30.2289 117.856 31.0297 117.856C32.311 117.856 32.3911 118.016 31.35 120.018C30.7094 121.3 30.389 122.901 30.6293 123.622C30.8695 124.423 30.7094 125.064 30.309 125.064C29.8285 125.064 29.5882 125.704 29.7484 126.425C29.8285 127.226 29.5882 128.347 29.1077 128.827C28.6272 129.548 28.6272 130.269 29.2679 130.99C29.7484 131.63 30.0687 132.591 29.9886 133.152C29.5081 135.314 32.4712 134.674 35.3542 131.951C37.6766 129.708 38.2372 128.667 37.9969 127.066C37.7567 126.025 37.9169 125.304 38.3173 125.544C39.4384 126.265 42.3214 122.501 41.921 120.899C41.6808 120.098 41.8409 119.458 42.3214 119.458C42.7218 119.458 42.882 118.817 42.5617 117.936C42.3214 116.975 42.5617 116.254 43.3625 115.934C44.3235 115.614 44.4837 115.133 43.7629 113.932C43.2824 112.891 43.2824 112.17 43.7629 111.85C44.1633 111.61 44.3235 110.889 44.0032 110.168C43.7629 109.447 44.0032 109.047 44.5637 109.207C45.765 109.447 47.0463 105.363 47.1264 101.199C47.2065 99.8374 47.6069 98.6362 48.0073 98.6362C48.4077 98.6362 48.5679 97.9154 48.3277 97.0345C48.0874 96.2337 48.1675 95.4328 48.5679 95.2727C49.5289 94.8723 50.2496 90.6279 49.3687 90.6279C48.9683 90.6279 48.5679 90.2274 48.5679 89.827C48.5679 89.3465 49.2086 89.0262 50.0094 89.0262C51.0505 89.0262 51.1306 88.866 50.2496 88.3055C49.3687 87.7449 49.3687 87.5847 50.2496 87.1843C51.2106 86.7839 51.2106 86.6237 50.3297 85.983C49.4488 85.4225 49.5289 85.1021 50.6501 84.7017C51.7712 84.3013 51.8513 83.981 51.1306 83.5005C50.3297 83.02 50.6501 82.5395 52.1716 81.4984C53.8534 80.3772 54.0936 79.8967 53.2928 78.5353C52.8123 77.6544 52.7322 76.293 53.0525 75.5723C53.3729 74.8515 53.6932 73.6503 53.7733 73.0096C54.0936 70.1266 55.1347 68.2847 56.6563 67.8042C57.6173 67.4839 58.1779 66.603 58.1779 65.4017C58.1779 64.3606 59.0588 61.8781 60.0999 59.876C61.221 57.7938 61.8617 56.1922 61.7015 56.1922C61.5414 56.1922 61.8617 54.9909 62.5023 53.4693C63.3833 51.3872 63.3833 50.5863 62.7426 50.3461C62.1019 50.1058 62.2621 49.4652 63.2231 48.4241C64.0239 47.4631 64.7447 46.0216 64.8248 45.0606C64.9048 44.1797 65.3853 43.3789 65.9459 43.3789C66.5866 43.3789 66.987 42.4179 66.987 41.1365C66.987 39.8552 67.2272 38.5739 67.6277 38.2536C67.948 37.9332 68.2683 37.3726 68.2683 37.1324C68.7488 34.9701 69.7098 32.9681 70.2704 32.9681C70.6708 32.9681 70.9911 32.0872 70.9911 30.966C70.9911 29.7648 71.5517 27.7627 72.2725 26.4813C72.9131 25.1199 73.3136 23.8386 73.0733 23.5984C72.8331 23.3581 73.5538 21.8365 74.5949 20.1548C75.636 18.473 76.3567 16.9515 76.1165 16.7112C75.8762 16.471 76.2766 15.3498 77.0775 14.1486C78.2787 12.3067 78.2787 11.9062 77.3177 11.2656C76.677 10.8652 75.716 10.5448 75.2356 10.5448C73.7941 10.5448 73.9542 8.38258 75.4758 7.822C76.1965 7.50167 76.5169 7.66183 76.1165 8.22241C75.7961 8.783 76.0364 9.02325 76.677 8.783C78.2787 8.22242 78.599 5.73984 77.0775 5.73984C76.3567 5.73984 75.7961 5.17926 75.7961 4.5386C75.7961 3.89793 75.4758 3.33735 74.9953 3.33735C74.5949 3.33735 74.1945 3.73776 74.1945 4.21826C74.1945 4.69876 73.3936 4.93901 72.4326 4.77884C71.0712 4.61868 70.6708 4.0581 70.7509 2.77677C70.831 1.89586 70.5107 0.69461 69.87 0.214112C69.0692 -0.426552 68.1082 0.294194 65.5455 3.41743ZM74.1945 13.2676C74.1945 13.5079 73.8741 13.9083 73.3936 14.1486C72.9932 14.3888 72.5928 14.2286 72.5928 13.8282C72.5928 13.3477 72.9932 12.9473 73.3936 12.9473C73.8741 12.9473 74.1945 13.1075 74.1945 13.2676ZM54.1737 24.9598C54.8144 25.3602 55.1347 25.9208 54.8945 26.161C54.2538 26.8017 51.7712 25.7606 51.7712 24.8797C51.7712 23.9988 52.6521 23.9988 54.1737 24.9598ZM51.7712 27.3623C51.7712 27.7627 51.6111 28.1631 51.4509 28.1631C51.2106 28.1631 50.8102 27.7627 50.57 27.3623C50.3297 26.8818 50.4899 26.5614 50.8903 26.5614C51.3708 26.5614 51.7712 26.8818 51.7712 27.3623ZM49.7691 29.7648C50.4098 30.8058 49.3687 30.8058 47.7671 29.7648C46.726 29.1241 46.726 28.9639 47.9272 28.9639C48.648 28.9639 49.5289 29.2843 49.7691 29.7648ZM49.3687 33.6888C49.3687 34.0092 48.4878 34.1693 47.3667 33.9291C46.2455 33.7689 45.3646 33.4486 45.3646 33.2884C45.3646 33.1282 46.2455 32.9681 47.3667 32.9681C48.4878 32.9681 49.3687 33.2884 49.3687 33.6888ZM43.6028 34.4897C44.4036 34.9701 44.4036 35.2905 43.5227 36.0913C42.5617 36.8121 42.2413 36.6519 41.921 35.3706C41.5206 33.6888 41.921 33.3685 43.6028 34.4897ZM55.455 46.3419C54.6542 47.1428 53.9335 45.9415 54.6542 44.9004C55.1347 44.0195 55.2949 44.0195 55.6152 44.9004C55.7754 45.461 55.6953 46.1017 55.455 46.3419ZM30.5492 45.7814C30.7895 46.1818 30.4691 46.5822 29.8285 46.5822C29.1878 46.5822 28.387 46.1818 28.1467 45.7814C27.9065 45.3009 28.2268 44.9805 28.8675 44.9805C29.5081 44.9805 30.309 45.3009 30.5492 45.7814ZM18.6969 55.071C18.4567 55.3112 17.7359 55.3913 17.1753 55.1511C16.5347 54.9108 16.7749 54.6706 17.6558 54.6706C18.5368 54.5905 19.0173 54.8307 18.6969 55.071ZM52.4119 58.7548C52.0115 60.0361 48.5679 60.6768 48.5679 59.5556C48.5679 58.6747 49.9293 57.954 51.6111 57.8739C52.2517 57.7938 52.5721 58.2743 52.4119 58.7548ZM14.933 60.0361C14.933 61.1573 14.0521 61.7179 12.8509 61.2374C11.1691 60.5967 11.4895 59.3955 13.3314 59.3955C14.2123 59.3955 14.933 59.7158 14.933 60.0361ZM49.3687 67.8042C49.3687 68.4449 48.9683 69.0054 48.4878 69.0054C48.0073 69.0054 47.1264 68.4449 46.4857 67.8042C45.3646 66.7631 45.4447 66.603 47.2866 66.603C48.5679 66.603 49.3687 67.0835 49.3687 67.8042ZM45.765 75.4121C46.0052 75.8125 45.6849 76.2129 44.9642 76.2129C44.2434 76.2129 43.9231 75.8125 44.1633 75.4121C44.4036 74.9316 44.804 74.6113 44.9642 74.6113C45.1243 74.6113 45.5247 74.9316 45.765 75.4121Z" fill="#0841D1" fill-opacity="0.95"/>
</svg>
