<svg width="130" height="5" viewBox="0 0 130 5" fill="none" xmlns="http://www.w3.org/2000/svg">
<path fill-rule="evenodd" clip-rule="evenodd" d="M88.0984 0.295203C87.0234 0.281182 86.1568 0.269879 85.6545 0.265957C85.4519 0.265367 85.2588 0.282974 85.0845 0.298869C84.941 0.31195 84.8103 0.323872 84.6973 0.323544C80.5621 0.215912 76.1877 0.217603 71.811 0.219296C69.4763 0.220199 67.1409 0.221102 64.8408 0.205411C63.6092 0.195743 62.376 0.237602 61.1423 0.279475C60.6348 0.296703 60.1271 0.313934 59.6195 0.327579C58.4867 0.237412 57.3628 0.305183 56.2428 0.372719C55.7121 0.40472 55.1823 0.436668 54.6528 0.451735C50.2036 0.578823 45.7453 0.560244 41.2881 0.541669C39.7064 0.535078 38.125 0.528488 36.5441 0.528406C33.6506 0.530134 30.7569 0.528133 27.8632 0.526132C20.9175 0.521329 13.9713 0.516525 7.02633 0.563284C6.52618 0.566133 6.02703 0.538377 5.52933 0.510702C4.03249 0.427469 2.54875 0.344964 1.09042 1.09791C1.07732 1.10218 1.05766 1.11075 1.03799 1.11932C1.01833 1.1279 0.998663 1.13647 0.985561 1.14074C0.554003 1.31373 0.514111 1.58567 0.474175 1.85792C0.454818 1.98987 0.435451 2.1219 0.371472 2.24277C-0.520632 3.91314 0.178904 4.4412 2.82387 4.20744C3.30891 4.16529 3.81843 4.21489 4.31797 4.26353C4.41178 4.27266 4.50523 4.28176 4.59811 4.29021C5.70616 4.39874 7.43145 4.42905 8.77696 4.45269C9.08414 4.45809 9.37153 4.46314 9.62726 4.46869C10.4599 4.48408 11.3345 4.42591 12.1906 4.36896C13.0422 4.31232 13.8755 4.25689 14.6313 4.27629C17.1516 4.34436 19.6713 4.4481 22.1909 4.55183C26.1097 4.71316 30.0282 4.87449 33.9481 4.90164C38.2114 4.92882 42.4749 4.84339 46.739 4.75796C49.9378 4.69386 53.137 4.62976 56.3366 4.61319C60.5312 4.58898 64.7255 4.61042 68.9199 4.63185C72.6728 4.65102 76.4257 4.6702 80.1787 4.65668C83.0416 4.64548 85.9041 4.66406 88.7667 4.68264C94.7527 4.72149 100.739 4.76035 106.732 4.52694C111.201 4.3491 115.701 4.51391 120.197 4.67857C121.796 4.73713 123.395 4.79567 124.991 4.83877C127.504 4.90645 129.148 4.03163 129.204 2.50542C129.254 1.14113 127.136 1.03295 125.679 0.958557C125.571 0.953019 125.466 0.947669 125.366 0.942001C116.143 0.423629 106.893 0.379476 97.6451 0.378445C94.7888 0.382462 90.7903 0.330311 88.0984 0.295203Z" fill="#FE833D" fill-opacity="0.3"/>
</svg>
