<svg width="677" height="678" viewBox="0 0 677 678" fill="none" xmlns="http://www.w3.org/2000/svg">
<path d="M36.5556 1H1V36.6111H36.5556V1Z" stroke="#FE833D" stroke-opacity="0.06" stroke-width="0.630746"/>
<path d="M72.1112 1H36.5557V36.6111H72.1112V1Z" stroke="#FE833D" stroke-opacity="0.06" stroke-width="0.630746"/>
<path d="M107.667 1H72.1113V36.6111H107.667V1Z" stroke="#FE833D" stroke-opacity="0.06" stroke-width="0.630746"/>
<path d="M143.223 1H107.667V36.6111H143.223V1Z" stroke="#FE833D" stroke-opacity="0.06" stroke-width="0.630746"/>
<path d="M178.778 1H143.223V36.6111H178.778V1Z" stroke="#FE833D" stroke-opacity="0.06" stroke-width="0.630746"/>
<path d="M214.333 1H178.777V36.6111H214.333V1Z" stroke="#FE833D" stroke-opacity="0.06" stroke-width="0.630746"/>
<path d="M249.889 1H214.333V36.6111H249.889V1Z" stroke="#FE833D" stroke-opacity="0.06" stroke-width="0.630746"/>
<path d="M285.444 1H249.889V36.6111H285.444V1Z" stroke="#FE833D" stroke-opacity="0.06" stroke-width="0.630746"/>
<path d="M321 1H285.444V36.6111H321V1Z" stroke="#FE833D" stroke-opacity="0.06" stroke-width="0.630746"/>
<path d="M356.556 1H321V36.6111H356.556V1Z" stroke="#FE833D" stroke-opacity="0.06" stroke-width="0.630746"/>
<path d="M392.111 1H356.556V36.6111H392.111V1Z" stroke="#FE833D" stroke-opacity="0.06" stroke-width="0.630746"/>
<path d="M427.667 1H392.111V36.6111H427.667V1Z" stroke="#FE833D" stroke-opacity="0.06" stroke-width="0.630746"/>
<path d="M463.223 1H427.667V36.6111H463.223V1Z" stroke="#FE833D" stroke-opacity="0.06" stroke-width="0.630746"/>
<path d="M498.778 1H463.223V36.6111H498.778V1Z" stroke="#FE833D" stroke-opacity="0.06" stroke-width="0.630746"/>
<path d="M534.334 1H498.778V36.6111H534.334V1Z" stroke="#FE833D" stroke-opacity="0.06" stroke-width="0.630746"/>
<path d="M569.889 1H534.333V36.6111H569.889V1Z" stroke="#FE833D" stroke-opacity="0.06" stroke-width="0.630746"/>
<path d="M605.444 1H569.889V36.6111H605.444V1Z" stroke="#FE833D" stroke-opacity="0.06" stroke-width="0.630746"/>
<path d="M641 1H605.444V36.6111H641V1Z" stroke="#FE833D" stroke-opacity="0.06" stroke-width="0.630746"/>
<path d="M676.556 1H641V36.6111H676.556V1Z" stroke="#FE833D" stroke-opacity="0.06" stroke-width="0.630746"/>
<path d="M36.5556 36.6113H1V72.2224H36.5556V36.6113Z" stroke="#FE833D" stroke-opacity="0.06" stroke-width="0.630746"/>
<path d="M72.1112 36.6113H36.5557V72.2224H72.1112V36.6113Z" stroke="#FE833D" stroke-opacity="0.06" stroke-width="0.630746"/>
<path d="M107.667 36.6113H72.1113V72.2224H107.667V36.6113Z" stroke="#FE833D" stroke-opacity="0.06" stroke-width="0.630746"/>
<path d="M143.223 36.6113H107.667V72.2224H143.223V36.6113Z" stroke="#FE833D" stroke-opacity="0.06" stroke-width="0.630746"/>
<path d="M178.778 36.6113H143.223V72.2224H178.778V36.6113Z" stroke="#FE833D" stroke-opacity="0.06" stroke-width="0.630746"/>
<path d="M214.333 36.6113H178.777V72.2224H214.333V36.6113Z" stroke="#FE833D" stroke-opacity="0.06" stroke-width="0.630746"/>
<path d="M249.889 36.6113H214.333V72.2224H249.889V36.6113Z" stroke="#FE833D" stroke-opacity="0.06" stroke-width="0.630746"/>
<path d="M285.444 36.6113H249.889V72.2224H285.444V36.6113Z" stroke="#FE833D" stroke-opacity="0.06" stroke-width="0.630746"/>
<path d="M321 36.6113H285.444V72.2224H321V36.6113Z" stroke="#FE833D" stroke-opacity="0.06" stroke-width="0.630746"/>
<path d="M356.556 36.6113H321V72.2224H356.556V36.6113Z" stroke="#FE833D" stroke-opacity="0.06" stroke-width="0.630746"/>
<path d="M392.111 36.6113H356.556V72.2224H392.111V36.6113Z" stroke="#FE833D" stroke-opacity="0.06" stroke-width="0.630746"/>
<path d="M427.667 36.6113H392.111V72.2224H427.667V36.6113Z" stroke="#FE833D" stroke-opacity="0.06" stroke-width="0.630746"/>
<path d="M463.223 36.6113H427.667V72.2224H463.223V36.6113Z" stroke="#FE833D" stroke-opacity="0.06" stroke-width="0.630746"/>
<path d="M498.778 36.6113H463.223V72.2224H498.778V36.6113Z" stroke="#FE833D" stroke-opacity="0.06" stroke-width="0.630746"/>
<path d="M534.334 36.6113H498.778V72.2224H534.334V36.6113Z" stroke="#FE833D" stroke-opacity="0.06" stroke-width="0.630746"/>
<path d="M569.889 36.6113H534.333V72.2224H569.889V36.6113Z" stroke="#FE833D" stroke-opacity="0.06" stroke-width="0.630746"/>
<path d="M605.444 36.6113H569.889V72.2224H605.444V36.6113Z" stroke="#FE833D" stroke-opacity="0.06" stroke-width="0.630746"/>
<path d="M641 36.6113H605.444V72.2224H641V36.6113Z" stroke="#FE833D" stroke-opacity="0.06" stroke-width="0.630746"/>
<path d="M676.556 36.6113H641V72.2224H676.556V36.6113Z" stroke="#FE833D" stroke-opacity="0.06" stroke-width="0.630746"/>
<path d="M36.5556 72.2227H1V107.834H36.5556V72.2227Z" stroke="#FE833D" stroke-opacity="0.06" stroke-width="0.630746"/>
<path d="M72.1112 72.2227H36.5557V107.834H72.1112V72.2227Z" stroke="#FE833D" stroke-opacity="0.06" stroke-width="0.630746"/>
<path d="M107.667 72.2227H72.1113V107.834H107.667V72.2227Z" stroke="#FE833D" stroke-opacity="0.06" stroke-width="0.630746"/>
<path d="M143.223 72.2227H107.667V107.834H143.223V72.2227Z" stroke="#FE833D" stroke-opacity="0.06" stroke-width="0.630746"/>
<path d="M178.778 72.2227H143.223V107.834H178.778V72.2227Z" stroke="#FE833D" stroke-opacity="0.06" stroke-width="0.630746"/>
<path d="M214.333 72.2227H178.777V107.834H214.333V72.2227Z" stroke="#FE833D" stroke-opacity="0.06" stroke-width="0.630746"/>
<path d="M249.889 72.2227H214.333V107.834H249.889V72.2227Z" stroke="#FE833D" stroke-opacity="0.06" stroke-width="0.630746"/>
<path d="M285.444 72.2227H249.889V107.834H285.444V72.2227Z" stroke="#FE833D" stroke-opacity="0.06" stroke-width="0.630746"/>
<path d="M321 72.2227H285.444V107.834H321V72.2227Z" stroke="#FE833D" stroke-opacity="0.06" stroke-width="0.630746"/>
<path d="M356.556 72.2227H321V107.834H356.556V72.2227Z" stroke="#FE833D" stroke-opacity="0.06" stroke-width="0.630746"/>
<path d="M392.111 72.2227H356.556V107.834H392.111V72.2227Z" stroke="#FE833D" stroke-opacity="0.06" stroke-width="0.630746"/>
<path d="M427.667 72.2227H392.111V107.834H427.667V72.2227Z" stroke="#FE833D" stroke-opacity="0.06" stroke-width="0.630746"/>
<path d="M463.223 72.2227H427.667V107.834H463.223V72.2227Z" stroke="#FE833D" stroke-opacity="0.06" stroke-width="0.630746"/>
<path d="M498.778 72.2227H463.223V107.834H498.778V72.2227Z" stroke="#FE833D" stroke-opacity="0.06" stroke-width="0.630746"/>
<path d="M534.334 72.2227H498.778V107.834H534.334V72.2227Z" stroke="#FE833D" stroke-opacity="0.06" stroke-width="0.630746"/>
<path d="M569.889 72.2227H534.333V107.834H569.889V72.2227Z" stroke="#FE833D" stroke-opacity="0.06" stroke-width="0.630746"/>
<path d="M605.444 72.2227H569.889V107.834H605.444V72.2227Z" stroke="#FE833D" stroke-opacity="0.06" stroke-width="0.630746"/>
<path d="M641 72.2227H605.444V107.834H641V72.2227Z" stroke="#FE833D" stroke-opacity="0.06" stroke-width="0.630746"/>
<path d="M676.556 72.2227H641V107.834H676.556V72.2227Z" stroke="#FE833D" stroke-opacity="0.06" stroke-width="0.630746"/>
<path d="M36.5556 107.833H1V143.444H36.5556V107.833Z" stroke="#FE833D" stroke-opacity="0.06" stroke-width="0.630746"/>
<path d="M72.1112 107.833H36.5557V143.444H72.1112V107.833Z" stroke="#FE833D" stroke-opacity="0.06" stroke-width="0.630746"/>
<path d="M107.667 107.833H72.1113V143.444H107.667V107.833Z" stroke="#FE833D" stroke-opacity="0.06" stroke-width="0.630746"/>
<path d="M143.223 107.833H107.667V143.444H143.223V107.833Z" stroke="#FE833D" stroke-opacity="0.06" stroke-width="0.630746"/>
<path d="M178.778 107.833H143.223V143.444H178.778V107.833Z" stroke="#FE833D" stroke-opacity="0.06" stroke-width="0.630746"/>
<path d="M214.333 107.833H178.777V143.444H214.333V107.833Z" stroke="#FE833D" stroke-opacity="0.06" stroke-width="0.630746"/>
<path d="M249.889 107.833H214.333V143.444H249.889V107.833Z" stroke="#FE833D" stroke-opacity="0.06" stroke-width="0.630746"/>
<path d="M285.444 107.833H249.889V143.444H285.444V107.833Z" stroke="#FE833D" stroke-opacity="0.06" stroke-width="0.630746"/>
<path d="M321 107.833H285.444V143.444H321V107.833Z" stroke="#FE833D" stroke-opacity="0.06" stroke-width="0.630746"/>
<path d="M356.556 107.833H321V143.444H356.556V107.833Z" stroke="#FE833D" stroke-opacity="0.06" stroke-width="0.630746"/>
<path d="M392.111 107.833H356.556V143.444H392.111V107.833Z" stroke="#FE833D" stroke-opacity="0.06" stroke-width="0.630746"/>
<path d="M427.667 107.833H392.111V143.444H427.667V107.833Z" stroke="#FE833D" stroke-opacity="0.06" stroke-width="0.630746"/>
<path d="M463.223 107.833H427.667V143.444H463.223V107.833Z" stroke="#FE833D" stroke-opacity="0.06" stroke-width="0.630746"/>
<path d="M498.778 107.833H463.223V143.444H498.778V107.833Z" stroke="#FE833D" stroke-opacity="0.06" stroke-width="0.630746"/>
<path d="M534.334 107.833H498.778V143.444H534.334V107.833Z" stroke="#FE833D" stroke-opacity="0.06" stroke-width="0.630746"/>
<path d="M569.889 107.833H534.333V143.444H569.889V107.833Z" stroke="#FE833D" stroke-opacity="0.06" stroke-width="0.630746"/>
<path d="M605.444 107.833H569.889V143.444H605.444V107.833Z" stroke="#FE833D" stroke-opacity="0.06" stroke-width="0.630746"/>
<path d="M641 107.833H605.444V143.444H641V107.833Z" stroke="#FE833D" stroke-opacity="0.06" stroke-width="0.630746"/>
<path d="M676.556 107.833H641V143.444H676.556V107.833Z" stroke="#FE833D" stroke-opacity="0.06" stroke-width="0.630746"/>
<path d="M36.5556 143.444H1V179.055H36.5556V143.444Z" stroke="#FE833D" stroke-opacity="0.06" stroke-width="0.630746"/>
<path d="M72.1112 143.444H36.5557V179.055H72.1112V143.444Z" stroke="#FE833D" stroke-opacity="0.06" stroke-width="0.630746"/>
<path d="M107.667 143.444H72.1113V179.055H107.667V143.444Z" stroke="#FE833D" stroke-opacity="0.06" stroke-width="0.630746"/>
<path d="M143.223 143.444H107.667V179.055H143.223V143.444Z" stroke="#FE833D" stroke-opacity="0.06" stroke-width="0.630746"/>
<path d="M178.778 143.444H143.223V179.055H178.778V143.444Z" stroke="#FE833D" stroke-opacity="0.06" stroke-width="0.630746"/>
<path d="M214.333 143.444H178.777V179.055H214.333V143.444Z" stroke="#FE833D" stroke-opacity="0.06" stroke-width="0.630746"/>
<path d="M249.889 143.444H214.333V179.055H249.889V143.444Z" stroke="#FE833D" stroke-opacity="0.06" stroke-width="0.630746"/>
<path d="M285.444 143.444H249.889V179.055H285.444V143.444Z" stroke="#FE833D" stroke-opacity="0.06" stroke-width="0.630746"/>
<path d="M321 143.444H285.444V179.055H321V143.444Z" stroke="#FE833D" stroke-opacity="0.06" stroke-width="0.630746"/>
<path d="M356.556 143.444H321V179.055H356.556V143.444Z" stroke="#FE833D" stroke-opacity="0.06" stroke-width="0.630746"/>
<path d="M392.111 143.444H356.556V179.055H392.111V143.444Z" stroke="#FE833D" stroke-opacity="0.06" stroke-width="0.630746"/>
<path d="M427.667 143.444H392.111V179.055H427.667V143.444Z" stroke="#FE833D" stroke-opacity="0.06" stroke-width="0.630746"/>
<path d="M463.223 143.444H427.667V179.055H463.223V143.444Z" stroke="#FE833D" stroke-opacity="0.06" stroke-width="0.630746"/>
<path d="M498.778 143.444H463.223V179.055H498.778V143.444Z" stroke="#FE833D" stroke-opacity="0.06" stroke-width="0.630746"/>
<path d="M534.334 143.444H498.778V179.055H534.334V143.444Z" stroke="#FE833D" stroke-opacity="0.06" stroke-width="0.630746"/>
<path d="M569.889 143.444H534.333V179.055H569.889V143.444Z" stroke="#FE833D" stroke-opacity="0.06" stroke-width="0.630746"/>
<path d="M605.444 143.444H569.889V179.055H605.444V143.444Z" stroke="#FE833D" stroke-opacity="0.06" stroke-width="0.630746"/>
<path d="M641 143.444H605.444V179.055H641V143.444Z" stroke="#FE833D" stroke-opacity="0.06" stroke-width="0.630746"/>
<path d="M676.556 143.444H641V179.055H676.556V143.444Z" stroke="#FE833D" stroke-opacity="0.06" stroke-width="0.630746"/>
<path d="M36.5556 179.056H1V214.667H36.5556V179.056Z" stroke="#FE833D" stroke-opacity="0.06" stroke-width="0.630746"/>
<path d="M72.1112 179.056H36.5557V214.667H72.1112V179.056Z" stroke="#FE833D" stroke-opacity="0.06" stroke-width="0.630746"/>
<path d="M107.667 179.056H72.1113V214.667H107.667V179.056Z" stroke="#FE833D" stroke-opacity="0.06" stroke-width="0.630746"/>
<path d="M143.223 179.056H107.667V214.667H143.223V179.056Z" stroke="#FE833D" stroke-opacity="0.06" stroke-width="0.630746"/>
<path d="M178.778 179.056H143.223V214.667H178.778V179.056Z" stroke="#FE833D" stroke-opacity="0.06" stroke-width="0.630746"/>
<path d="M214.333 179.056H178.777V214.667H214.333V179.056Z" stroke="#FE833D" stroke-opacity="0.06" stroke-width="0.630746"/>
<path d="M249.889 179.056H214.333V214.667H249.889V179.056Z" stroke="#FE833D" stroke-opacity="0.06" stroke-width="0.630746"/>
<path d="M285.444 179.056H249.889V214.667H285.444V179.056Z" stroke="#FE833D" stroke-opacity="0.06" stroke-width="0.630746"/>
<path d="M321 179.056H285.444V214.667H321V179.056Z" stroke="#FE833D" stroke-opacity="0.06" stroke-width="0.630746"/>
<path d="M356.556 179.056H321V214.667H356.556V179.056Z" stroke="#FE833D" stroke-opacity="0.06" stroke-width="0.630746"/>
<path d="M392.111 179.056H356.556V214.667H392.111V179.056Z" stroke="#FE833D" stroke-opacity="0.06" stroke-width="0.630746"/>
<path d="M427.667 179.056H392.111V214.667H427.667V179.056Z" stroke="#FE833D" stroke-opacity="0.06" stroke-width="0.630746"/>
<path d="M463.223 179.056H427.667V214.667H463.223V179.056Z" stroke="#FE833D" stroke-opacity="0.06" stroke-width="0.630746"/>
<path d="M498.778 179.056H463.223V214.667H498.778V179.056Z" stroke="#FE833D" stroke-opacity="0.06" stroke-width="0.630746"/>
<path d="M534.334 179.056H498.778V214.667H534.334V179.056Z" stroke="#FE833D" stroke-opacity="0.06" stroke-width="0.630746"/>
<path d="M569.889 179.056H534.333V214.667H569.889V179.056Z" stroke="#FE833D" stroke-opacity="0.06" stroke-width="0.630746"/>
<path d="M605.444 179.056H569.889V214.667H605.444V179.056Z" stroke="#FE833D" stroke-opacity="0.06" stroke-width="0.630746"/>
<path d="M641 179.056H605.444V214.667H641V179.056Z" stroke="#FE833D" stroke-opacity="0.06" stroke-width="0.630746"/>
<path d="M676.556 179.056H641V214.667H676.556V179.056Z" stroke="#FE833D" stroke-opacity="0.06" stroke-width="0.630746"/>
<path d="M36.5556 214.667H1V250.278H36.5556V214.667Z" stroke="#FE833D" stroke-opacity="0.06" stroke-width="0.630746"/>
<path d="M72.1112 214.667H36.5557V250.278H72.1112V214.667Z" stroke="#FE833D" stroke-opacity="0.06" stroke-width="0.630746"/>
<path d="M107.667 214.667H72.1113V250.278H107.667V214.667Z" stroke="#FE833D" stroke-opacity="0.06" stroke-width="0.630746"/>
<path d="M143.223 214.667H107.667V250.278H143.223V214.667Z" stroke="#FE833D" stroke-opacity="0.06" stroke-width="0.630746"/>
<path d="M178.778 214.667H143.223V250.278H178.778V214.667Z" stroke="#FE833D" stroke-opacity="0.06" stroke-width="0.630746"/>
<path d="M214.333 214.667H178.777V250.278H214.333V214.667Z" stroke="#FE833D" stroke-opacity="0.06" stroke-width="0.630746"/>
<path d="M249.889 214.667H214.333V250.278H249.889V214.667Z" stroke="#FE833D" stroke-opacity="0.06" stroke-width="0.630746"/>
<path d="M285.444 214.667H249.889V250.278H285.444V214.667Z" stroke="#FE833D" stroke-opacity="0.06" stroke-width="0.630746"/>
<path d="M321 214.667H285.444V250.278H321V214.667Z" stroke="#FE833D" stroke-opacity="0.06" stroke-width="0.630746"/>
<path d="M356.556 214.667H321V250.278H356.556V214.667Z" stroke="#FE833D" stroke-opacity="0.06" stroke-width="0.630746"/>
<path d="M392.111 214.667H356.556V250.278H392.111V214.667Z" stroke="#FE833D" stroke-opacity="0.06" stroke-width="0.630746"/>
<path d="M427.667 214.667H392.111V250.278H427.667V214.667Z" stroke="#FE833D" stroke-opacity="0.06" stroke-width="0.630746"/>
<path d="M463.223 214.667H427.667V250.278H463.223V214.667Z" stroke="#FE833D" stroke-opacity="0.06" stroke-width="0.630746"/>
<path d="M498.778 214.667H463.223V250.278H498.778V214.667Z" stroke="#FE833D" stroke-opacity="0.06" stroke-width="0.630746"/>
<path d="M534.334 214.667H498.778V250.278H534.334V214.667Z" stroke="#FE833D" stroke-opacity="0.06" stroke-width="0.630746"/>
<path d="M569.889 214.667H534.333V250.278H569.889V214.667Z" stroke="#FE833D" stroke-opacity="0.06" stroke-width="0.630746"/>
<path d="M605.444 214.667H569.889V250.278H605.444V214.667Z" stroke="#FE833D" stroke-opacity="0.06" stroke-width="0.630746"/>
<path d="M641 214.667H605.444V250.278H641V214.667Z" stroke="#FE833D" stroke-opacity="0.06" stroke-width="0.630746"/>
<path d="M676.556 214.667H641V250.278H676.556V214.667Z" stroke="#FE833D" stroke-opacity="0.06" stroke-width="0.630746"/>
<path d="M36.5556 250.278H1V285.889H36.5556V250.278Z" stroke="#FE833D" stroke-opacity="0.06" stroke-width="0.630746"/>
<path d="M72.1112 250.278H36.5557V285.889H72.1112V250.278Z" stroke="#FE833D" stroke-opacity="0.06" stroke-width="0.630746"/>
<path d="M107.667 250.278H72.1113V285.889H107.667V250.278Z" stroke="#FE833D" stroke-opacity="0.06" stroke-width="0.630746"/>
<path d="M143.223 250.278H107.667V285.889H143.223V250.278Z" stroke="#FE833D" stroke-opacity="0.06" stroke-width="0.630746"/>
<path d="M178.778 250.278H143.223V285.889H178.778V250.278Z" stroke="#FE833D" stroke-opacity="0.06" stroke-width="0.630746"/>
<path d="M214.333 250.278H178.777V285.889H214.333V250.278Z" stroke="#FE833D" stroke-opacity="0.06" stroke-width="0.630746"/>
<path d="M249.889 250.278H214.333V285.889H249.889V250.278Z" stroke="#FE833D" stroke-opacity="0.06" stroke-width="0.630746"/>
<path d="M285.444 250.278H249.889V285.889H285.444V250.278Z" stroke="#FE833D" stroke-opacity="0.06" stroke-width="0.630746"/>
<path d="M321 250.278H285.444V285.889H321V250.278Z" stroke="#FE833D" stroke-opacity="0.06" stroke-width="0.630746"/>
<path d="M356.556 250.278H321V285.889H356.556V250.278Z" stroke="#FE833D" stroke-opacity="0.06" stroke-width="0.630746"/>
<path d="M392.111 250.278H356.556V285.889H392.111V250.278Z" stroke="#FE833D" stroke-opacity="0.06" stroke-width="0.630746"/>
<path d="M427.667 250.278H392.111V285.889H427.667V250.278Z" stroke="#FE833D" stroke-opacity="0.06" stroke-width="0.630746"/>
<path d="M463.223 250.278H427.667V285.889H463.223V250.278Z" stroke="#FE833D" stroke-opacity="0.06" stroke-width="0.630746"/>
<path d="M498.778 250.278H463.223V285.889H498.778V250.278Z" stroke="#FE833D" stroke-opacity="0.06" stroke-width="0.630746"/>
<path d="M534.334 250.278H498.778V285.889H534.334V250.278Z" stroke="#FE833D" stroke-opacity="0.06" stroke-width="0.630746"/>
<path d="M569.889 250.278H534.333V285.889H569.889V250.278Z" stroke="#FE833D" stroke-opacity="0.06" stroke-width="0.630746"/>
<path d="M605.444 250.278H569.889V285.889H605.444V250.278Z" stroke="#FE833D" stroke-opacity="0.06" stroke-width="0.630746"/>
<path d="M641 250.278H605.444V285.889H641V250.278Z" stroke="#FE833D" stroke-opacity="0.06" stroke-width="0.630746"/>
<path d="M676.556 250.278H641V285.889H676.556V250.278Z" stroke="#FE833D" stroke-opacity="0.06" stroke-width="0.630746"/>
<path d="M36.5556 285.889H1V321.5H36.5556V285.889Z" stroke="#FE833D" stroke-opacity="0.06" stroke-width="0.630746"/>
<path d="M72.1112 285.889H36.5557V321.5H72.1112V285.889Z" stroke="#FE833D" stroke-opacity="0.06" stroke-width="0.630746"/>
<path d="M107.667 285.889H72.1113V321.5H107.667V285.889Z" stroke="#FE833D" stroke-opacity="0.06" stroke-width="0.630746"/>
<path d="M143.223 285.889H107.667V321.5H143.223V285.889Z" stroke="#FE833D" stroke-opacity="0.06" stroke-width="0.630746"/>
<path d="M178.778 285.889H143.223V321.5H178.778V285.889Z" stroke="#FE833D" stroke-opacity="0.06" stroke-width="0.630746"/>
<path d="M214.333 285.889H178.777V321.5H214.333V285.889Z" stroke="#FE833D" stroke-opacity="0.06" stroke-width="0.630746"/>
<path d="M249.889 285.889H214.333V321.5H249.889V285.889Z" stroke="#FE833D" stroke-opacity="0.06" stroke-width="0.630746"/>
<path d="M285.444 285.889H249.889V321.5H285.444V285.889Z" stroke="#FE833D" stroke-opacity="0.06" stroke-width="0.630746"/>
<path d="M321 285.889H285.444V321.5H321V285.889Z" stroke="#FE833D" stroke-opacity="0.06" stroke-width="0.630746"/>
<path d="M356.556 285.889H321V321.5H356.556V285.889Z" stroke="#FE833D" stroke-opacity="0.06" stroke-width="0.630746"/>
<path d="M392.111 285.889H356.556V321.5H392.111V285.889Z" stroke="#FE833D" stroke-opacity="0.06" stroke-width="0.630746"/>
<path d="M427.667 285.889H392.111V321.5H427.667V285.889Z" stroke="#FE833D" stroke-opacity="0.06" stroke-width="0.630746"/>
<path d="M463.223 285.889H427.667V321.5H463.223V285.889Z" stroke="#FE833D" stroke-opacity="0.06" stroke-width="0.630746"/>
<path d="M498.778 285.889H463.223V321.5H498.778V285.889Z" stroke="#FE833D" stroke-opacity="0.06" stroke-width="0.630746"/>
<path d="M534.334 285.889H498.778V321.5H534.334V285.889Z" stroke="#FE833D" stroke-opacity="0.06" stroke-width="0.630746"/>
<path d="M569.889 285.889H534.333V321.5H569.889V285.889Z" stroke="#FE833D" stroke-opacity="0.06" stroke-width="0.630746"/>
<path d="M605.444 285.889H569.889V321.5H605.444V285.889Z" stroke="#FE833D" stroke-opacity="0.06" stroke-width="0.630746"/>
<path d="M641 285.889H605.444V321.5H641V285.889Z" stroke="#FE833D" stroke-opacity="0.06" stroke-width="0.630746"/>
<path d="M676.556 285.889H641V321.5H676.556V285.889Z" stroke="#FE833D" stroke-opacity="0.06" stroke-width="0.630746"/>
<path d="M36.5556 321.5H1V357.111H36.5556V321.5Z" stroke="#FE833D" stroke-opacity="0.06" stroke-width="0.630746"/>
<path d="M72.1112 321.5H36.5557V357.111H72.1112V321.5Z" stroke="#FE833D" stroke-opacity="0.06" stroke-width="0.630746"/>
<path d="M107.667 321.5H72.1113V357.111H107.667V321.5Z" stroke="#FE833D" stroke-opacity="0.06" stroke-width="0.630746"/>
<path d="M143.223 321.5H107.667V357.111H143.223V321.5Z" stroke="#FE833D" stroke-opacity="0.06" stroke-width="0.630746"/>
<path d="M178.778 321.5H143.223V357.111H178.778V321.5Z" stroke="#FE833D" stroke-opacity="0.06" stroke-width="0.630746"/>
<path d="M214.333 321.5H178.777V357.111H214.333V321.5Z" stroke="#FE833D" stroke-opacity="0.06" stroke-width="0.630746"/>
<path d="M249.889 321.5H214.333V357.111H249.889V321.5Z" stroke="#FE833D" stroke-opacity="0.06" stroke-width="0.630746"/>
<path d="M285.444 321.5H249.889V357.111H285.444V321.5Z" stroke="#FE833D" stroke-opacity="0.06" stroke-width="0.630746"/>
<path d="M321 321.5H285.444V357.111H321V321.5Z" stroke="#FE833D" stroke-opacity="0.06" stroke-width="0.630746"/>
<path d="M356.556 321.5H321V357.111H356.556V321.5Z" stroke="#FE833D" stroke-opacity="0.06" stroke-width="0.630746"/>
<path d="M392.111 321.5H356.556V357.111H392.111V321.5Z" stroke="#FE833D" stroke-opacity="0.06" stroke-width="0.630746"/>
<path d="M427.667 321.5H392.111V357.111H427.667V321.5Z" stroke="#FE833D" stroke-opacity="0.06" stroke-width="0.630746"/>
<path d="M463.223 321.5H427.667V357.111H463.223V321.5Z" stroke="#FE833D" stroke-opacity="0.06" stroke-width="0.630746"/>
<path d="M498.778 321.5H463.223V357.111H498.778V321.5Z" stroke="#FE833D" stroke-opacity="0.06" stroke-width="0.630746"/>
<path d="M534.334 321.5H498.778V357.111H534.334V321.5Z" stroke="#FE833D" stroke-opacity="0.06" stroke-width="0.630746"/>
<path d="M569.889 321.5H534.333V357.111H569.889V321.5Z" stroke="#FE833D" stroke-opacity="0.06" stroke-width="0.630746"/>
<path d="M605.444 321.5H569.889V357.111H605.444V321.5Z" stroke="#FE833D" stroke-opacity="0.06" stroke-width="0.630746"/>
<path d="M641 321.5H605.444V357.111H641V321.5Z" stroke="#FE833D" stroke-opacity="0.06" stroke-width="0.630746"/>
<path d="M676.556 321.5H641V357.111H676.556V321.5Z" stroke="#FE833D" stroke-opacity="0.06" stroke-width="0.630746"/>
<path d="M36.5556 357.111H1V392.722H36.5556V357.111Z" stroke="#FE833D" stroke-opacity="0.06" stroke-width="0.630746"/>
<path d="M72.1112 357.111H36.5557V392.722H72.1112V357.111Z" stroke="#FE833D" stroke-opacity="0.06" stroke-width="0.630746"/>
<path d="M107.667 357.111H72.1113V392.722H107.667V357.111Z" stroke="#FE833D" stroke-opacity="0.06" stroke-width="0.630746"/>
<path d="M143.223 357.111H107.667V392.722H143.223V357.111Z" stroke="#FE833D" stroke-opacity="0.06" stroke-width="0.630746"/>
<path d="M178.778 357.111H143.223V392.722H178.778V357.111Z" stroke="#FE833D" stroke-opacity="0.06" stroke-width="0.630746"/>
<path d="M214.333 357.111H178.777V392.722H214.333V357.111Z" stroke="#FE833D" stroke-opacity="0.06" stroke-width="0.630746"/>
<path d="M249.889 357.111H214.333V392.722H249.889V357.111Z" stroke="#FE833D" stroke-opacity="0.06" stroke-width="0.630746"/>
<path d="M285.444 357.111H249.889V392.722H285.444V357.111Z" stroke="#FE833D" stroke-opacity="0.06" stroke-width="0.630746"/>
<path d="M321 357.111H285.444V392.722H321V357.111Z" stroke="#FE833D" stroke-opacity="0.06" stroke-width="0.630746"/>
<path d="M356.556 357.111H321V392.722H356.556V357.111Z" stroke="#FE833D" stroke-opacity="0.06" stroke-width="0.630746"/>
<path d="M392.111 357.111H356.556V392.722H392.111V357.111Z" stroke="#FE833D" stroke-opacity="0.06" stroke-width="0.630746"/>
<path d="M427.667 357.111H392.111V392.722H427.667V357.111Z" stroke="#FE833D" stroke-opacity="0.06" stroke-width="0.630746"/>
<path d="M463.223 357.111H427.667V392.722H463.223V357.111Z" stroke="#FE833D" stroke-opacity="0.06" stroke-width="0.630746"/>
<path d="M498.778 357.111H463.223V392.722H498.778V357.111Z" stroke="#FE833D" stroke-opacity="0.06" stroke-width="0.630746"/>
<path d="M534.334 357.111H498.778V392.722H534.334V357.111Z" stroke="#FE833D" stroke-opacity="0.06" stroke-width="0.630746"/>
<path d="M569.889 357.111H534.333V392.722H569.889V357.111Z" stroke="#FE833D" stroke-opacity="0.06" stroke-width="0.630746"/>
<path d="M605.444 357.111H569.889V392.722H605.444V357.111Z" stroke="#FE833D" stroke-opacity="0.06" stroke-width="0.630746"/>
<path d="M641 357.111H605.444V392.722H641V357.111Z" stroke="#FE833D" stroke-opacity="0.06" stroke-width="0.630746"/>
<path d="M676.556 357.111H641V392.722H676.556V357.111Z" stroke="#FE833D" stroke-opacity="0.06" stroke-width="0.630746"/>
<path d="M36.5556 392.723H1V428.334H36.5556V392.723Z" stroke="#FE833D" stroke-opacity="0.06" stroke-width="0.630746"/>
<path d="M72.1112 392.723H36.5557V428.334H72.1112V392.723Z" stroke="#FE833D" stroke-opacity="0.06" stroke-width="0.630746"/>
<path d="M107.667 392.723H72.1113V428.334H107.667V392.723Z" stroke="#FE833D" stroke-opacity="0.06" stroke-width="0.630746"/>
<path d="M143.223 392.723H107.667V428.334H143.223V392.723Z" stroke="#FE833D" stroke-opacity="0.06" stroke-width="0.630746"/>
<path d="M178.778 392.723H143.223V428.334H178.778V392.723Z" stroke="#FE833D" stroke-opacity="0.06" stroke-width="0.630746"/>
<path d="M214.333 392.723H178.777V428.334H214.333V392.723Z" stroke="#FE833D" stroke-opacity="0.06" stroke-width="0.630746"/>
<path d="M249.889 392.723H214.333V428.334H249.889V392.723Z" stroke="#FE833D" stroke-opacity="0.06" stroke-width="0.630746"/>
<path d="M285.444 392.723H249.889V428.334H285.444V392.723Z" stroke="#FE833D" stroke-opacity="0.06" stroke-width="0.630746"/>
<path d="M321 392.723H285.444V428.334H321V392.723Z" stroke="#FE833D" stroke-opacity="0.06" stroke-width="0.630746"/>
<path d="M356.556 392.723H321V428.334H356.556V392.723Z" stroke="#FE833D" stroke-opacity="0.06" stroke-width="0.630746"/>
<path d="M392.111 392.723H356.556V428.334H392.111V392.723Z" stroke="#FE833D" stroke-opacity="0.06" stroke-width="0.630746"/>
<path d="M427.667 392.723H392.111V428.334H427.667V392.723Z" stroke="#FE833D" stroke-opacity="0.06" stroke-width="0.630746"/>
<path d="M463.223 392.723H427.667V428.334H463.223V392.723Z" stroke="#FE833D" stroke-opacity="0.06" stroke-width="0.630746"/>
<path d="M498.778 392.723H463.223V428.334H498.778V392.723Z" stroke="#FE833D" stroke-opacity="0.06" stroke-width="0.630746"/>
<path d="M534.334 392.723H498.778V428.334H534.334V392.723Z" stroke="#FE833D" stroke-opacity="0.06" stroke-width="0.630746"/>
<path d="M569.889 392.723H534.333V428.334H569.889V392.723Z" stroke="#FE833D" stroke-opacity="0.06" stroke-width="0.630746"/>
<path d="M605.444 392.723H569.889V428.334H605.444V392.723Z" stroke="#FE833D" stroke-opacity="0.06" stroke-width="0.630746"/>
<path d="M641 392.723H605.444V428.334H641V392.723Z" stroke="#FE833D" stroke-opacity="0.06" stroke-width="0.630746"/>
<path d="M676.556 392.723H641V428.334H676.556V392.723Z" stroke="#FE833D" stroke-opacity="0.06" stroke-width="0.630746"/>
<path d="M36.5556 428.333H1V463.944H36.5556V428.333Z" stroke="#FE833D" stroke-opacity="0.06" stroke-width="0.630746"/>
<path d="M72.1112 428.333H36.5557V463.944H72.1112V428.333Z" stroke="#FE833D" stroke-opacity="0.06" stroke-width="0.630746"/>
<path d="M107.667 428.333H72.1113V463.944H107.667V428.333Z" stroke="#FE833D" stroke-opacity="0.06" stroke-width="0.630746"/>
<path d="M143.223 428.333H107.667V463.944H143.223V428.333Z" stroke="#FE833D" stroke-opacity="0.06" stroke-width="0.630746"/>
<path d="M178.778 428.333H143.223V463.944H178.778V428.333Z" stroke="#FE833D" stroke-opacity="0.06" stroke-width="0.630746"/>
<path d="M214.333 428.333H178.777V463.944H214.333V428.333Z" stroke="#FE833D" stroke-opacity="0.06" stroke-width="0.630746"/>
<path d="M249.889 428.333H214.333V463.944H249.889V428.333Z" stroke="#FE833D" stroke-opacity="0.06" stroke-width="0.630746"/>
<path d="M285.444 428.333H249.889V463.944H285.444V428.333Z" stroke="#FE833D" stroke-opacity="0.06" stroke-width="0.630746"/>
<path d="M321 428.333H285.444V463.944H321V428.333Z" stroke="#FE833D" stroke-opacity="0.06" stroke-width="0.630746"/>
<path d="M356.556 428.333H321V463.944H356.556V428.333Z" stroke="#FE833D" stroke-opacity="0.06" stroke-width="0.630746"/>
<path d="M392.111 428.333H356.556V463.944H392.111V428.333Z" stroke="#FE833D" stroke-opacity="0.06" stroke-width="0.630746"/>
<path d="M427.667 428.333H392.111V463.944H427.667V428.333Z" stroke="#FE833D" stroke-opacity="0.06" stroke-width="0.630746"/>
<path d="M463.223 428.333H427.667V463.944H463.223V428.333Z" stroke="#FE833D" stroke-opacity="0.06" stroke-width="0.630746"/>
<path d="M498.778 428.333H463.223V463.944H498.778V428.333Z" stroke="#FE833D" stroke-opacity="0.06" stroke-width="0.630746"/>
<path d="M534.334 428.333H498.778V463.944H534.334V428.333Z" stroke="#FE833D" stroke-opacity="0.06" stroke-width="0.630746"/>
<path d="M569.889 428.333H534.333V463.944H569.889V428.333Z" stroke="#FE833D" stroke-opacity="0.06" stroke-width="0.630746"/>
<path d="M605.444 428.333H569.889V463.944H605.444V428.333Z" stroke="#FE833D" stroke-opacity="0.06" stroke-width="0.630746"/>
<path d="M641 428.333H605.444V463.944H641V428.333Z" stroke="#FE833D" stroke-opacity="0.06" stroke-width="0.630746"/>
<path d="M676.556 428.333H641V463.944H676.556V428.333Z" stroke="#FE833D" stroke-opacity="0.06" stroke-width="0.630746"/>
<path d="M36.5556 463.944H1V499.555H36.5556V463.944Z" stroke="#FE833D" stroke-opacity="0.06" stroke-width="0.630746"/>
<path d="M72.1112 463.944H36.5557V499.555H72.1112V463.944Z" stroke="#FE833D" stroke-opacity="0.06" stroke-width="0.630746"/>
<path d="M107.667 463.944H72.1113V499.555H107.667V463.944Z" stroke="#FE833D" stroke-opacity="0.06" stroke-width="0.630746"/>
<path d="M143.223 463.944H107.667V499.555H143.223V463.944Z" stroke="#FE833D" stroke-opacity="0.06" stroke-width="0.630746"/>
<path d="M178.778 463.944H143.223V499.555H178.778V463.944Z" stroke="#FE833D" stroke-opacity="0.06" stroke-width="0.630746"/>
<path d="M214.333 463.944H178.777V499.555H214.333V463.944Z" stroke="#FE833D" stroke-opacity="0.06" stroke-width="0.630746"/>
<path d="M249.889 463.944H214.333V499.555H249.889V463.944Z" stroke="#FE833D" stroke-opacity="0.06" stroke-width="0.630746"/>
<path d="M285.444 463.944H249.889V499.555H285.444V463.944Z" stroke="#FE833D" stroke-opacity="0.06" stroke-width="0.630746"/>
<path d="M321 463.944H285.444V499.555H321V463.944Z" stroke="#FE833D" stroke-opacity="0.06" stroke-width="0.630746"/>
<path d="M356.556 463.944H321V499.555H356.556V463.944Z" stroke="#FE833D" stroke-opacity="0.06" stroke-width="0.630746"/>
<path d="M392.111 463.944H356.556V499.555H392.111V463.944Z" stroke="#FE833D" stroke-opacity="0.06" stroke-width="0.630746"/>
<path d="M427.667 463.944H392.111V499.555H427.667V463.944Z" stroke="#FE833D" stroke-opacity="0.06" stroke-width="0.630746"/>
<path d="M463.223 463.944H427.667V499.555H463.223V463.944Z" stroke="#FE833D" stroke-opacity="0.06" stroke-width="0.630746"/>
<path d="M498.778 463.944H463.223V499.555H498.778V463.944Z" stroke="#FE833D" stroke-opacity="0.06" stroke-width="0.630746"/>
<path d="M534.334 463.944H498.778V499.555H534.334V463.944Z" stroke="#FE833D" stroke-opacity="0.06" stroke-width="0.630746"/>
<path d="M569.889 463.944H534.333V499.555H569.889V463.944Z" stroke="#FE833D" stroke-opacity="0.06" stroke-width="0.630746"/>
<path d="M605.444 463.944H569.889V499.555H605.444V463.944Z" stroke="#FE833D" stroke-opacity="0.06" stroke-width="0.630746"/>
<path d="M641 463.944H605.444V499.555H641V463.944Z" stroke="#FE833D" stroke-opacity="0.06" stroke-width="0.630746"/>
<path d="M676.556 463.944H641V499.555H676.556V463.944Z" stroke="#FE833D" stroke-opacity="0.06" stroke-width="0.630746"/>
<path d="M36.5556 499.556H1V535.167H36.5556V499.556Z" stroke="#FE833D" stroke-opacity="0.06" stroke-width="0.630746"/>
<path d="M72.1112 499.556H36.5557V535.167H72.1112V499.556Z" stroke="#FE833D" stroke-opacity="0.06" stroke-width="0.630746"/>
<path d="M107.667 499.556H72.1113V535.167H107.667V499.556Z" stroke="#FE833D" stroke-opacity="0.06" stroke-width="0.630746"/>
<path d="M143.223 499.556H107.667V535.167H143.223V499.556Z" stroke="#FE833D" stroke-opacity="0.06" stroke-width="0.630746"/>
<path d="M178.778 499.556H143.223V535.167H178.778V499.556Z" stroke="#FE833D" stroke-opacity="0.06" stroke-width="0.630746"/>
<path d="M214.333 499.556H178.777V535.167H214.333V499.556Z" stroke="#FE833D" stroke-opacity="0.06" stroke-width="0.630746"/>
<path d="M249.889 499.556H214.333V535.167H249.889V499.556Z" stroke="#FE833D" stroke-opacity="0.06" stroke-width="0.630746"/>
<path d="M285.444 499.556H249.889V535.167H285.444V499.556Z" stroke="#FE833D" stroke-opacity="0.06" stroke-width="0.630746"/>
<path d="M321 499.556H285.444V535.167H321V499.556Z" stroke="#FE833D" stroke-opacity="0.06" stroke-width="0.630746"/>
<path d="M356.556 499.556H321V535.167H356.556V499.556Z" stroke="#FE833D" stroke-opacity="0.06" stroke-width="0.630746"/>
<path d="M392.111 499.556H356.556V535.167H392.111V499.556Z" stroke="#FE833D" stroke-opacity="0.06" stroke-width="0.630746"/>
<path d="M427.667 499.556H392.111V535.167H427.667V499.556Z" stroke="#FE833D" stroke-opacity="0.06" stroke-width="0.630746"/>
<path d="M463.223 499.556H427.667V535.167H463.223V499.556Z" stroke="#FE833D" stroke-opacity="0.06" stroke-width="0.630746"/>
<path d="M498.778 499.556H463.223V535.167H498.778V499.556Z" stroke="#FE833D" stroke-opacity="0.06" stroke-width="0.630746"/>
<path d="M534.334 499.556H498.778V535.167H534.334V499.556Z" stroke="#FE833D" stroke-opacity="0.06" stroke-width="0.630746"/>
<path d="M569.889 499.556H534.333V535.167H569.889V499.556Z" stroke="#FE833D" stroke-opacity="0.06" stroke-width="0.630746"/>
<path d="M605.444 499.556H569.889V535.167H605.444V499.556Z" stroke="#FE833D" stroke-opacity="0.06" stroke-width="0.630746"/>
<path d="M641 499.556H605.444V535.167H641V499.556Z" stroke="#FE833D" stroke-opacity="0.06" stroke-width="0.630746"/>
<path d="M676.556 499.556H641V535.167H676.556V499.556Z" stroke="#FE833D" stroke-opacity="0.06" stroke-width="0.630746"/>
<path d="M36.5556 535.167H1V570.778H36.5556V535.167Z" stroke="#FE833D" stroke-opacity="0.06" stroke-width="0.630746"/>
<path d="M72.1112 535.167H36.5557V570.778H72.1112V535.167Z" stroke="#FE833D" stroke-opacity="0.06" stroke-width="0.630746"/>
<path d="M107.667 535.167H72.1113V570.778H107.667V535.167Z" stroke="#FE833D" stroke-opacity="0.06" stroke-width="0.630746"/>
<path d="M143.223 535.167H107.667V570.778H143.223V535.167Z" stroke="#FE833D" stroke-opacity="0.06" stroke-width="0.630746"/>
<path d="M178.778 535.167H143.223V570.778H178.778V535.167Z" stroke="#FE833D" stroke-opacity="0.06" stroke-width="0.630746"/>
<path d="M214.333 535.167H178.777V570.778H214.333V535.167Z" stroke="#FE833D" stroke-opacity="0.06" stroke-width="0.630746"/>
<path d="M249.889 535.167H214.333V570.778H249.889V535.167Z" stroke="#FE833D" stroke-opacity="0.06" stroke-width="0.630746"/>
<path d="M285.444 535.167H249.889V570.778H285.444V535.167Z" stroke="#FE833D" stroke-opacity="0.06" stroke-width="0.630746"/>
<path d="M321 535.167H285.444V570.778H321V535.167Z" stroke="#FE833D" stroke-opacity="0.06" stroke-width="0.630746"/>
<path d="M356.556 535.167H321V570.778H356.556V535.167Z" stroke="#FE833D" stroke-opacity="0.06" stroke-width="0.630746"/>
<path d="M392.111 535.167H356.556V570.778H392.111V535.167Z" stroke="#FE833D" stroke-opacity="0.06" stroke-width="0.630746"/>
<path d="M427.667 535.167H392.111V570.778H427.667V535.167Z" stroke="#FE833D" stroke-opacity="0.06" stroke-width="0.630746"/>
<path d="M463.223 535.167H427.667V570.778H463.223V535.167Z" stroke="#FE833D" stroke-opacity="0.06" stroke-width="0.630746"/>
<path d="M498.778 535.167H463.223V570.778H498.778V535.167Z" stroke="#FE833D" stroke-opacity="0.06" stroke-width="0.630746"/>
<path d="M534.334 535.167H498.778V570.778H534.334V535.167Z" stroke="#FE833D" stroke-opacity="0.06" stroke-width="0.630746"/>
<path d="M569.889 535.167H534.333V570.778H569.889V535.167Z" stroke="#FE833D" stroke-opacity="0.06" stroke-width="0.630746"/>
<path d="M605.444 535.167H569.889V570.778H605.444V535.167Z" stroke="#FE833D" stroke-opacity="0.06" stroke-width="0.630746"/>
<path d="M641 535.167H605.444V570.778H641V535.167Z" stroke="#FE833D" stroke-opacity="0.06" stroke-width="0.630746"/>
<path d="M676.556 535.167H641V570.778H676.556V535.167Z" stroke="#FE833D" stroke-opacity="0.06" stroke-width="0.630746"/>
<path d="M36.5556 570.777H1V606.388H36.5556V570.777Z" stroke="#FE833D" stroke-opacity="0.06" stroke-width="0.630746"/>
<path d="M72.1112 570.777H36.5557V606.388H72.1112V570.777Z" stroke="#FE833D" stroke-opacity="0.06" stroke-width="0.630746"/>
<path d="M107.667 570.777H72.1113V606.388H107.667V570.777Z" stroke="#FE833D" stroke-opacity="0.06" stroke-width="0.630746"/>
<path d="M143.223 570.777H107.667V606.388H143.223V570.777Z" stroke="#FE833D" stroke-opacity="0.06" stroke-width="0.630746"/>
<path d="M178.778 570.777H143.223V606.388H178.778V570.777Z" stroke="#FE833D" stroke-opacity="0.06" stroke-width="0.630746"/>
<path d="M214.333 570.777H178.777V606.388H214.333V570.777Z" stroke="#FE833D" stroke-opacity="0.06" stroke-width="0.630746"/>
<path d="M249.889 570.777H214.333V606.388H249.889V570.777Z" stroke="#FE833D" stroke-opacity="0.06" stroke-width="0.630746"/>
<path d="M285.444 570.777H249.889V606.388H285.444V570.777Z" stroke="#FE833D" stroke-opacity="0.06" stroke-width="0.630746"/>
<path d="M321 570.777H285.444V606.388H321V570.777Z" stroke="#FE833D" stroke-opacity="0.06" stroke-width="0.630746"/>
<path d="M356.556 570.777H321V606.388H356.556V570.777Z" stroke="#FE833D" stroke-opacity="0.06" stroke-width="0.630746"/>
<path d="M392.111 570.777H356.556V606.388H392.111V570.777Z" stroke="#FE833D" stroke-opacity="0.06" stroke-width="0.630746"/>
<path d="M427.667 570.777H392.111V606.388H427.667V570.777Z" stroke="#FE833D" stroke-opacity="0.06" stroke-width="0.630746"/>
<path d="M463.223 570.777H427.667V606.388H463.223V570.777Z" stroke="#FE833D" stroke-opacity="0.06" stroke-width="0.630746"/>
<path d="M498.778 570.777H463.223V606.388H498.778V570.777Z" stroke="#FE833D" stroke-opacity="0.06" stroke-width="0.630746"/>
<path d="M534.334 570.777H498.778V606.388H534.334V570.777Z" stroke="#FE833D" stroke-opacity="0.06" stroke-width="0.630746"/>
<path d="M569.889 570.777H534.333V606.388H569.889V570.777Z" stroke="#FE833D" stroke-opacity="0.06" stroke-width="0.630746"/>
<path d="M605.444 570.777H569.889V606.388H605.444V570.777Z" stroke="#FE833D" stroke-opacity="0.06" stroke-width="0.630746"/>
<path d="M641 570.777H605.444V606.388H641V570.777Z" stroke="#FE833D" stroke-opacity="0.06" stroke-width="0.630746"/>
<path d="M676.556 570.777H641V606.388H676.556V570.777Z" stroke="#FE833D" stroke-opacity="0.06" stroke-width="0.630746"/>
<path d="M36.5556 606.389H1V642H36.5556V606.389Z" stroke="#FE833D" stroke-opacity="0.06" stroke-width="0.630746"/>
<path d="M72.1112 606.389H36.5557V642H72.1112V606.389Z" stroke="#FE833D" stroke-opacity="0.06" stroke-width="0.630746"/>
<path d="M107.667 606.389H72.1113V642H107.667V606.389Z" stroke="#FE833D" stroke-opacity="0.06" stroke-width="0.630746"/>
<path d="M143.223 606.389H107.667V642H143.223V606.389Z" stroke="#FE833D" stroke-opacity="0.06" stroke-width="0.630746"/>
<path d="M178.778 606.389H143.223V642H178.778V606.389Z" stroke="#FE833D" stroke-opacity="0.06" stroke-width="0.630746"/>
<path d="M214.333 606.389H178.777V642H214.333V606.389Z" stroke="#FE833D" stroke-opacity="0.06" stroke-width="0.630746"/>
<path d="M249.889 606.389H214.333V642H249.889V606.389Z" stroke="#FE833D" stroke-opacity="0.06" stroke-width="0.630746"/>
<path d="M285.444 606.389H249.889V642H285.444V606.389Z" stroke="#FE833D" stroke-opacity="0.06" stroke-width="0.630746"/>
<path d="M321 606.389H285.444V642H321V606.389Z" stroke="#FE833D" stroke-opacity="0.06" stroke-width="0.630746"/>
<path d="M356.556 606.389H321V642H356.556V606.389Z" stroke="#FE833D" stroke-opacity="0.06" stroke-width="0.630746"/>
<path d="M392.111 606.389H356.556V642H392.111V606.389Z" stroke="#FE833D" stroke-opacity="0.06" stroke-width="0.630746"/>
<path d="M427.667 606.389H392.111V642H427.667V606.389Z" stroke="#FE833D" stroke-opacity="0.06" stroke-width="0.630746"/>
<path d="M463.223 606.389H427.667V642H463.223V606.389Z" stroke="#FE833D" stroke-opacity="0.06" stroke-width="0.630746"/>
<path d="M498.778 606.389H463.223V642H498.778V606.389Z" stroke="#FE833D" stroke-opacity="0.06" stroke-width="0.630746"/>
<path d="M534.334 606.389H498.778V642H534.334V606.389Z" stroke="#FE833D" stroke-opacity="0.06" stroke-width="0.630746"/>
<path d="M569.889 606.389H534.333V642H569.889V606.389Z" stroke="#FE833D" stroke-opacity="0.06" stroke-width="0.630746"/>
<path d="M605.444 606.389H569.889V642H605.444V606.389Z" stroke="#FE833D" stroke-opacity="0.06" stroke-width="0.630746"/>
<path d="M641 606.389H605.444V642H641V606.389Z" stroke="#FE833D" stroke-opacity="0.06" stroke-width="0.630746"/>
<path d="M676.556 606.389H641V642H676.556V606.389Z" stroke="#FE833D" stroke-opacity="0.06" stroke-width="0.630746"/>
<path d="M36.5556 642H1V677.611H36.5556V642Z" stroke="#FE833D" stroke-opacity="0.06" stroke-width="0.630746"/>
<path d="M72.1112 642H36.5557V677.611H72.1112V642Z" stroke="#FE833D" stroke-opacity="0.06" stroke-width="0.630746"/>
<path d="M107.667 642H72.1113V677.611H107.667V642Z" stroke="#FE833D" stroke-opacity="0.06" stroke-width="0.630746"/>
<path d="M143.223 642H107.667V677.611H143.223V642Z" stroke="#FE833D" stroke-opacity="0.06" stroke-width="0.630746"/>
<path d="M178.778 642H143.223V677.611H178.778V642Z" stroke="#FE833D" stroke-opacity="0.06" stroke-width="0.630746"/>
<path d="M214.333 642H178.777V677.611H214.333V642Z" stroke="#FE833D" stroke-opacity="0.06" stroke-width="0.630746"/>
<path d="M249.889 642H214.333V677.611H249.889V642Z" stroke="#FE833D" stroke-opacity="0.06" stroke-width="0.630746"/>
<path d="M285.444 642H249.889V677.611H285.444V642Z" stroke="#FE833D" stroke-opacity="0.06" stroke-width="0.630746"/>
<path d="M321 642H285.444V677.611H321V642Z" stroke="#FE833D" stroke-opacity="0.06" stroke-width="0.630746"/>
<path d="M356.556 642H321V677.611H356.556V642Z" stroke="#FE833D" stroke-opacity="0.06" stroke-width="0.630746"/>
<path d="M392.111 642H356.556V677.611H392.111V642Z" stroke="#FE833D" stroke-opacity="0.06" stroke-width="0.630746"/>
<path d="M427.667 642H392.111V677.611H427.667V642Z" stroke="#FE833D" stroke-opacity="0.06" stroke-width="0.630746"/>
<path d="M463.223 642H427.667V677.611H463.223V642Z" stroke="#FE833D" stroke-opacity="0.06" stroke-width="0.630746"/>
<path d="M498.778 642H463.223V677.611H498.778V642Z" stroke="#FE833D" stroke-opacity="0.06" stroke-width="0.630746"/>
<path d="M534.334 642H498.778V677.611H534.334V642Z" stroke="#FE833D" stroke-opacity="0.06" stroke-width="0.630746"/>
<path d="M569.889 642H534.333V677.611H569.889V642Z" stroke="#FE833D" stroke-opacity="0.06" stroke-width="0.630746"/>
<path d="M605.444 642H569.889V677.611H605.444V642Z" stroke="#FE833D" stroke-opacity="0.06" stroke-width="0.630746"/>
<path d="M641 642H605.444V677.611H641V642Z" stroke="#FE833D" stroke-opacity="0.06" stroke-width="0.630746"/>
<path d="M676.556 642H641V677.611H676.556V642Z" stroke="#FE833D" stroke-opacity="0.06" stroke-width="0.630746"/>
</svg>
