<svg width="116" height="134" viewBox="0 0 116 134" fill="none" xmlns="http://www.w3.org/2000/svg">
<path d="M77.1124 121.001C78.6697 121.126 84.1781 121.68 87.72 121.888C95.9129 122.396 104.102 122.993 112.202 124.559C113.469 124.805 115.637 124.972 115.387 127.967C115.127 131.086 113.551 132.786 111.333 132.51C105.965 131.84 100.599 130.71 95.1998 130.872C87.3037 131.093 79.5014 130.097 71.6566 129.683C64.6116 129.306 57.5871 128.63 50.5397 128.288C43.9211 127.959 37.2688 128.158 30.6649 127.652C24.9652 127.208 19.3188 126.024 13.6372 125.315C12.2999 125.153 10.6447 125.589 9.17739 125.435C7.96255 125.298 5.93382 125.142 4.74638 124.794C4.23327 124.653 3.70319 124.457 3.18588 124.528C0.810392 124.861 0.263332 123.743 1.28364 120.375C1.50824 119.628 1.37639 118.644 1.9794 118.154C2.00379 118.138 2.0538 118.088 2.0782 118.072C3.93791 116.126 5.6334 117.217 7.41072 117.303C16.1362 117.707 24.8498 118.322 33.5668 118.849C38.9145 119.18 44.2566 119.706 49.6208 119.683C51.0887 119.678 52.5821 119.337 54.0452 119.703L54.0194 119.701C55.5749 119.702 57.1364 119.614 58.6808 119.737C64.5325 120.192 70.6612 120.382 76.2564 121.067C76.478 121.082 76.7852 120.979 77.1124 121.001Z" fill="#FE833D" fill-opacity="0.35"/>
<path d="M16.942 86.4839C16.8994 88.2541 16.7756 94.531 16.8427 98.5543C17.012 107.868 17.3582 117.18 17.0506 126.464C16.9947 127.915 17.1544 130.386 14.1672 130.312C11.0385 130.236 9.09926 128.567 9.04657 126.032C8.86783 119.895 9.34369 113.734 8.61639 107.625C7.59306 98.6829 8.0015 89.7746 7.93263 80.8597C8.02771 72.8579 8.10523 64.8465 8.20031 56.8447C8.18248 49.3268 7.63422 41.8059 7.68704 34.2936C7.74302 27.8123 8.4531 21.3403 8.56217 14.8551C8.58367 13.3297 7.9554 11.4854 7.96131 9.81177C7.96311 8.42939 7.8542 6.12076 8.05033 4.75036C8.12939 4.15968 8.24414 3.54638 8.09318 2.96633C7.44116 0.298662 8.49421 -0.398518 11.9646 0.524218C12.7221 0.729076 13.6977 0.511648 14.2544 1.15753C14.2717 1.18551 14.324 1.23712 14.3591 1.26073C16.5415 3.23333 15.6823 5.23241 15.8306 7.25494C16.5042 17.1771 16.6296 27.0961 16.6667 37.0139C16.7047 43.0989 16.4598 49.1845 16.7455 55.2591C16.8282 56.9201 17.2467 58.5904 16.9401 60.2736L16.9405 60.2459C17.0041 62.0083 17.1737 63.7722 17.1313 65.5285C16.9844 72.1842 17.1163 79.1397 16.8141 85.5251C16.8106 85.7747 16.9473 86.1141 16.942 86.4839Z" fill="#FE833D" fill-opacity="0.35"/>
</svg>
