<svg width="463" height="461" viewBox="0 0 463 461" fill="none" xmlns="http://www.w3.org/2000/svg">
<path fill-rule="evenodd" clip-rule="evenodd" d="M18.2965 146.628C18.4239 150.429 18.5266 153.494 18.5921 155.269C18.6208 155.986 18.6892 156.667 18.751 157.281C18.8018 157.787 18.8482 158.248 18.8642 158.647C19.2327 173.276 19.8841 188.738 20.5358 204.21C20.8835 212.462 21.2312 220.718 21.5362 228.85C21.6967 233.204 21.974 237.56 22.2514 241.916C22.3655 243.709 22.4797 245.501 22.5857 247.295C22.5493 251.308 22.8691 255.274 23.1878 259.226C23.3388 261.099 23.4896 262.968 23.6021 264.839C24.5484 280.553 25.1663 296.315 25.7841 312.072C26.0033 317.664 26.2225 323.255 26.4564 328.843C26.8886 339.071 27.3125 349.3 27.7363 359.53C28.7537 384.082 29.7711 408.637 30.905 433.182C30.9855 434.95 30.9966 436.717 31.0076 438.479C31.0408 443.779 31.0736 449.032 32.9941 454.111C33.0057 454.157 33.028 454.225 33.0503 454.294C33.0726 454.363 33.095 454.431 33.1066 454.477C33.5621 455.985 34.1836 456.099 34.8059 456.213C35.1075 456.268 35.4092 456.323 35.6923 456.537C39.6059 459.522 40.6978 456.996 39.777 447.67C39.6098 445.959 39.6466 444.153 39.6828 442.382C39.6896 442.05 39.6963 441.719 39.7017 441.39C39.7834 437.462 39.5966 431.36 39.4509 426.601C39.4177 425.515 39.3866 424.499 39.3613 423.594C39.2729 420.649 39.0117 417.564 38.7561 414.543C38.5018 411.538 38.2529 408.598 38.1849 405.925C37.966 397.009 37.8278 388.091 37.6896 379.174C37.4747 365.306 37.2599 351.438 36.741 337.578C36.1715 322.506 35.3469 307.443 34.5223 292.379C33.9036 281.078 33.2849 269.775 32.7737 258.467C32.098 243.642 31.5256 228.813 30.9532 213.984C30.441 200.716 29.9289 187.448 29.3427 174.183C28.8935 164.064 28.5118 153.944 28.1301 143.823C27.3319 122.659 26.5337 101.492 25.1181 80.3315C24.054 64.5548 23.7609 48.6295 23.468 32.7188C23.3639 27.0605 23.2598 21.404 23.121 15.7567C22.9022 6.86607 20.6785 1.14577 17.2149 1.09894C14.119 1.05984 14.1877 8.55851 14.2349 13.7157C14.2384 14.0996 14.2418 14.4705 14.2438 14.8244C14.4356 47.4788 15.705 80.1827 17.0717 112.872C17.5036 122.969 17.9775 137.108 18.2965 146.628Z" fill="#B3E48A" fill-opacity="0.3"/>
<path fill-rule="evenodd" clip-rule="evenodd" d="M301.558 16.4685C297.882 16.3416 294.918 16.2392 293.201 16.1859C292.507 16.1666 291.846 16.1894 291.249 16.21C290.758 16.2269 290.31 16.2423 289.924 16.2316C275.786 15.6216 260.824 15.2381 245.855 14.8543C237.87 14.6497 229.882 14.4449 222.016 14.2057C217.804 14.0747 213.584 14.0604 209.362 14.046C207.625 14.0401 205.888 14.0342 204.151 14.0201C200.282 13.7155 196.434 13.7696 192.6 13.8234C190.783 13.8489 188.969 13.8743 187.157 13.8616C171.933 13.7555 156.686 13.3187 141.442 12.8819C136.033 12.7269 130.624 12.572 125.217 12.4318C115.321 12.1795 105.424 11.9187 95.5266 11.658C71.7711 11.0321 48.0136 10.4061 24.2578 9.89707C22.547 9.85923 20.8413 9.75216 19.1405 9.64539C14.0253 9.32428 8.95498 9.00599 3.92722 10.5826C3.88217 10.5912 3.81446 10.6088 3.74675 10.6265C3.67904 10.6442 3.61133 10.6619 3.56629 10.6704C2.08108 11.0241 1.93021 11.6366 1.77917 12.2499C1.70597 12.5471 1.63272 12.8445 1.40749 13.1126C-1.73236 16.8178 0.632201 18.0761 9.69099 17.7807C11.3522 17.7282 13.0922 17.8857 14.7982 18.0401C15.1186 18.0691 15.4377 18.098 15.7549 18.1253C19.539 18.4693 25.4383 18.6908 30.0391 18.8635C31.0894 18.9029 32.072 18.9398 32.9463 18.975C35.7934 19.0836 38.7876 19.0292 41.7187 18.976C44.6344 18.9231 47.4877 18.8713 50.0715 18.9822C58.6878 19.3596 67.3004 19.8177 75.9126 20.2758C89.3071 20.9883 102.701 21.7008 116.107 22.1094C130.686 22.5485 145.273 22.7325 159.862 22.9165C170.806 23.0546 181.752 23.1926 192.696 23.4384C207.043 23.755 221.388 24.1749 235.733 24.5949C248.567 24.9706 261.402 25.3464 274.239 25.6481C284.031 25.8762 293.821 26.1718 303.611 26.4674C324.082 27.0854 344.556 27.7036 365.066 27.7055C380.357 27.6982 395.741 28.4701 411.111 29.2413C416.577 29.5155 422.041 29.7897 427.499 30.0287C436.091 30.4046 441.758 28.5682 442.033 25.1156C442.276 22.0293 435.037 21.5966 430.058 21.2991C429.688 21.2769 429.33 21.2555 428.988 21.2338C397.471 19.2428 365.835 18.3237 334.205 17.5025C324.436 17.2586 310.763 16.7864 301.558 16.4685Z" fill="#B3E48A" fill-opacity="0.3"/>
<path fill-rule="evenodd" clip-rule="evenodd" d="M321.343 445.14C317.665 445.169 314.7 445.192 312.982 445.212C312.288 445.222 311.628 445.273 311.033 445.319C310.543 445.356 310.096 445.391 309.71 445.397C295.559 445.386 280.594 445.637 265.622 445.888C257.635 446.022 249.646 446.156 241.777 446.251C237.563 446.298 233.346 446.463 229.128 446.627C227.392 446.695 225.656 446.763 223.92 446.822C220.041 446.682 216.2 446.899 212.371 447.116C210.557 447.218 208.746 447.32 206.935 447.384C191.72 447.924 176.468 448.133 161.219 448.343C155.809 448.418 150.398 448.492 144.99 448.581C135.092 448.749 125.193 448.907 115.293 449.066C91.5327 449.448 67.77 449.829 44.0139 450.328C42.3031 450.363 40.5943 450.328 38.8906 450.293C33.7664 450.189 28.6871 450.086 23.7307 451.874C23.686 451.885 23.6191 451.905 23.5522 451.926C23.4853 451.946 23.4184 451.967 23.3738 451.977C21.9049 452.394 21.7802 453.012 21.6552 453.631C21.5947 453.931 21.5341 454.231 21.3205 454.509C18.3405 458.344 20.7562 459.501 29.7944 458.822C31.4519 458.699 33.197 458.782 34.908 458.864C35.2293 458.88 35.5494 458.895 35.8675 458.909C39.6627 459.092 45.5661 459.064 50.17 459.041C51.2211 459.036 52.2044 459.031 53.0794 459.029C55.9286 459.017 58.9178 458.836 61.844 458.659C64.7548 458.482 67.6033 458.309 70.1895 458.311C78.8141 458.323 87.4383 458.415 96.0622 458.508C109.475 458.652 122.887 458.796 136.298 458.636C150.883 458.457 165.464 458.023 180.048 457.588C190.988 457.262 201.93 456.936 212.874 456.718C227.223 456.426 241.572 456.238 255.922 456.049C268.761 455.881 281.6 455.712 294.438 455.469C304.231 455.282 314.024 455.163 323.818 455.043C344.297 454.793 364.779 454.543 385.27 453.675C400.548 453.02 415.951 453.139 431.34 453.258C436.812 453.3 442.283 453.343 447.746 453.35C456.346 453.362 461.93 451.287 462.059 447.826C462.171 444.732 454.92 444.606 449.933 444.52C449.562 444.514 449.203 444.507 448.861 444.5C417.288 443.847 385.641 444.269 354.005 444.789C344.234 444.96 330.553 445.068 321.343 445.14Z" fill="#B3E48A" fill-opacity="0.3"/>
<path fill-rule="evenodd" clip-rule="evenodd" d="M433.712 150.983C433.834 154.659 433.933 157.623 433.996 159.34C434.024 160.033 434.092 160.691 434.153 161.286C434.203 161.775 434.248 162.22 434.264 162.606C434.613 176.753 435.244 191.706 435.875 206.667C436.212 214.648 436.549 222.631 436.843 230.495C436.998 234.706 437.27 238.918 437.541 243.131C437.653 244.864 437.765 246.598 437.869 248.332C437.827 252.213 438.141 256.048 438.455 259.87C438.603 261.681 438.752 263.489 438.862 265.297C439.787 280.493 440.384 295.735 440.981 310.974C441.193 316.381 441.405 321.788 441.632 327.192C442.05 337.083 442.461 346.974 442.871 356.867C443.856 380.61 444.841 404.355 445.943 428.091C446.021 429.801 446.03 431.51 446.038 433.214C446.064 438.339 446.09 443.419 448.004 448.329C448.016 448.373 448.038 448.439 448.06 448.506C448.082 448.572 448.104 448.638 448.116 448.683C448.57 450.14 449.191 450.25 449.813 450.359C450.114 450.412 450.416 450.464 450.699 450.671C454.608 453.553 455.703 451.108 454.795 442.09C454.63 440.436 454.669 438.69 454.708 436.977C454.715 436.656 454.722 436.335 454.728 436.017C454.815 432.218 454.636 426.317 454.497 421.716C454.465 420.665 454.435 419.682 454.411 418.807C454.327 415.96 454.069 412.976 453.818 410.055C453.567 407.15 453.322 404.307 453.258 401.721C453.051 393.099 452.924 384.475 452.798 375.852C452.601 362.44 452.405 349.029 451.904 335.626C451.355 321.05 450.55 306.484 449.745 291.917C449.141 280.988 448.538 270.058 448.041 259.123C447.385 244.787 446.832 230.447 446.279 216.106C445.785 203.276 445.29 190.445 444.721 177.617C444.286 167.832 443.917 158.045 443.549 148.258C442.779 127.791 442.008 107.322 440.621 86.8597C439.577 71.6036 439.305 56.2028 439.033 40.8161C438.937 35.3441 438.84 29.8739 438.709 24.4126C438.502 15.8148 436.285 10.2857 432.822 10.245C429.726 10.2112 429.785 17.463 429.826 22.4505C429.829 22.8217 429.832 23.1804 429.833 23.5227C429.982 55.1022 431.208 86.7282 432.532 118.34C432.95 128.104 433.406 141.778 433.712 150.983Z" fill="#B3E48A" fill-opacity="0.3"/>
</svg>
