<svg width="1900" height="6586" viewBox="0 0 1900 6586" fill="none" xmlns="http://www.w3.org/2000/svg">
<rect width="1900" height="6586" fill="#F5F5F5"/>
<path d="M-436.001 1419.67L6149.21 1426.62L6149.21 1424.62L-435.995 1417.67L-436.001 1419.67Z" fill="#A0A3BD" fill-opacity="0.1"/>
<path d="M-435.61 784.836L6149.6 791.783L6149.6 789.783L-435.604 782.836L-435.61 784.836Z" fill="#A0A3BD" fill-opacity="0.1"/>
<path d="M-435.216 150L6149.99 156.947L6150 154.947L-435.21 148L-435.216 150Z" fill="#A0A3BD" fill-opacity="0.1"/>
<path d="M-435.806 1102.25L6149.4 1109.2L6149.41 1107.2L-435.799 1100.25L-435.806 1102.25Z" fill="#A0A3BD" fill-opacity="0.1"/>
<path d="M-435.411 467.418L6149.79 474.365L6149.8 472.365L-435.405 465.418L-435.411 467.418Z" fill="#A0A3BD" fill-opacity="0.1"/>
<path d="M-436.001 3006.29L6149.21 3013.24L6149.21 3011.24L-435.995 3004.29L-436.001 3006.29Z" fill="#A0A3BD" fill-opacity="0.1"/>
<path d="M-435.61 2371.46L6149.6 2378.4L6149.6 2376.4L-435.604 2369.46L-435.61 2371.46Z" fill="#A0A3BD" fill-opacity="0.1"/>
<path d="M-435.216 1736.62L6149.99 1743.57L6150 1741.57L-435.21 1734.62L-435.216 1736.62Z" fill="#A0A3BD" fill-opacity="0.1"/>
<path d="M-435.806 2688.87L6149.4 2695.82L6149.41 2693.82L-435.799 2686.87L-435.806 2688.87Z" fill="#A0A3BD" fill-opacity="0.1"/>
<path d="M-435.411 2054.04L6149.79 2060.99L6149.8 2058.99L-435.405 2052.04L-435.411 2054.04Z" fill="#A0A3BD" fill-opacity="0.1"/>
<path d="M-436.001 4592.91L6149.21 4599.86L6149.21 4597.86L-435.995 4590.91L-436.001 4592.91Z" fill="#A0A3BD" fill-opacity="0.1"/>
<path d="M-435.61 3958.08L6149.6 3965.02L6149.6 3963.02L-435.604 3956.08L-435.61 3958.08Z" fill="#A0A3BD" fill-opacity="0.1"/>
<path d="M-435.216 3323.24L6149.99 3330.19L6150 3328.19L-435.21 3321.24L-435.216 3323.24Z" fill="#A0A3BD" fill-opacity="0.1"/>
<path d="M-435.806 4275.49L6149.4 4282.44L6149.41 4280.44L-435.799 4273.49L-435.806 4275.49Z" fill="#A0A3BD" fill-opacity="0.1"/>
<path d="M-435.411 3640.66L6149.79 3647.61L6149.8 3645.61L-435.405 3638.66L-435.411 3640.66Z" fill="#A0A3BD" fill-opacity="0.1"/>
<path d="M-435.001 6179.53L6150.21 6186.48L6150.21 6184.48L-434.995 6177.53L-435.001 6179.53Z" fill="#A0A3BD" fill-opacity="0.1"/>
<path d="M-434.61 5544.7L6150.6 5551.64L6150.6 5549.64L-434.604 5542.7L-434.61 5544.7Z" fill="#A0A3BD" fill-opacity="0.1"/>
<path d="M-434.216 4909.86L6150.99 4916.81L6151 4914.81L-434.21 4907.86L-434.216 4909.86Z" fill="#A0A3BD" fill-opacity="0.1"/>
<path d="M-434.806 5862.11L6150.4 5869.06L6150.41 5867.06L-434.799 5860.11L-434.806 5862.11Z" fill="#A0A3BD" fill-opacity="0.1"/>
<path d="M-434.411 5227.28L6150.79 5234.23L6150.8 5232.23L-434.405 5225.28L-434.411 5227.28Z" fill="#A0A3BD" fill-opacity="0.1"/>
<path d="M321.948 0.999138L315 6586.21L317 6586.21L323.948 1.00521L321.948 0.999138Z" fill="#A0A3BD" fill-opacity="0.1"/>
<path d="M956.783 1.38976L949.835 6586.6L951.835 6586.6L958.783 1.39584L956.783 1.38976Z" fill="#A0A3BD" fill-opacity="0.1"/>
<path d="M1591.62 1.78429L1584.67 6586.99L1586.67 6587L1593.62 1.79037L1591.62 1.78429Z" fill="#A0A3BD" fill-opacity="0.1"/>
<path d="M639.365 1.19445L632.417 6586.4L634.417 6586.41L641.365 1.20052L639.365 1.19445Z" fill="#A0A3BD" fill-opacity="0.1"/>
<path d="M1274.2 1.58898L1267.25 6586.79L1269.25 6586.8L1276.2 1.59505L1274.2 1.58898Z" fill="#A0A3BD" fill-opacity="0.1"/>
</svg>
