<svg width="191" height="4" viewBox="0 0 191 4" fill="none" xmlns="http://www.w3.org/2000/svg">
<path d="M126.604 0.259735C129.203 0.266202 138.42 0.279131 144.325 0.23386C157.994 0.123917 171.656 -0.0506954 185.292 0.0139769C187.423 0.0269114 191.047 -0.0442243 191 1.04874C190.952 2.19344 188.543 2.91129 184.823 2.94363C175.817 3.04064 166.763 2.89835 157.811 3.19584C144.705 3.61621 131.619 3.51274 118.534 3.58388C106.785 3.59035 95.0231 3.60329 83.2747 3.60975C72.2388 3.65502 61.2098 3.89431 50.1807 3.91371C40.6652 3.92665 31.1497 3.7003 21.6274 3.69383C19.3877 3.69383 16.6932 3.93312 14.2363 3.93959C12.2069 3.94606 8.82017 3.99779 6.8044 3.93312C5.93565 3.90725 5.03298 3.86844 4.18459 3.92664C0.282005 4.17886 -0.763225 3.79731 0.519537 2.52326C0.804595 2.24517 0.465232 1.88946 1.40185 1.68251C1.44257 1.67605 1.51725 1.65665 1.55119 1.64371C4.40177 0.835308 7.35415 1.13926 10.3201 1.07459C24.8717 0.777099 39.43 0.680097 53.9883 0.615424C62.9202 0.570154 71.8587 0.628357 80.7702 0.492545C83.2068 0.453742 85.6501 0.292065 88.1274 0.395541H88.0867C90.6726 0.363205 93.2585 0.292069 95.8376 0.298537C105.611 0.317938 115.819 0.233857 125.199 0.311464C125.565 0.311464 126.061 0.259735 126.604 0.259735Z" fill="#FE833D" fill-opacity="0.7"/>
</svg>
