<svg width="180" height="4" viewBox="0 0 180 4" fill="none" xmlns="http://www.w3.org/2000/svg">
<path d="M119.312 0.259735C121.762 0.266202 130.448 0.279131 136.013 0.23386C148.895 0.123917 161.77 -0.0506954 174.62 0.0139769C176.629 0.0269114 180.044 -0.0442243 180 1.04874C179.955 2.19344 177.684 2.91129 174.179 2.94363C165.691 3.04064 157.159 2.89835 148.722 3.19584C136.371 3.61621 124.039 3.51274 111.707 3.58388C100.635 3.59035 89.5506 3.60329 78.4787 3.60975C68.0785 3.65502 57.6846 3.89431 47.2908 3.91371C38.3233 3.92665 29.3557 3.7003 20.3818 3.69383C18.2711 3.69383 15.7318 3.93312 13.4164 3.93959C11.5039 3.94606 8.3122 3.99779 6.41252 3.93312C5.59381 3.90725 4.74312 3.86844 3.94359 3.92664C0.265764 4.17886 -0.71927 3.79731 0.489616 2.52326C0.758257 2.24517 0.438438 1.88946 1.32112 1.68251C1.35949 1.67605 1.42987 1.65665 1.46185 1.64371C4.14827 0.835308 6.93061 1.13926 9.72576 1.07459C23.4393 0.777099 37.1592 0.680097 50.8791 0.615424C59.2965 0.570154 67.7203 0.628357 76.1185 0.492545C78.4148 0.453742 80.7174 0.292065 83.052 0.395541H83.0137C85.4506 0.363205 87.8876 0.292069 90.3181 0.298537C99.5287 0.317938 109.149 0.233857 117.988 0.311464C118.334 0.311464 118.801 0.259735 119.312 0.259735Z" fill="#5474E8" fill-opacity="0.7"/>
</svg>
