<svg width="274" height="4" viewBox="0 0 274 4" fill="none" xmlns="http://www.w3.org/2000/svg">
<path d="M181.62 0.259735C185.349 0.266202 198.571 0.279131 207.042 0.23386C226.651 0.123917 246.25 -0.0506954 265.811 0.0139769C268.868 0.0269114 274.067 -0.0442243 273.999 1.04874C273.931 2.19344 270.475 2.91129 265.139 2.94363C252.219 3.04064 239.23 2.89835 226.388 3.19584C207.587 3.61621 188.815 3.51274 170.043 3.58388C153.189 3.59035 136.316 3.60329 119.462 3.60975C103.631 3.65502 87.8088 3.89431 71.987 3.91371C58.3365 3.92665 44.686 3.7003 31.0257 3.69383C27.8127 3.69383 23.9473 3.93312 20.4227 3.93959C17.5115 3.94606 12.653 3.99779 9.76128 3.93312C8.51502 3.90725 7.22008 3.86844 6.00302 3.92664C0.404551 4.17886 -1.09489 3.79731 0.745304 2.52326C1.15424 2.24517 0.6674 1.88946 2.01103 1.68251C2.06945 1.67605 2.17658 1.65665 2.22527 1.64371C6.31458 0.835308 10.5499 1.13926 14.8048 1.07459C35.6798 0.777099 56.5645 0.680097 77.4492 0.615424C90.2624 0.570154 103.085 0.628357 115.869 0.492545C119.365 0.453742 122.87 0.292065 126.424 0.395541H126.365C130.075 0.363205 133.784 0.292069 137.484 0.298537C151.505 0.317938 166.148 0.233857 179.604 0.311464C180.13 0.311464 180.841 0.259735 181.62 0.259735Z" fill="#5474E8" fill-opacity="0.7"/>
</svg>
