<svg width="253" height="39" viewBox="0 0 253 39" fill="none" xmlns="http://www.w3.org/2000/svg">
<path fill-rule="evenodd" clip-rule="evenodd" d="M13.6344 15.0776C12.8308 15.4846 12.9683 15.4799 14.5463 15.1227C15.5316 14.8952 17.6008 14.5635 19.0147 14.389C21.3751 14.1149 21.5833 14.1163 20.8344 14.4623C19.5756 14.9943 19.6704 15.1008 21.0281 14.692C21.6756 14.5013 22.6688 14.3073 23.2109 14.2551C24.0947 14.183 24.0907 14.1662 23.1828 14.138C22.3417 14.099 22.4752 14.0776 23.8303 13.9473C24.7808 13.8644 26.3949 13.6578 27.5257 13.4591C29.2613 13.1809 29.332 13.187 28.2293 13.5028C27.5151 13.7042 27.1974 13.8247 27.5312 13.7712C27.9357 13.7237 27.626 13.8776 26.9905 14.1186C26.2883 14.3702 26.0027 14.6245 26.3058 14.7324C26.5421 14.8509 26.4447 15.023 25.9895 15.1481C25.5303 15.2565 25.7425 15.2746 26.4768 15.1569C27.4153 15.0238 27.5609 15.0527 27.067 15.3057C26.3848 15.641 27.6812 15.5548 30.677 15.0398C31.4113 14.9221 32.6755 14.7021 33.4098 14.5844C34.4779 14.4131 34.9131 14.2043 35.0251 13.8039C35.1372 13.4036 34.9048 13.3018 34.2373 13.4088C32.3683 13.7084 33.734 13.333 36.2505 12.8427C37.5775 12.5952 38.7203 12.4468 38.7363 12.5137C38.7564 12.5974 39.2277 12.5393 39.8832 12.382C40.6642 12.1699 40.8057 12.182 40.4452 12.4136C40.0848 12.6452 40.2264 12.6573 41.0741 12.4345C42.2476 12.1247 43.7095 12.151 44.1355 12.4825C44.3051 12.6118 43.9126 12.7095 43.0288 12.7816C42.1449 12.8538 41.6938 12.9956 41.5456 13.2454C41.3428 13.556 41.6218 13.5634 43.0236 13.3387C43.9581 13.1889 45.0649 12.8898 45.4961 12.6642C45.986 12.3945 46.2489 12.335 46.3518 12.4749C46.3839 12.6088 46.9259 12.5567 48.0446 12.3078C48.9004 12.1185 50.644 11.8737 51.8696 11.7816C53.9123 11.6279 53.975 11.6005 52.7213 11.5755C51.955 11.5593 50.9803 11.5417 50.6265 11.5115C50.206 11.492 49.5305 11.5656 49.0752 11.6907C48.6827 11.7884 48.2701 11.8024 48.2421 11.6852C48.218 11.5847 47.8762 11.6048 47.5545 11.7085C47.17 11.8397 47.1354 11.9843 47.4265 12.0419C47.7215 12.1163 47.313 12.147 46.5466 12.1308C45.847 12.1039 45.0847 12.1044 45.0139 12.0984C44.8764 12.103 45.3823 11.9003 46.1593 11.6714C47.1913 11.3496 47.792 11.2532 48.4956 11.2969C49.0577 11.3285 49.7333 11.2549 50.055 11.1512C50.4435 11.0368 50.8721 11.0897 51.1165 11.2418C51.5224 11.4896 51.935 11.4756 53.517 11.1351C56.0215 10.5945 58.7984 10.3232 57.5782 10.7274C57.0015 10.9241 57.2138 10.9422 58.2819 10.771C59.2164 10.6212 59.6676 10.4793 59.3058 10.4157C58.7864 10.273 61.6301 9.99093 62.6915 10.0815C63.6782 10.1493 62.0428 10.846 60.5502 10.981C59.8039 11.0485 59.2152 11.195 59.2392 11.2954C59.2633 11.3959 59.8174 11.394 60.4182 11.2977C61.3527 11.1478 61.4274 11.1706 60.7332 11.4557C60.1098 11.7469 59.7721 11.7836 59.1192 11.6623C57.8255 11.4699 56.0618 11.631 55.6586 11.9737C55.4905 12.1397 55.6601 12.269 56.0726 12.255C56.4224 12.2685 56.58 12.3475 56.4625 12.4359C56.2743 12.5182 56.7576 12.5102 57.4251 12.4032C58.3597 12.2534 58.4812 12.1818 57.9071 12.1C57.0459 11.9773 58.0351 11.7666 59.0965 11.8572C59.5211 11.8934 60.5224 11.7329 61.7039 11.4566C62.8186 11.191 63.2658 11.0324 62.7318 11.118C61.9935 11.2189 61.9815 11.1687 62.6009 10.8608C63.4085 10.4706 64.853 10.1348 64.3084 10.4654C64.1242 10.5645 64.9613 10.5867 66.0534 10.516C67.7623 10.4158 68.1588 10.3349 68.6287 9.98146C69.1026 9.64476 68.961 9.63269 67.9758 9.86016C67.12 10.0495 66.4324 10.0728 65.909 9.91336C65.0986 9.71302 65.1614 9.68557 67.2748 9.53797C70.6098 9.28146 70.9797 9.37861 69.2656 10.0358C68.4419 10.359 67.8812 10.6227 68.0815 10.5906C69.5033 10.4496 71.9691 10.0369 71.6821 9.99605C71.1707 9.88683 73.5377 9.35094 74.2453 9.41133C74.5992 9.44152 75.2747 9.36799 75.7299 9.24287C76.2559 9.12378 77.1985 9.00744 77.8861 8.98413C78.5777 8.97756 79.5829 8.83379 80.0969 8.66449C80.6776 8.48448 82.508 8.31274 84.8377 8.2C86.8964 8.11332 88.2169 8.12761 87.7617 8.25273C87.3064 8.37785 86.4226 8.45001 85.727 8.43984C84.9829 8.42007 84.9909 8.45355 85.7511 8.54028C86.7458 8.64155 87.2838 8.57269 88.4533 8.24616C89.301 8.02335 90.5612 7.78656 91.3115 7.73581C92.0618 7.68506 93.971 7.55282 95.6012 7.41318C97.2313 7.27353 98.1979 7.25763 97.7467 7.3995C97.3622 7.53066 97.9163 7.52875 99.0631 7.39705C100.477 7.22255 100.932 7.09743 100.7 6.99561C100.538 6.89984 100.706 6.73383 101.154 6.57523C101.672 6.42267 101.809 6.418 101.503 6.58868C101.264 6.74866 101.418 6.81095 101.819 6.74675C102.219 6.68254 102.369 6.7281 102.192 6.86064C101.949 7.00388 102.7 6.95312 103.901 6.76051C105.036 6.57859 105.853 6.51714 105.669 6.6162C105.489 6.732 106.298 6.63706 107.491 6.41097C108.685 6.18487 109.227 6.13274 108.772 6.25787C108.383 6.37229 108.011 6.55368 108.031 6.63737C108.055 6.73781 108.652 6.62476 109.425 6.37918C110.527 6.06335 110.928 5.99914 111.364 6.08559C111.659 6.15996 112.335 6.08644 112.79 5.96131C113.308 5.80875 113.187 5.88036 112.551 6.12128C111.41 6.56498 111.414 6.58173 112.789 6.5351C114.514 6.50193 115.582 6.33072 114.195 6.32713C112.324 6.33148 116.283 5.78383 118.558 5.73201C119.662 5.71145 121.508 5.60666 122.659 5.4917C124.356 5.34135 124.427 5.34738 123.163 5.56744C122.299 5.72329 121.848 5.86516 122.072 5.93349C122.363 5.99112 123.105 5.90689 123.761 5.74967C124.483 5.58174 125.693 5.42261 126.518 5.39463C127.551 5.36803 127.822 5.34197 127.523 5.25086C126.72 5.084 127.538 5.02255 130.917 4.95016C132.642 4.91699 134.421 4.8229 134.955 4.73729C135.489 4.65169 135.973 4.64374 135.993 4.72743C136.025 4.86135 137.875 4.77329 139.764 4.55737C140.102 4.5206 140.393 4.57823 140.347 4.67263C140.304 4.78376 140.854 4.76511 141.655 4.6367C142.786 4.43805 143.564 4.50447 144.827 4.85821C144.902 4.88099 145.428 4.76191 146.071 4.55447C146.782 4.33632 147.787 4.19255 149.095 4.15663C151.5 4.06666 151.698 4.31308 149.632 4.66155C148.568 4.8495 148.509 4.89368 149.322 4.81549C149.931 4.75266 150.991 4.54797 151.701 4.32982C152.608 4.06284 153.28 3.97256 154.321 3.97944C155.087 3.99565 155.9 3.91746 156.155 3.82444C156.343 3.74212 156.548 3.72676 156.568 3.81046C156.592 3.91089 156.294 4.11504 155.855 4.30712C155.353 4.52665 155.381 4.64383 156.097 4.73769C156.742 4.82551 156.758 4.89247 156.224 4.97808C155.756 5.05298 155.572 5.15204 155.863 5.20967C156.084 5.26127 156.692 5.19844 157.214 5.06261C157.866 4.88865 157.967 4.73333 157.428 4.50693C156.581 4.15594 157.567 3.92847 159.595 4.00314C160.357 4.00261 161.307 3.91976 161.767 3.81137C162.222 3.68625 163.039 3.6248 163.534 3.66707C164.096 3.69864 165.13 3.67204 165.868 3.57107C166.61 3.48684 167.302 3.48026 167.456 3.54255C167.609 3.60485 168.626 3.5113 169.694 3.34009C171.897 2.98696 172.134 3.1055 170.573 3.82498C169.761 4.19844 168.58 4.47475 165.977 4.89208C163.974 5.21311 162.251 5.54155 162.07 5.65735C161.953 5.74571 161.49 5.83736 161.144 5.84064C160.794 5.82719 160.535 5.90348 160.551 5.97043C160.627 6.28848 164.387 6.0682 166.02 5.65002C167.063 5.37837 167.184 5.3996 166.381 5.71369C165.579 6.02779 165.635 6.07086 166.551 5.84293C167.67 5.59406 168.078 5.56335 168.118 5.73074C168.15 5.86465 169.066 5.92641 170.229 5.86167C171.325 5.80763 172.296 5.80847 172.316 5.89217C172.356 6.05956 175.678 5.45756 176.902 5.07011C177.541 4.84593 177.62 4.88545 177.083 5.24959C176.614 5.60302 176.642 5.72019 177.262 5.70758C177.746 5.69963 177.942 5.65078 177.592 5.63733C177.305 5.59644 177.528 5.36952 178.089 5.10582C180.022 4.20496 178.101 4.28696 170.683 5.44127C169.411 5.62785 168.994 5.62511 169.154 5.42561C169.557 5.08288 171.182 4.63122 172.082 4.62603C172.428 4.62274 173.209 4.41062 173.773 4.16366C174.338 3.9167 174.99 3.74274 175.21 3.79434C176.008 3.94445 179.347 3.70468 179.708 3.47308C179.951 3.32984 180.469 3.17727 180.869 3.11307C181.336 3.03816 181.286 3.11583 180.709 3.31257C179.94 3.57489 179.948 3.60837 180.903 3.54225C181.586 3.5022 182.387 3.3738 182.772 3.24263C183.156 3.11147 183.369 3.12958 183.33 3.25746C183.228 3.41277 184.258 3.36943 186.076 3.14747C188.637 2.84127 191.737 2.76148 189.935 3.0504C189.534 3.11461 188.569 3.42578 187.745 3.74902C186.921 4.07226 185.956 4.38343 185.556 4.44764C185.155 4.51184 185.206 4.43418 185.72 4.26488C186.489 4.00255 186.473 3.9356 185.753 3.825C185.25 3.74925 184.566 3.7893 184.245 3.89302C183.923 3.99674 183.636 3.95585 183.596 3.78846C183.548 3.58759 183.135 3.60157 182.02 3.86718C181.231 4.04581 180.309 4.24583 180.042 4.28864C179.708 4.34214 179.657 4.41981 179.878 4.4714C180.098 4.523 179.859 4.68297 179.27 4.8295C178.356 5.06301 178.509 5.1253 180.046 5.17445C181.516 5.2343 181.744 5.31937 181.188 5.59981C180.752 5.80863 180.655 5.98069 180.938 6.00484C181.15 6.02296 181.343 5.95738 181.315 5.8402C181.278 5.68955 181.671 5.59185 182.425 5.55784C183.997 5.46238 186.561 5.17292 188.839 4.84257C189.911 4.6881 190.599 4.66479 190.489 4.78663C190.376 4.89173 189.39 5.1192 188.185 5.29508C186.312 5.57796 186.186 5.63283 186.977 5.74947C187.763 5.84937 187.7 5.87681 186.392 5.91274C184.463 5.96127 184.329 5.98267 184.401 6.28398C184.446 6.46811 185.054 6.40528 186.711 6.08754C188.368 5.7698 188.914 5.73442 188.958 5.91855C189.01 6.13616 189.144 6.11476 190.022 5.7306C190.842 5.39062 191.238 5.30967 191.608 5.40682C191.966 5.45375 192.645 5.39696 193.234 5.25043C194.341 4.95134 197.277 5.0543 196.653 5.34544C196.398 5.43847 197.345 5.33887 198.68 5.12485C200.416 4.84663 201.032 4.81728 200.802 5.01074C200.641 5.21024 201.125 5.20228 202.46 4.98827C203.795 4.77425 205.245 4.7504 207.364 4.91482C210.402 5.15773 211.64 5.11577 211.564 4.79772C211.54 4.69729 212.078 4.62842 212.84 4.62788C214.432 4.61611 214.496 4.88394 213.067 5.28675C212.482 5.45002 213.229 5.38253 214.768 5.15314C217.442 4.74185 217.199 4.88509 213.663 5.7475C213.007 5.90473 212.635 6.08611 212.926 6.14374C213.15 6.21207 214.269 5.9632 215.689 5.5269C217.436 5.00363 218.225 4.82502 218.594 4.92217C218.89 4.99654 218.992 5.13648 218.875 5.22484C218.691 5.3239 219.028 5.28714 219.617 5.14062C220.202 4.97735 221.361 4.89586 222.202 4.93485C223.043 4.97383 223.318 4.9645 222.819 4.90549C222.386 4.83578 221.946 4.73261 221.925 4.64891C221.905 4.56521 222.239 4.5117 222.727 4.52049C223.218 4.54602 224.231 4.43573 224.891 4.29525C226.347 4.00961 229.33 4.01817 229.469 4.30878C229.497 4.42595 229.976 4.40126 230.628 4.22729C231.279 4.05333 231.554 4.044 231.311 4.18724C231.068 4.33048 231.634 4.3788 232.581 4.2792C233.531 4.19635 234.302 4.22929 234.338 4.37994C234.37 4.51386 234.052 4.63432 233.706 4.6376C233.294 4.65159 233.023 4.67766 233.031 4.71114C233.043 4.76135 234.155 4.77427 235.472 4.77183C236.784 4.75264 238.27 4.87945 238.66 5.06029C239.05 5.24114 239.761 5.31825 240.229 5.24335C241.297 5.07213 245.783 5.56973 245.36 5.82877C245.179 5.94457 245.474 6.01894 246.021 5.98355C247.25 5.90811 251.244 6.95398 250.309 7.10379C249.909 7.168 249.559 7.15454 249.539 7.07085C249.503 6.92019 245.975 7.24229 245.536 7.43437C245.411 7.48925 245.851 7.59243 246.488 7.64678C247.192 7.69042 247.582 7.87128 247.414 8.03729C247.183 8.23075 247.324 8.24282 247.842 8.09025C248.356 7.92095 248.435 7.96047 248.153 8.23159C247.934 8.47526 248.254 8.65007 249.236 8.70113C250.718 8.8112 250.885 9.21898 249.467 9.37674C249.059 9.40747 248.737 9.51119 248.757 9.59489C248.833 9.91293 245.556 9.82999 241.082 9.38262C238.53 9.1485 235.904 8.8916 235.133 8.85865C234.43 8.81501 233.027 8.74445 232.04 8.67665C231.057 8.62559 228.526 8.47518 226.352 8.37168C224.246 8.25749 221.785 8.1131 220.94 8.05737C220.024 7.99561 219.254 7.96266 219.128 8.01754C219.003 8.07242 218.515 8.06364 218.016 8.00463C217.517 7.94562 217.359 7.86658 217.626 7.82378C218.227 7.72747 214.14 7.73947 209.044 7.87851C207.048 7.93774 205.236 7.89793 205.075 7.80215C204.539 7.59249 205.407 7.45337 206.606 7.53929C207.318 7.61641 207.38 7.58898 206.994 7.42487C206.687 7.30028 205.512 7.31479 204.366 7.44649C200.654 7.86764 200.246 7.89837 199.93 7.7403C199.769 7.64453 199.215 7.64644 198.681 7.73205C198.147 7.81766 197.726 7.79817 197.702 7.69774C197.682 7.61404 197.34 7.63406 197.019 7.73778C196.63 7.85221 196.218 7.8662 195.989 7.78113C195.757 7.67931 194.999 7.69659 194.26 7.79756C193.051 7.9567 190.822 7.91412 190.778 7.72999C190.766 7.67977 192.035 7.47645 193.582 7.28054C195.671 7.03251 196.197 6.91344 195.827 6.81629C195.466 6.75262 194.582 6.82476 193.852 6.95921C193.051 7.08762 192.249 7.21604 192.045 7.2314C191.841 7.24676 190.627 7.38916 189.347 7.54226C186.119 7.95547 178.705 8.25745 178.158 7.99757C177.851 7.87298 177.304 7.90838 176.586 8.09304C175.868 8.27771 175.593 8.28703 175.836 8.14379C176.079 8.00055 175.78 7.90944 175.167 7.95553C174.346 8.00025 174.158 8.08257 174.544 8.24667C175 8.41682 174.871 8.45496 174.234 8.40062C172.96 8.29192 174.035 7.85892 176.395 7.58482L178.551 7.3261L176.826 7.35927C175.718 7.36309 174.776 7.47942 173.999 7.70826C173.418 7.88827 172.366 8.12644 171.698 8.23345C170.76 8.36652 170.815 8.3056 172.106 7.90746C173.973 7.31256 173.498 7.35399 171.151 7.97357C170.107 8.24522 169.439 8.35223 169.415 8.25179C169.395 8.1681 168.987 8.19882 168.528 8.3072C168.139 8.42162 166.796 8.60217 165.708 8.68969C164.553 8.78791 164.133 8.76841 164.663 8.66607C165.99 8.41857 159.936 8.90224 158.067 9.20187C157.266 9.33028 155.495 9.45786 154.178 9.4603C152.866 9.47949 151.503 9.57632 151.181 9.68004C150.859 9.78377 149.967 9.82244 149.264 9.7788C148.556 9.71841 147.397 9.7999 146.671 9.95109C146.011 10.0916 145.603 10.1223 145.846 9.97906C146.026 9.86326 145.731 9.78889 145.181 9.80754C144.635 9.84293 144.042 9.97271 143.862 10.0885C143.682 10.2043 143.018 10.3281 142.405 10.3741C141.447 10.4235 141.439 10.3901 142.525 10.0073C143.612 9.62448 143.608 9.60774 142.473 9.78965C141.806 9.89666 141.519 9.85577 141.762 9.71253C142.001 9.55255 141.788 9.53443 141.266 9.67026C140.744 9.80608 140.443 9.9935 140.6 10.0725C140.691 10.1623 140.511 10.2781 140.11 10.3423C139.777 10.3958 139.423 10.3656 139.399 10.2652C139.375 10.1647 138.962 10.1787 138.507 10.3038C137.396 10.5862 133.95 10.6693 133.89 10.4182C133.854 10.2675 133.721 10.2889 133.356 10.5038C132.874 10.807 129.913 11.1774 129.857 10.943C129.841 10.8761 129.424 10.8733 128.961 10.965C126.696 11.3455 125.14 11.508 125.104 11.3573C125.084 11.2736 125.614 11.1713 126.227 11.1252C127.252 11.0651 127.315 11.0377 126.391 10.9424C125.75 10.8713 125.071 10.9281 124.694 11.0928C123.565 11.5867 118.349 12.0926 118.256 11.7076C118.236 11.6239 118.708 11.5658 119.27 11.5973C119.973 11.641 120.307 11.5875 120.275 11.4536C120.251 11.3531 120.031 11.3015 119.693 11.3383C117.545 11.6305 115.777 11.7748 115.612 11.6623C115.454 11.5833 114.837 11.6126 114.236 11.7089C113.235 11.8694 113.243 11.9029 114.143 11.8977C114.976 11.9032 114.917 11.9474 113.716 12.14C112.915 12.2684 112.027 12.3238 111.807 12.2722C111.582 12.2039 110.565 12.2975 109.564 12.458C107.962 12.7148 107.891 12.7088 109.044 12.3153C110.064 11.9432 109.656 11.9739 106.063 12.602C102.466 13.2133 102.058 13.244 102.673 12.9194C103.36 12.6008 103.285 12.578 102.162 12.8102C101.369 12.9721 100.952 12.9693 101.05 12.7973C101.139 12.5917 101.002 12.5964 100.304 12.8648C99.7976 13.0675 99.2049 13.1973 98.9926 13.1792C98.7763 13.1443 97.0914 13.3449 95.3519 13.6064C93.6083 13.8511 91.7352 14.134 91.1971 14.2029C90.7258 14.2611 90.4348 14.2034 90.603 14.0374C90.8299 13.8272 90.5468 13.8031 89.6831 13.9589C89.0195 14.0827 88.3213 14.351 88.1612 14.5505C88.0131 14.8002 88.2294 14.8351 88.8141 14.6718C89.3361 14.536 90.0157 14.4792 90.3108 14.5536C90.6726 14.6172 92.1973 14.6162 93.7767 14.5542C95.4269 14.4982 96.3388 14.5433 95.8875 14.6851C95.5031 14.8163 96.0571 14.8144 97.2079 14.6994C100.59 14.3485 100.869 14.3559 100.532 14.688C100.192 15.0033 101.096 15.0148 103.519 14.7133C104.799 14.5602 105.799 14.9735 104.598 15.1661C104.197 15.2303 103.884 15.3675 103.908 15.4679C103.932 15.5683 104.545 15.5223 105.267 15.3543C105.989 15.1864 106.598 15.1236 106.622 15.224C106.642 15.3077 106.917 15.2984 107.235 15.1779C107.556 15.0742 108.032 15.0328 108.323 15.0904C108.614 15.148 109.085 15.0899 109.474 14.9754C109.925 14.8336 110 14.8564 109.757 14.9996C109.518 15.1596 109.671 15.2219 110.005 15.1684C110.406 15.1042 110.763 15.1511 110.795 15.285C110.828 15.4189 111.468 15.49 112.215 15.4225C113.778 15.2936 114.035 15.4958 112.798 15.833C112.41 15.9475 112.877 15.8726 113.862 15.6451C115.382 15.332 115.79 15.3013 116.196 15.5491C116.44 15.7011 116.806 15.7815 117.065 15.7052C117.32 15.6122 117.929 15.5494 118.487 15.5642C119.316 15.553 119.257 15.5972 118.256 15.7577C117.366 15.9004 117.363 15.982 118.246 16.0027C119.012 16.0189 119.829 15.9575 120.088 15.8812C120.41 15.7775 120.618 15.7789 120.642 15.8793C120.718 16.1973 118.108 16.8765 116.988 16.8301C116.493 16.7878 115.613 16.8767 115.024 17.0232C114.506 17.1758 113.893 17.2219 113.602 17.1642C113.307 17.0899 113.37 17.0624 113.853 17.0545C114.337 17.0465 114.662 16.9595 114.642 16.8758C114.618 16.7754 114.131 16.7666 113.597 16.8522C113.063 16.9378 112.612 17.0797 112.636 17.1801C112.656 17.2638 112.197 17.3722 111.651 17.4076C109.942 17.5077 110.568 17.8071 112.58 17.8148C113.688 17.811 114.659 17.8119 114.859 17.7798C115.059 17.7477 115.609 17.729 116.163 17.7271C116.859 17.7373 116.984 17.6824 116.61 17.5685C116.311 17.4774 116.59 17.4848 117.302 17.5619C118.068 17.671 118.308 17.615 118.024 17.394C117.689 17.1522 117.932 17.009 119.18 16.722C120.036 16.5327 120.742 16.2978 120.722 16.2141C120.702 16.1304 121.153 15.9885 121.687 15.9029C122.221 15.8173 122.705 15.8094 122.729 15.9098C122.749 15.9935 123.582 15.999 124.529 15.8994C125.75 15.7905 126.179 15.8434 126.031 16.0932C125.874 16.3094 126.095 16.361 126.55 16.2359C127.594 15.9642 130.016 16.2365 129.467 16.5504C129.291 16.6829 129.499 16.6843 130.088 16.5378C131.132 16.2661 134.06 16.3356 133.578 16.6388C133.394 16.7379 133.543 16.7834 133.944 16.7192C134.278 16.6657 134.658 16.5178 134.764 16.3793C134.936 16.23 135.207 16.2039 135.518 16.3452C135.825 16.4698 135.657 16.6358 135.19 16.7108C134.726 16.8024 135.406 16.7456 136.69 16.6093C139.051 16.3352 140.553 16.5289 138.617 16.8393C138.016 16.9356 137.569 17.0942 137.593 17.1946C137.613 17.2783 137.892 17.2857 138.214 17.182C139.175 16.8541 140.696 16.8363 140.847 17.1771C140.953 17.3338 140.53 17.5928 139.938 17.7226C138.952 17.9501 138.956 17.9668 139.962 17.823C141.501 17.5937 141.307 18.233 139.711 18.8019C138.691 19.174 138.699 19.2074 139.658 19.1581C140.341 19.118 140.734 19.0203 140.572 18.9245C140.477 18.8181 140.983 18.6153 141.709 18.4641C142.436 18.3129 143.468 17.991 144.103 17.7501C144.797 17.465 145.26 17.3734 145.626 17.4538C145.917 17.5114 146.597 17.4546 147.119 17.3188C147.641 17.183 147.912 17.1569 147.732 17.2727C147.551 17.3885 146.696 17.5778 145.828 17.7169C143.759 18.0487 139.667 19.4868 140.14 19.7239C140.372 19.8257 141.029 19.9638 141.662 20.0014C142.931 20.0933 143.638 20.7275 142.637 20.888C142.236 20.9522 141.937 20.8611 141.83 20.7044C141.79 20.537 141.582 20.5356 141.414 20.7017C141.304 20.8235 140.849 20.9486 140.436 20.9626C140.091 20.9659 140.181 21.0556 140.693 21.1649C141.424 21.3257 141.967 21.2736 143.607 20.8889C145.511 20.4446 145.582 20.4507 144.432 20.8609C143.475 21.2055 143.424 21.2832 144.159 21.1655C144.693 21.0799 145.411 20.8952 145.791 20.7473C146.109 20.6268 146.86 20.5761 147.567 20.6365C148.279 20.7136 148.578 20.8047 148.177 20.8689C147.844 20.9224 147.809 21.067 148.045 21.1856C148.431 21.3497 148.239 21.4153 147.351 21.4707C146.597 21.5047 146.338 21.581 146.704 21.6614C147.069 21.7418 146.606 21.8334 145.122 22.0019C143.971 22.1169 142.844 22.3323 142.664 22.448C142.488 22.5806 142.759 22.5545 143.281 22.4187C143.869 22.2722 144.341 22.214 144.365 22.3144C144.389 22.4149 144.935 22.3795 145.532 22.2664C147.051 21.9534 149.13 21.9504 149.194 22.2182C149.258 22.486 148.857 22.5502 147.136 22.6002C146.374 22.6007 145.84 22.6863 145.864 22.7867C145.884 22.8704 146.313 22.9234 146.721 22.8927C147.201 22.868 147.012 22.9503 146.278 23.068C145.281 23.2453 145.155 23.3001 145.851 23.3103C146.542 23.3037 146.358 23.4028 145.102 23.6563C143.716 23.948 143.508 23.9466 144.002 23.6936C144.563 23.4299 144.292 23.456 142.639 23.7905C141.316 24.0547 140.098 24.1804 139.324 24.1307C138.691 24.0931 136.636 24.1965 134.806 24.3682C132.909 24.5507 131.271 24.6569 131.058 24.6388C130.842 24.6039 129.349 24.7389 127.664 24.9394C125.98 25.14 125.021 25.1894 125.414 25.0917C125.869 24.9666 126.245 24.8019 126.225 24.7182C126.201 24.6178 125.789 24.6318 125.325 24.7234C123.806 25.0365 120.801 25.2228 121.224 24.9637C121.467 24.8205 121.263 24.8359 120.811 24.9777C119.976 25.2508 117.119 25.1873 117.608 24.9176C117.726 24.8292 117.556 24.7 117.261 24.6256C116.825 24.5391 116.487 24.5759 116.252 24.7526C116.009 24.8959 116.163 24.9582 116.563 24.894C116.964 24.8297 117.113 24.8753 116.937 25.0078C116.451 25.2943 115.917 25.3799 114.601 25.3824C113.701 25.3876 113.755 25.3267 114.834 24.9104C116.046 24.4727 115.976 24.4667 114.351 24.9183C113.378 25.196 112.746 25.4537 112.962 25.4885C113.553 25.6373 112.74 25.7155 110.865 25.7031C109.961 25.6916 108.944 25.7851 108.555 25.8995C108.234 26.0033 107.829 26.0507 107.676 25.9884C107.585 25.8987 106.493 25.9695 105.417 26.1072C104.274 26.2556 103.311 26.2883 103.287 26.1878C103.192 26.0814 103.085 25.9247 102.995 25.8349C102.975 25.7512 102.629 25.7545 102.311 25.875C101.989 25.9787 101.514 26.0201 101.223 25.9625C101.003 25.9109 100.048 25.977 99.1136 26.1268C98.1123 26.2873 97.5943 26.4399 97.8854 26.4975C98.1764 26.5552 97.2259 26.638 95.9215 26.6907C94.5463 26.7373 93.5597 26.6695 93.7319 26.5203C93.8373 26.3817 93.5583 26.3743 92.9735 26.5375C92.4516 26.6733 92.1539 26.8775 92.3862 26.9793C92.6186 27.0811 92.4971 27.1527 92.1513 27.156C91.7387 27.17 91.4276 27.0287 91.3915 26.878C91.3394 26.6604 91.2019 26.6651 90.7747 26.9074C90.5358 27.0674 89.8963 27.2916 89.3703 27.4106C88.8403 27.513 87.7256 27.7786 86.9406 27.974C85.6964 28.2777 85.1503 28.3131 84.2811 28.1569C83.4119 28.0008 82.6616 28.0515 80.9381 28.38C79.7445 28.6061 78.9355 28.701 79.0529 28.6127C79.2371 28.5136 79.0208 28.4787 78.6871 28.5322C78.2866 28.5964 77.9689 28.7169 77.9929 28.8173C78.013 28.901 77.6993 29.0382 77.2988 29.1024C76.965 29.1559 76.8154 29.1104 76.9916 28.9779C77.1718 28.8621 76.9636 28.8607 76.4416 28.9965C75.9196 29.1323 75.0318 29.1877 74.399 29.1501C73.7621 29.0958 72.8783 29.1679 72.3563 29.3038C71.8343 29.4396 71.1547 29.4964 70.8676 29.4555C70.6433 29.3872 70.164 29.4118 69.8423 29.5156C69.5206 29.6193 69.112 29.65 68.821 29.5924C68.6006 29.5408 68.7141 29.4357 69.0479 29.3822C69.4484 29.318 69.7621 29.1808 69.742 29.0971C69.714 28.9799 69.3135 29.0441 68.5365 29.273C67.8263 29.4911 66.9585 29.6302 66.2002 29.6475C64.8878 29.6667 62.1523 30.4007 62.8172 30.5722C63.1043 30.6131 62.5863 30.7657 61.7853 30.8941C60.517 31.0974 60.4422 31.0746 61.1831 30.6951C61.924 30.3156 61.92 30.2989 60.7465 30.6087C60.0283 30.7933 59.31 30.978 59.1138 31.0268C58.9175 31.0757 58.776 31.0636 58.764 31.0134C58.7359 30.8962 56.4715 30.703 55.9375 30.7886C55.7372 30.8207 55.6866 30.8983 55.9069 30.9499C56.1272 31.0015 55.5505 31.1983 54.5612 31.409C52.9752 31.7328 52.8417 31.7542 53.8616 31.3821C54.4343 31.1686 54.9322 30.9324 54.9162 30.8654C54.9001 30.7984 54.5037 30.8794 54.0605 31.0547C53.0446 31.4435 48.0315 32.5079 48.5174 32.2214C48.6976 32.1056 47.0128 32.3062 44.7432 32.67C42.4736 33.0338 39.9877 33.3628 39.2334 33.3968C38.479 33.4309 37.7247 33.4649 37.5204 33.4802C37.3162 33.4956 36.6326 33.5356 35.8783 33.5697C35.1239 33.6037 34.4645 33.7442 34.1628 33.9316C33.8611 34.119 33.5981 34.1785 33.2322 34.0981C32.9412 34.0405 31.9199 34.1173 30.9186 34.2778C29.5168 34.5025 29.3245 34.5681 30.1576 34.5736C30.7825 34.5778 30.8653 34.634 30.398 34.7089C29.3967 34.8694 28.1416 34.5492 28.4032 34.1944C28.4419 34.0665 28.3712 34.0604 28.195 34.193C28.0815 34.2981 27.5008 34.4781 26.9667 34.5637C26.366 34.66 26.111 34.753 26.2606 34.7986C26.4809 34.8502 25.8921 34.9967 25.0243 35.1358C24.1565 35.2749 23.4102 35.3424 23.3902 35.2587C23.3741 35.1918 23.0284 35.195 22.6278 35.2592C22.2941 35.3127 22.1766 35.4011 22.4009 35.4694C22.9911 35.6182 22.5198 35.6763 19.5773 35.8352C18.2062 35.8985 16.5213 36.0991 15.8031 36.2838C15.0181 36.4791 14.6763 36.4992 14.9192 36.3559C15.0994 36.2401 14.8004 36.149 14.1876 36.1951C13.3705 36.2566 13.1782 36.3221 13.5561 36.4528C13.8632 36.5774 13.5495 36.7146 12.5482 36.8751C11.4802 37.0463 11.3347 37.0175 11.8953 36.7538C12.3892 36.5008 12.3064 36.4445 11.5682 36.5455C11.0301 36.6144 10.1543 36.72 9.61628 36.7889C9.145 36.847 8.37463 36.8141 7.87128 36.7383C6.99005 36.532 7.31581 36.445 11.6814 35.5713C12.6039 35.3713 12.0618 35.4234 10.389 35.6742C8.11541 36.0213 7.56939 36.0567 7.85503 35.8023C8.0192 35.6196 7.79488 35.5512 7.12736 35.6582C6.59334 35.7438 6.34235 35.8536 6.56667 35.9219C6.78698 35.9735 6.54003 36.1 5.87251 36.207C5.07148 36.3354 4.84319 36.2504 4.95122 35.8333C5.02056 35.544 4.82284 35.2976 4.41029 35.3116C3.99775 35.3256 4.66534 35.2186 5.81216 35.0869C8.30205 34.7746 12.004 34.0247 11.9599 33.8406C11.9238 33.69 10.0628 34.0231 8.43814 34.4747C7.79067 34.6654 7.06039 34.7999 6.84409 34.765C6.56505 34.7576 6.81998 34.6646 7.354 34.579C7.88802 34.4934 8.98675 34.1608 9.81444 33.8543C10.7089 33.5371 11.8823 33.2273 12.4284 33.1919C13.1079 33.1351 13.0291 33.0956 12.2 33.1068C11.2962 33.0953 10.8289 33.1702 10.5232 33.3409C10.2843 33.5009 9.75025 33.5865 9.19618 33.5884C8.09205 33.6089 6.31782 34.015 6.83321 34.141C7.34458 34.2502 6.75985 34.4135 4.25935 34.9708C2.94034 35.2517 2.79616 35.2285 3.82677 34.9011C4.66648 34.6448 5.03495 34.4467 4.62642 34.4774C4.14712 34.5021 4.16169 34.2738 4.65821 33.7422C5.3229 33.0447 5.24016 32.9884 4.31765 33.1885C3.65815 33.3289 3.22291 33.5378 3.25499 33.6717C3.30854 34.1846 2.48487 34.5078 1.03094 34.5149C0.335343 34.5047 -0.101276 34.4183 0.0161887 34.3299C0.196396 34.2141 0.663728 34.1392 1.07627 34.1252C2.11766 34.1321 3.00266 33.4862 1.96127 33.4793C1.40319 33.4645 1.59941 33.4156 2.41648 33.3542C3.30431 33.2988 3.55925 33.2057 3.18138 33.0751C2.63793 32.832 2.77143 32.8106 5.18395 32.7541C6.28407 32.7168 7.64721 32.6199 8.18122 32.5343C9.44551 32.3143 4.14917 32.4854 2.74336 32.6934C2.14259 32.7897 2.45234 32.6358 3.49231 32.3474C4.46553 32.0697 5.03421 31.8395 4.81791 31.8046C4.53486 31.7804 4.78986 31.6874 5.39063 31.5911C5.9914 31.4948 6.76033 31.2325 7.054 31.0116C7.47314 30.7358 7.86567 30.6381 8.23151 30.7185C8.66811 30.805 8.99787 30.7347 9.55854 30.471C10.4369 30.0869 9.43818 29.9689 8.41425 30.3242C8.09252 30.4279 7.61725 30.4694 7.32618 30.4117C7.10587 30.3601 7.48635 30.2122 8.22063 30.0945C8.9549 29.9768 9.77597 29.9321 9.99627 29.9837C10.2873 30.0413 11.0296 29.9571 11.7519 29.7892C12.6036 29.5831 13.0122 29.5524 13.0563 29.7365C13.1445 30.1048 13.7373 29.975 14.9721 29.3425C15.9599 28.8365 16.2229 28.7769 18.5446 28.6307C19.9077 28.5339 20.8156 28.5622 20.6354 28.678C20.4552 28.7938 20.6634 28.7951 21.1894 28.6761C21.7114 28.5402 22.0132 28.3528 21.9223 28.2631C21.7648 28.184 22.0117 28.0575 22.3455 28.004C22.746 27.9398 23.033 27.9807 23.0571 28.0812C23.0771 28.1649 23.4189 28.1448 23.8074 28.0304C24.1251 27.9099 25.1465 27.8331 25.9249 27.8995C26.766 27.9385 27.1745 27.9078 26.8794 27.8334C26.4428 27.747 27.2986 27.5577 30.3105 27.1096C33.5934 26.6355 34.0686 26.5941 33.241 26.9006C31.9661 27.3657 32.8419 27.26 34.588 26.7368C35.5572 26.4423 35.8283 26.4163 35.8724 26.6004C35.9165 26.7845 36.8631 26.6849 39.7294 26.208C43.5343 25.5981 44.9481 25.4236 46.3273 25.3937C46.6731 25.3904 47.6317 25.3411 48.3152 25.301C49.2698 25.2349 49.3993 25.1967 48.8252 25.115C48.2511 25.0332 48.506 24.9402 49.7036 24.7308C50.7008 24.5536 51.1134 24.5396 50.8785 24.7163C50.6355 24.8595 50.9653 24.7893 51.534 24.559C52.1067 24.3456 52.6286 24.2097 52.6487 24.2934C52.6647 24.3604 52.9945 24.2901 53.4337 24.0981C53.8729 23.906 54.7874 23.6725 55.5217 23.5548C56.6565 23.3729 56.539 23.4612 54.8009 24.018C53.7102 24.384 52.7489 24.7119 52.757 24.7454C52.765 24.7789 54.3003 24.5328 56.0986 24.2271C57.9596 23.894 59.3067 23.7302 59.1265 23.846C58.6446 24.1492 60.3335 23.9654 61.9663 23.5472C62.7512 23.3518 63.4855 23.2341 63.6391 23.2964C63.7926 23.3587 65.0142 23.2498 66.3573 23.0693C67.7631 22.8613 68.9139 22.7463 68.9259 22.7965C68.9419 22.8635 69.4212 22.8388 69.9553 22.7532C70.4893 22.6676 70.9405 22.5257 70.9285 22.4755C70.9124 22.4086 71.6974 22.2132 72.6319 22.0634C73.6332 21.9029 74.0498 21.9056 73.5986 22.0475C73.2141 22.1787 74.106 22.14 75.7868 21.9227C77.4009 21.7161 78.9322 21.4532 79.2419 21.2993C79.6183 21.1346 79.5395 21.0951 79.0055 21.1807C78.4047 21.277 78.1684 21.1585 78.3673 20.8311C78.4994 20.5144 78.3458 20.4521 77.9694 20.6168C77.5302 20.8089 76.709 20.8536 75.4433 20.7784C74.4567 20.7106 73.2778 20.7083 72.8105 20.7832C72.3433 20.8582 71.9227 20.8387 71.9026 20.755C71.8786 20.6545 71.4621 20.6518 70.9948 20.7267C70.5275 20.8016 69.0108 20.8361 67.6864 20.8051C66.362 20.7741 63.9414 20.7971 62.2285 20.8805C60.5116 20.9471 59.533 20.9128 59.9255 20.8151C60.3807 20.69 60.7571 20.5254 60.733 20.4249C60.709 20.3245 60.3125 20.4054 59.7398 20.6189C58.9121 20.9254 58.5116 20.9896 57.529 20.9386C56.8921 20.8842 55.5837 20.9201 54.6331 21.003C53.6825 21.0858 52.5157 21.1338 52.0244 21.1083C51.254 21.0754 51.242 21.0251 52.286 20.7535C53.2592 20.4758 53.1884 20.4698 51.7826 20.6778C50.84 20.7941 49.9055 20.9439 49.6425 21.0034C49.3755 21.0462 48.1419 21.1049 46.8962 21.1134C45.6506 21.1219 43.5879 21.1919 42.3542 21.2506C41.1874 21.2986 40.1379 21.2582 40.1179 21.1745C40.0938 21.0741 38.6519 21.1314 36.9591 21.2985C34.8577 21.4963 34.1661 21.5029 34.7428 21.3061C35.19 21.1475 35.2407 21.0699 34.9069 21.1234C34.5064 21.1876 34.7454 21.0276 35.3849 20.8034C36.4048 20.4313 36.3967 20.3978 35.4381 20.4472C34.8253 20.4933 34.4956 20.5636 34.7159 20.6151C35.5223 20.7987 32.9978 21.2556 32.0618 21.1101C31.4837 21.0116 31.1419 21.0316 31.1072 21.1763C31.1433 21.3269 30.4678 21.4004 28.5466 21.4824C27.1675 21.5123 25.1876 21.6385 24.1035 21.7428C23.0902 21.8531 22.257 21.8476 22.237 21.7639C22.2129 21.6634 21.7296 21.6714 21.1288 21.7677C20.5948 21.8533 20.3077 21.8124 20.4879 21.6966C20.6641 21.5641 20.3811 21.5399 19.8471 21.6255C19.2463 21.7218 18.213 21.7484 17.5054 21.688C16.735 21.6551 15.2023 21.6227 14.0314 21.654C11.8272 21.7118 10.847 21.3822 12.827 21.256C13.373 21.2207 13.7028 21.1504 13.4157 21.1095C13.1954 21.0579 12.166 21.1013 11.082 21.2055C9.79763 21.3419 9.16482 21.3043 9.18746 21.1094C9.15137 20.9588 8.85631 20.8844 8.39305 20.9761C7.99655 21.057 7.31293 21.0971 6.88435 21.0441C6.38099 20.9683 6.48643 20.8298 7.45163 20.5186C8.28332 20.2288 8.61713 20.1753 8.58246 20.3199C8.47301 20.4418 8.83884 20.5222 9.38489 20.4868C9.92692 20.4347 10.1191 20.3691 9.82806 20.3115C9.60374 20.2431 9.64244 20.1152 10.0269 19.9841C10.3487 19.8804 10.6904 19.8603 10.7185 19.9775C10.7466 20.0947 10.9548 20.0961 11.1431 20.0137C11.394 19.904 11.1577 19.7854 10.7251 19.7157C10.2257 19.6567 10.0401 19.4605 10.2831 19.3173C10.522 19.1573 10.4433 19.1178 10.1255 19.2382C9.8038 19.342 8.56615 19.3839 7.44197 19.3208C6.25104 19.2683 5.88124 19.1712 6.49805 19.1418C7.92391 19.0176 7.97459 18.9399 6.86103 18.6317C6.27087 18.483 6.25483 18.416 6.80489 18.3974C7.50048 18.4075 10.2159 17.5898 11.9139 16.8657C12.5414 16.5913 12.3918 16.5457 10.9032 16.6975C9.61486 16.8171 9.39859 16.7822 10.0421 16.5748C10.552 16.3887 10.6067 16.3278 10.0727 16.4134C9.53868 16.499 9.51462 16.3986 9.97246 15.9949C10.6145 15.4922 10.748 15.4708 11.5425 15.6042C12.3369 15.7376 12.4703 15.7162 12.4142 15.4818C12.3781 15.3312 12.8053 15.0889 13.394 14.9424C14.3712 14.6814 14.3793 14.7149 13.6344 15.0776ZM16.8413 15.1545C17.0616 15.2061 17.6825 15.1935 18.083 15.1293C18.5503 15.0544 18.4674 14.9982 17.8426 14.994C16.5262 14.9965 16.2592 15.0393 16.8413 15.1545ZM12.3359 17.1804C12.368 17.3144 12.7965 17.3673 13.2638 17.2924C15.2664 16.9714 14.667 17.363 12.6057 17.7282C8.01184 18.5168 7.81964 18.5823 8.22558 18.8301C8.55273 19.0384 8.757 19.0231 9.58468 18.7166C10.7888 18.2454 15.7912 17.4261 16.7231 17.5548C17.085 17.6185 18.3146 17.5431 19.4654 17.4281C20.7693 17.277 20.6447 17.2391 19.0916 17.3142C16.9701 17.4283 16.8954 17.4056 18.5842 17.2217C20.0021 17.064 20.4613 16.9556 20.1582 16.8477C19.9967 16.752 19.4425 16.7539 19.046 16.8348C18.6535 16.9325 18.2997 16.9023 18.2717 16.7851C18.2356 16.6345 18.1021 16.6559 17.7377 16.8707C17.3733 17.0856 16.6229 17.1363 14.7991 17.0463C13.5334 16.9711 12.4133 16.9247 12.3425 16.9187C12.3425 16.9187 12.3038 17.0465 12.3359 17.1804ZM41.5267 12.5879C41.5468 12.6716 41.9006 12.7018 42.3011 12.6376C42.6349 12.5841 42.7483 12.479 42.528 12.4274C42.3037 12.359 41.9539 12.3456 41.7537 12.3777C41.6202 12.3991 41.5027 12.4874 41.5267 12.5879ZM38.0892 13.5735C37.0879 13.734 36.3028 13.9294 36.3269 14.0298C36.3203 14.2916 39.8702 13.7747 40.4108 13.4273C41.0809 13.0417 41.0635 12.6795 40.3854 13.0316C40.1384 13.1581 39.1572 13.4023 38.0892 13.5735ZM22.7028 16.4746C21.6628 16.763 21.8004 16.7583 23.5319 16.4633C24.7295 16.254 25.7147 16.0265 25.6946 15.9428C25.6585 15.7922 24.3942 16.0122 22.7028 16.4746ZM48.1489 12.743C48.3692 12.7946 48.193 12.9272 47.7298 13.0188C47.2625 13.0937 46.5362 13.2449 46.2065 13.3152C45.814 13.4128 45.2212 13.5426 44.8915 13.6129C44.495 13.6938 43.427 13.865 42.4884 13.9981C41.4164 14.1526 40.5727 14.3921 40.4085 14.5749C40.1816 14.7851 40.4058 14.8534 41.0734 14.7464C41.6074 14.6608 41.8544 14.5343 41.5633 14.4767C41.2682 14.4023 41.602 14.3488 42.6353 14.3222C43.8062 14.2909 44.2735 14.216 44.6419 14.0179C44.8809 13.8579 45.3321 13.7161 45.6698 13.6793C46.0076 13.6425 46.4082 13.5783 46.6004 13.5127C46.7966 13.4639 47.6524 13.2746 48.5789 13.0913C49.4347 12.9019 50.4746 12.6136 50.8511 12.4489C51.2863 12.2401 51.2155 12.2341 50.7016 12.4034C50.3131 12.5178 49.775 12.5867 49.484 12.529C49.2636 12.4774 48.7096 12.4793 48.3758 12.5328C47.9753 12.597 47.9246 12.6747 48.1489 12.743ZM31.8026 15.3982C31.8587 15.6326 32.9348 15.4948 34.0175 15.0953C35.1041 14.7125 35.0333 14.7065 33.5061 14.9861C32.5048 15.1466 31.7865 15.3313 31.8026 15.3982ZM38.4858 14.3616C38.4979 14.4118 38.7849 14.4527 39.1975 14.4387C39.5433 14.4355 39.869 14.3485 39.849 14.2648C39.8249 14.1643 39.4711 14.1342 39.1373 14.1877C38.7368 14.2519 38.4778 14.3281 38.4858 14.3616ZM21.8218 17.1373C21.8419 17.221 22.1956 17.2512 22.5962 17.187C22.9299 17.1335 23.0434 17.0284 22.8231 16.9768C22.5988 16.9084 22.249 16.895 22.0487 16.9271C21.9152 16.9485 21.7977 17.0368 21.8218 17.1373ZM52.2342 12.4358C51.3865 12.6586 51.3358 12.7362 51.9366 12.6399C52.4706 12.5543 53.5226 12.3162 54.2368 12.1147C55.0845 11.8919 55.1353 11.8143 54.5345 11.9106C54.0005 11.9962 52.9485 12.2344 52.2342 12.4358ZM54.0474 12.7709C54.1302 12.8271 53.8205 12.9811 53.436 13.1122C52.9221 13.2815 53.0169 13.388 53.866 13.4605C54.9234 13.5343 54.8687 13.5952 53.6085 13.832C53.0117 13.9451 50.5261 15.1431 51.0601 15.0575C51.3938 15.004 51.9706 14.8072 52.339 14.6091C52.7742 14.4003 53.8061 14.0784 54.7286 13.8784C55.6471 13.6616 56.1531 13.4589 55.9368 13.424C55.7165 13.3724 56.1757 13.264 56.922 13.1965C57.6683 13.129 58.2571 12.9825 58.233 12.8821C58.1929 12.7147 57.1048 12.8022 55.0395 13.1507C54.4428 13.2637 54.2651 13.101 54.3812 12.7174C54.4465 12.4114 54.4144 12.2775 54.2382 12.41C54.0661 12.5593 53.9646 12.7146 54.0474 12.7709ZM64.3247 11.4015C64.808 11.3935 64.824 11.4605 64.4943 11.5307C64.0978 11.6117 63.505 11.7414 63.1753 11.8117C62.7828 11.9094 62.1193 12.0331 61.6561 12.1248C60.9925 12.2485 61.0793 12.3215 61.9952 12.3833C62.7776 12.4664 63.3197 12.4143 63.4211 12.259C63.5305 12.1371 64.3195 11.9585 65.1286 11.8636C66.0293 11.7655 66.0907 11.7325 65.3127 11.7645C64.4917 11.8092 64.2007 11.7516 64.6519 11.6097C65.6171 11.2986 67.6637 11.1617 67.1778 11.4482C66.9976 11.564 67.5477 11.5453 68.3487 11.4169C69.5502 11.2243 69.609 11.1801 68.8893 11.0695C68.39 11.0105 67.4941 11.0324 66.8933 11.1287C65.9588 11.2786 65.9508 11.2451 66.7865 10.9721C67.6222 10.699 67.5475 10.6762 66.5462 10.8368C65.8787 10.9438 65.5248 10.9136 65.701 10.781C65.944 10.6378 65.5474 10.7188 64.7745 10.9643C63.88 11.2815 63.6999 11.3973 64.3247 11.4015ZM51.3533 13.0985C51.3733 13.1822 51.7271 13.2124 52.1276 13.1482C52.4614 13.0946 52.5748 12.9895 52.3545 12.938C52.1302 12.8696 51.7804 12.8562 51.5802 12.8883C51.4467 12.9097 51.3292 12.998 51.3533 13.0985ZM33.9976 15.8807C35.3848 15.8843 36.2526 15.7452 35.6664 15.6132C35.4421 15.5448 34.6919 15.5956 34.0911 15.6919C33.0898 15.8524 33.0978 15.8859 33.9976 15.8807ZM22.316 17.7533C22.1358 17.8691 22.4228 17.91 23.0236 17.8137C23.6244 17.7174 23.8713 17.5909 23.651 17.5393C23.4267 17.471 23.0769 17.4575 22.9434 17.4789C22.8099 17.5003 22.4922 17.6208 22.316 17.7533ZM49.6552 13.8226C49.8675 13.8407 50.4723 13.7611 50.9276 13.636C51.4495 13.5002 51.2372 13.4821 50.5029 13.5998C49.7646 13.7008 49.3762 13.8152 49.6552 13.8226ZM77.3522 9.93881C77.172 10.0546 77.4551 10.0788 77.9891 9.99316C78.5231 9.90755 78.7741 9.79779 78.5538 9.74619C78.3375 9.71134 78.0545 9.68719 77.9209 9.70859C77.7874 9.72999 77.5365 9.83975 77.3522 9.93881ZM73.8064 10.4725C74.0187 10.4906 74.6235 10.411 75.0787 10.2859C75.6007 10.1501 75.3883 10.132 74.6541 10.2497C73.9158 10.3506 73.5274 10.4651 73.8064 10.4725ZM80.1252 9.65072C80.6005 9.60929 81.4016 9.48088 81.7941 9.3832C82.2493 9.25808 81.9075 9.27811 80.9729 9.42792C80.0384 9.57773 79.7127 9.66471 80.1252 9.65072ZM48.2963 14.8053C48.3164 14.889 48.7917 14.8475 49.3137 14.7117C49.8316 14.5591 50.2829 14.4173 50.2748 14.3838C50.2668 14.3503 49.7915 14.3917 49.2575 14.4774C48.7235 14.563 48.2723 14.7048 48.2963 14.8053ZM91.7656 8.18448C91.7856 8.26818 92.1394 8.29838 92.5399 8.23417C92.8737 8.18067 92.9872 8.07557 92.7669 8.02397C92.5426 7.95564 92.1928 7.94218 91.9925 7.97429C91.859 7.99569 91.7415 8.08405 91.7656 8.18448ZM60.3413 13.2915C60.9821 13.3626 62.8632 13.1132 64.4372 12.7392C65.03 12.6094 62.3038 12.8031 60.8979 13.0111C59.8886 13.1381 59.7671 13.2098 60.3413 13.2915ZM68.6266 11.9981C68.8389 12.0162 69.4437 11.9367 69.8989 11.8115C70.4209 11.6757 70.2086 11.6576 69.4743 11.7753C68.736 11.8763 68.3476 11.9907 68.6266 11.9981ZM86.8394 9.32183C86.6632 9.45437 86.9342 9.4283 87.4562 9.29248C88.6297 8.98269 88.8018 8.83342 87.8673 8.98323C87.4668 9.04744 87.0155 9.1893 86.8394 9.32183ZM83.6567 10.2144C83.873 10.2493 83.5553 10.3698 83.0212 10.4554C82.4872 10.541 81.7223 10.82 81.3659 11.0684C80.896 11.4218 80.3073 11.5683 79.2193 11.6558C77.7934 11.7801 77.7974 11.7969 79.0003 11.8995C80.1406 12.0296 80.274 12.0082 81.1871 11.4794C81.673 11.193 82.5007 10.8865 82.9012 10.8222C83.3685 10.7473 84.2469 10.3632 84.8462 9.9716C85.5671 9.50841 85.4985 9.4151 84.6406 9.6917C83.8676 9.93728 83.5071 10.1689 83.6567 10.2144ZM74.4902 11.3015C74.5102 11.3852 74.9308 11.4047 75.4648 11.3191C75.9988 11.2335 76.6463 11.0428 76.8265 10.927C77.0027 10.7944 76.5861 10.7917 75.8518 10.9094C75.0508 11.0378 74.4661 11.2011 74.4902 11.3015ZM41.0899 16.5515C41.0979 16.585 41.5265 16.6379 42.0846 16.6528C42.855 16.6857 43.1887 16.6322 43.5531 16.4173C43.7921 16.2574 43.7174 16.2346 43.2661 16.3764C42.8776 16.4909 42.4063 16.549 42.1152 16.4914C41.6746 16.3882 41.0578 16.4176 41.0899 16.5515ZM36.6255 17.3019C36.8378 17.32 37.4426 17.2405 37.8979 17.1153C38.4199 16.9795 38.2075 16.9614 37.4732 17.0791C36.7349 17.1801 36.3465 17.2945 36.6255 17.3019ZM77.8759 10.9673C77.8919 11.0343 78.3752 11.0263 78.976 10.93C79.51 10.8444 79.7931 10.8686 79.6169 11.0011C79.4367 11.1169 79.5902 11.1792 79.924 11.1257C80.3245 11.0615 80.6342 10.9076 80.6021 10.7736C80.5701 10.6397 80.9385 10.4416 81.327 10.3272C81.7823 10.202 81.1735 10.2649 79.9759 10.4742C78.8411 10.6561 77.8558 10.8836 77.8759 10.9673ZM91.3026 9.1452C90.4629 9.40148 90.4709 9.43496 91.3387 9.29585C91.8767 9.22698 92.886 9.09994 93.5616 9.02641C94.1704 8.96358 94.5588 8.84916 94.2718 8.80827C93.9019 8.71112 94.8204 8.49435 96.568 8.26635C97.0433 8.22492 97.2275 8.12587 97.0032 8.05753C96.4918 7.94831 92.978 8.61589 91.3026 9.1452ZM86.3629 9.93706C86.5872 10.0054 86.4898 10.1774 86.0386 10.3193C85.5246 10.4886 85.6074 10.5449 86.4245 10.4834C87.108 10.4434 87.371 10.3838 87.0759 10.3095C86.7849 10.2518 87.224 10.0597 88.0758 9.85367L89.6538 9.49641L87.9569 9.64676C87.0064 9.72961 86.1933 9.8078 86.0558 9.81246C85.9183 9.81713 86.0718 9.87943 86.3629 9.93706ZM70.6921 12.5187C69.604 12.6062 69.4118 12.6718 69.7229 12.8131C69.9592 12.9317 69.5908 13.1298 68.6056 13.3573C67.6453 13.5923 67.5985 13.6867 68.4655 13.6405C69.2198 13.6065 70.0168 13.4613 70.197 13.3455C70.3772 13.2297 71.6882 12.9153 73.1447 12.6296C74.5345 12.3547 75.8455 12.0402 76.0217 11.9077C76.2687 11.7812 76.9949 11.63 77.7412 11.5625C78.9 11.481 78.8961 11.4643 77.8547 11.4574C76.9548 11.4626 76.2873 11.5696 75.3848 11.8534C73.6386 12.3766 73.3677 12.4027 73.7507 11.9763C74.0911 11.661 74.0244 11.6717 73.0672 12.0163C72.4985 12.2465 71.4424 12.468 70.6921 12.5187ZM65.7298 13.5054C65.141 13.6519 64.7019 13.844 64.7219 13.9277C64.778 14.1621 66.4976 13.8169 67.3679 13.3992C68.1716 12.9923 67.488 13.0324 65.7298 13.5054ZM63.0491 14.1785C62.8689 14.2943 63.0224 14.3566 63.3562 14.3031C63.7567 14.2389 64.0704 14.1017 64.0504 14.018C64.0263 13.9176 63.8767 13.872 63.7432 13.8934C63.543 13.9255 63.2253 14.046 63.0491 14.1785ZM97.412 8.89587C97.695 8.92002 98.6255 8.75347 99.54 8.51997C101.039 8.12319 100.972 8.13389 98.9739 8.47165C97.7764 8.68101 97.1289 8.87171 97.412 8.89587ZM91.232 10.0082C91.6566 10.0445 92.2534 9.93141 92.8301 9.73466C93.6618 9.4449 93.5911 9.43885 92.6098 9.68306C92.0211 9.82959 91.475 9.86498 91.4509 9.76455C91.4269 9.66411 91.2186 9.66273 90.9636 9.75575C90.7127 9.86551 90.8782 9.97803 91.232 10.0082ZM50.4062 16.3791C50.23 16.5116 50.5011 16.4855 51.0231 16.3497C52.1965 16.0399 52.3687 15.8906 51.4341 16.0405C51.0336 16.1047 50.5824 16.2465 50.4062 16.3791ZM107.49 7.85383C107.935 7.97376 108.277 7.95374 108.578 7.76632C108.821 7.62308 108.668 7.56079 108.334 7.61429C107.934 7.6785 107.568 7.59808 107.461 7.44139C107.425 7.29074 107.213 7.27262 107.107 7.4112C106.935 7.56048 107.121 7.75668 107.49 7.85383ZM94.5029 9.48388C94.7232 9.53548 95.2105 9.54427 95.611 9.48006C95.9448 9.42656 96.1918 9.30006 96.1717 9.21636C96.1477 9.11592 95.6644 9.12387 95.0636 9.22018C94.5296 9.30579 94.2786 9.41555 94.5029 9.48388ZM75.7028 12.602C75.9151 12.6201 76.5199 12.5405 76.9751 12.4154C77.4971 12.2795 77.2848 12.2614 76.5505 12.3792C75.8122 12.4801 75.4238 12.5945 75.7028 12.602ZM72.1262 13.297C72.5588 13.3667 72.7284 13.4959 72.4775 13.6057C72.2265 13.7155 72.4935 13.6727 73.145 13.4987C74.2557 13.2163 74.2517 13.1996 73.0648 13.1639C71.4613 13.1255 71.1235 13.1622 72.1262 13.297ZM97.587 9.33713C97.6391 9.55474 100.93 9.11409 101.549 8.80621C101.918 8.60809 101.435 8.61604 99.8285 8.85612C98.5562 9.0427 97.5669 9.25343 97.587 9.33713ZM115.167 6.62323C115.379 6.64135 115.984 6.56178 116.439 6.43665C116.961 6.30083 116.749 6.28272 116.015 6.40043C115.276 6.5014 114.888 6.61582 115.167 6.62323ZM83.6732 12.0195C83.6532 11.9358 83.1312 12.0717 82.5585 12.2851C81.6721 12.6358 81.5386 12.6572 82.0245 12.3707C82.3181 12.1499 82.2434 12.1271 81.7962 12.2857C80.3798 12.7387 81.0993 12.8493 83.1687 12.5176C84.3035 12.3357 85.7213 12.1779 86.4089 12.1546C87.3048 12.1327 87.5637 12.0564 87.5116 11.8388C87.4595 11.6212 87.0429 11.6184 86.1244 11.8352C85.0724 12.0733 84.9269 12.0445 85.1805 11.6562C85.4888 11.207 85.422 11.2177 84.6264 11.6581C84.1365 11.9279 83.6893 12.0865 83.6732 12.0195ZM67.2547 14.3734C67.0745 14.4892 67.1613 14.5622 67.5618 14.498C67.8956 14.4445 68.4096 14.2752 68.5898 14.1594C68.766 14.0269 68.6832 13.9706 68.2826 14.0348C67.9489 14.0883 67.4309 14.2409 67.2547 14.3734ZM110.39 7.80614C111.777 7.80974 113.98 7.45661 113.394 7.3246C113.17 7.25627 112.152 7.34982 111.151 7.51033C109.749 7.73505 109.557 7.80064 110.39 7.80614ZM102.275 9.22882C102.648 9.34271 102.874 9.70631 102.809 10.0123C102.717 10.4963 102.874 10.5754 103.876 10.4149C104.877 10.2543 104.936 10.2102 104.036 10.2154C103.273 10.2159 103.261 10.1657 103.862 10.0694C104.329 9.99447 104.51 9.87867 104.289 9.82708C104.065 9.75875 104.182 9.67039 104.583 9.60618C104.984 9.54198 105.475 9.56751 105.707 9.66932C106.089 9.81669 106.552 9.72504 108.695 9.12083C112.337 8.11984 112.956 7.81195 111.118 7.95022C110.301 8.01168 109.5 8.14008 109.312 8.2224C109.057 8.31542 109.402 8.31214 110.003 8.21583C110.604 8.11952 111.158 8.11762 111.182 8.21805C111.23 8.41892 109.2 8.62277 105.758 8.7226C102.457 8.83449 101.452 8.97826 102.275 9.22882ZM94.3696 10.3743C94.3937 10.4748 93.7929 10.5711 92.7008 10.6419C91.6755 10.7019 91.008 10.809 91.032 10.9094C91.0922 11.1605 92.4553 11.0636 94.1668 10.685C95.678 10.3384 96.3321 9.88593 94.9971 10.0999C94.5966 10.1642 94.3456 10.2739 94.3696 10.3743ZM88.5462 11.2384C88.7585 11.2565 89.3633 11.1769 89.8185 11.0518C90.3405 10.916 90.1281 10.8979 89.3939 11.0156C88.6556 11.1165 88.2671 11.2309 88.5462 11.2384ZM53.6507 16.9019C53.6707 16.9856 54.0245 17.0158 54.425 16.9516C54.7588 16.8981 54.8723 16.793 54.652 16.7414C54.4276 16.673 54.0779 16.6596 53.8776 16.6917C53.7441 16.7131 53.6266 16.8014 53.6507 16.9019ZM100.211 9.87256C100.742 10.0655 101.897 9.96726 101.837 9.71617C101.805 9.58226 101.317 9.57346 99.9542 9.67031C99.8835 9.66427 99.9782 9.77075 100.211 9.87256ZM114.93 7.94755C115.924 8.04883 115.569 8.59243 114.352 8.71809C112.867 8.88655 112.157 9.1047 112.539 9.25207C113.086 9.51195 111.109 10.2287 110.119 10.1441C109.128 10.0596 108.189 10.1927 108.241 10.4103C108.298 10.6446 113.038 10.1801 114.329 9.78199C114.973 9.57455 115.711 9.47357 116.202 9.4991C116.69 9.50789 116.894 9.49253 116.682 9.47442C116.465 9.43956 116.83 9.2247 117.469 9.00051C118.485 8.61169 118.418 8.62239 117.091 8.86989C116.298 9.03178 115.38 9.24855 115.196 9.34761C114.945 9.45737 114.356 9.60389 113.822 9.6895C113.154 9.79651 113.068 9.72352 113.479 9.41426C114.313 8.84597 117.904 7.92264 119.162 7.96437C119.728 8.01268 120.129 7.94847 120.43 7.76105C121.034 7.38622 119.901 7.2896 118.52 7.59801C117.601 7.81478 117.322 7.80737 117.553 7.61391C117.827 7.30932 116.86 7.32521 115.062 7.63088C114.064 7.80813 114.072 7.84161 114.93 7.94755ZM94.8638 10.9904C95.3004 11.0769 93.5849 11.4388 91.2365 11.7631C90.3607 11.8687 90.3647 11.8855 91.2686 11.897C91.8227 11.8951 92.4983 11.8216 92.7573 11.7453C93.593 11.4723 96.0521 11.3214 95.6957 11.5697C95.4488 11.6962 95.6651 11.7311 95.9988 11.6776C96.3994 11.6134 96.701 11.4259 96.7277 11.2479C96.6715 11.0135 96.8051 10.9921 97.187 11.1395C97.486 11.2306 98.4526 11.2147 99.3912 11.0816C100.33 10.9485 100.66 10.8783 100.18 10.903C99.4926 10.9263 99.5433 10.8486 100.308 10.5696C101.269 10.2417 101.195 10.2189 99.9931 10.4115C99.1921 10.5399 98.6074 10.7032 98.6274 10.7869C98.6475 10.8706 98.1762 10.9287 97.6141 10.8972C97.052 10.8656 96.5767 10.907 96.5968 10.9907C96.6168 11.0744 96.267 11.061 95.8264 10.9578C95.4566 10.8606 94.9572 10.8016 94.757 10.8337C94.5567 10.8658 94.6395 10.9221 94.8638 10.9904ZM127.211 6.55238C127.506 6.62675 127.769 6.56721 127.933 6.38446C128.101 6.21844 128.512 5.90919 128.881 5.71107C129.249 5.51295 128.92 5.58319 128.163 5.89573C127.335 6.20223 126.92 6.49475 127.211 6.55238ZM57.373 17.1047C57.5853 17.1228 58.1901 17.0433 58.6454 16.9181C59.1674 16.7823 58.955 16.7642 58.2207 16.8819C57.4824 16.9829 57.094 17.0973 57.373 17.1047ZM122.312 6.93785C121.831 7.24107 122.698 7.10195 123.981 6.67033C124.817 6.3973 124.809 6.36382 123.808 6.52433C123.207 6.62064 122.489 6.80531 122.312 6.93785ZM44.7703 19.4727C44.9826 19.4908 45.5874 19.4112 46.0426 19.2861C46.5646 19.1503 46.3522 19.1322 45.618 19.2499C44.8797 19.3508 44.4912 19.4653 44.7703 19.4727ZM64.9189 16.4861C64.6052 16.6233 63.3569 16.9103 62.2302 17.1257C61.0994 17.3243 60.2476 17.5304 60.3972 17.576C60.6094 17.5941 62.2075 17.3205 64.0525 16.9205C65.8348 16.5478 67.1377 16.1999 66.9174 16.1483C66.4021 16.0223 65.6718 16.1568 64.9189 16.4861ZM82.691 13.7066C82.6991 13.7401 83.2652 13.7884 83.894 13.8092C85.0142 13.8556 85.0769 13.8282 84.145 13.6995C83.213 13.5708 82.659 13.5727 82.691 13.7066ZM120.8 7.8582C120.888 8.22646 124.193 8.1313 126.58 7.67911C128.566 7.29113 128.758 7.22555 127.909 7.15309C127.41 7.09408 126.251 7.17556 125.383 7.31467C124.516 7.45378 123.361 7.552 122.807 7.55392C121.49 7.55636 120.752 7.65733 120.8 7.8582ZM129.585 6.62378C129.008 6.82053 129.216 6.8219 130.485 6.61858C131.419 6.46877 132.008 6.32224 131.788 6.27065C131.276 6.16142 130.742 6.24704 129.585 6.62378ZM80.7927 14.4628C80.8128 14.5465 81.2881 14.5051 81.81 14.3693C82.328 14.2167 82.7793 14.0749 82.7712 14.0414C82.7632 14.0079 82.2879 14.0493 81.7539 14.1349C81.2199 14.2206 80.7687 14.3624 80.7927 14.4628ZM67.4382 16.5863C67.4583 16.67 66.9524 16.8728 66.2969 17.03C65.6414 17.1872 65.8456 17.1718 66.7762 17.0053C68.3702 16.715 69.605 16.0825 68.1364 16.3179C67.7359 16.3821 67.4182 16.5026 67.4382 16.5863ZM70.3221 16.4716C70.8335 16.5808 71.8789 16.6045 72.7627 16.5323C73.6425 16.4434 74.338 16.4536 74.3621 16.554C74.3861 16.6545 74.1271 16.7308 73.7814 16.734C72.8107 16.7332 71.0606 17.2397 71.1247 17.5076C71.1728 17.7084 71.5066 17.6549 73.19 17.1591C74.9989 16.6084 75.266 16.5656 76.0644 16.7157C76.5678 16.7914 77.3221 16.7574 77.7066 16.6263C78.1578 16.4844 78.4955 16.4476 78.5156 16.5313C78.5517 16.682 81.0857 16.5539 82.079 16.3599C82.4088 16.2896 82.625 16.3245 82.6491 16.4249C82.6691 16.5086 82.9562 16.5495 83.3567 16.4853C84.4915 16.3034 83.1737 16.0106 81.7438 16.1181C79.9762 16.2624 81.3805 15.7592 83.2109 15.5874C83.8904 15.5307 84.4792 15.3841 84.4551 15.2837C84.4271 15.1665 83.6848 15.2507 82.3618 15.515C81.1095 15.7852 80.5007 15.8481 80.7397 15.6881C80.9159 15.5556 80.7116 15.5709 80.1228 15.7175C79.4713 15.8914 78.9173 15.8933 78.6102 15.7687C78.2323 15.6381 77.6155 15.6675 76.5635 15.9056C75.7745 16.0843 74.6277 16.216 74.1364 16.1904C72.8707 16.1152 70.5837 16.1168 69.9161 16.2238C69.6451 16.2499 69.8147 16.3791 70.3221 16.4716ZM44.7785 20.3752C44.8066 20.4924 47.1057 20.541 47.7772 20.4507C48.111 20.3972 48.0909 20.3135 47.8706 20.262C47.6463 20.1936 47.8973 20.0839 48.4313 19.9982C50.6341 19.6451 49.3724 19.5866 47.0988 19.9337C45.8265 20.1203 44.7665 20.325 44.7785 20.3752ZM133.294 6.48116C132.559 6.59887 131.613 6.69845 131.125 6.68966C130.709 6.68691 130.179 6.78926 129.936 6.9325C129.756 7.0483 130.043 7.08919 130.644 6.99289C131.311 6.88588 131.531 6.93747 131.292 7.09745C130.991 7.28487 131.195 7.26951 132.105 7.01926C132.757 6.8453 133.88 6.61315 134.481 6.51684C135.215 6.39914 135.658 6.2238 135.618 6.05641C135.578 5.88902 135.366 5.87089 135.056 6.02483C134.809 6.15133 134.028 6.36345 133.294 6.48116ZM88.954 13.5196C90.1329 13.5218 92.4733 13.164 92.0286 13.0441C91.8123 13.0092 90.8617 13.0921 89.7897 13.2465C88.5174 13.4331 88.2584 13.5094 88.954 13.5196ZM40.7974 21.1177C40.8335 21.2684 42.8561 21.031 43.1578 20.8436C43.4008 20.7004 42.9174 20.7083 42.1832 20.826C41.3821 20.9545 40.7894 21.0842 40.7974 21.1177ZM137.741 6.23756C137.761 6.32126 137.431 6.3915 137.015 6.38875C136.531 6.39669 136.343 6.47901 136.575 6.58082C136.741 6.69334 137.724 6.7444 138.753 6.70106C140.195 6.64373 140.796 6.54743 141.89 6.19812C143.562 5.65207 143.502 5.40098 141.794 5.79638C141.072 5.96431 139.894 6.25736 139.172 6.42529C138.187 6.65276 137.979 6.65138 138.197 6.40771C138.362 6.22495 138.813 6.08309 139.159 6.0798C139.504 6.07652 139.751 5.95001 139.719 5.8161C139.679 5.64871 139.267 5.6627 138.678 5.80922C138.16 5.96178 137.717 6.13712 137.741 6.23756ZM133.434 7.06703C133.191 7.21027 132.398 7.37215 131.648 7.4229C130.764 7.49506 130.438 7.58204 130.733 7.65642C131.02 7.69731 132.329 7.66138 133.755 7.5371C136.873 7.24573 137.274 7.18153 137.226 6.98066C137.202 6.88023 136.518 6.92027 135.784 7.03798C134.582 7.2306 134.507 7.20782 135.123 6.88321C135.742 6.57533 135.73 6.5251 134.862 6.66421C134.262 6.76052 133.614 6.95123 133.434 7.06703ZM127.855 8.08308C129.735 8.40747 131.979 8.517 132.277 8.31284C132.461 8.21378 131.667 8.08041 130.55 8.05075C129.434 8.02109 128.64 7.88771 128.824 7.78865C129.004 7.67285 128.654 7.6594 127.987 7.76641C127.052 7.91622 126.998 7.97714 127.855 8.08308ZM118.161 9.86301C117.981 9.97881 118.268 10.0197 118.869 9.9234C119.469 9.82709 119.716 9.70059 119.496 9.649C119.272 9.58066 118.922 9.56721 118.789 9.58861C118.655 9.61001 118.337 9.73048 118.161 9.86301ZM145.57 5.64305C145.389 5.75885 145.543 5.82115 145.877 5.76764C146.277 5.70344 146.591 5.56624 146.571 5.48254C146.547 5.38211 146.397 5.33655 146.264 5.35795C146.064 5.39006 145.746 5.51052 145.57 5.64305ZM122.855 9.49292C123.476 9.4803 124.352 9.37467 124.807 9.24955C125.266 9.14116 125.054 9.12304 124.387 9.23005C123.715 9.32032 123.365 9.30688 123.541 9.17434C123.784 9.0311 123.447 9.06786 122.795 9.24183C121.818 9.50277 121.822 9.51951 122.855 9.49292ZM108.522 11.582C108.542 11.6657 108.696 11.728 108.829 11.7066C109.029 11.6745 109.343 11.5373 109.523 11.4215C109.7 11.289 109.55 11.2434 109.216 11.2969C108.816 11.3611 108.498 11.4816 108.522 11.582ZM142.51 6.7593C143.049 6.9857 141.55 7.38248 140.43 7.33609C139.868 7.30452 139.055 7.38271 138.6 7.50783C138.078 7.64365 138.29 7.66177 139.024 7.54406C140.029 7.40029 140.175 7.4291 139.673 7.64862C139.171 7.86815 138.429 7.95237 136.916 8.00366C135.058 8.05823 134.791 8.10105 134.513 8.3889C134.001 8.85347 134.075 8.87625 135.186 8.5939C135.704 8.44133 136.584 8.35244 137.071 8.36123C138.262 8.41366 140.853 7.94611 140.393 7.75922C140.082 7.6179 143.553 7.06146 144.869 7.05901C145.215 7.05573 145.67 6.9306 145.913 6.78736C146.215 6.59995 146.077 6.6046 145.43 6.79531C144.72 7.01345 144.649 7.00741 145.276 6.73301C145.962 6.41443 146.233 6.38837 147.103 6.54453C147.677 6.62631 148.368 6.61974 148.615 6.49324C148.866 6.38348 149.683 6.32202 150.391 6.3824C151.095 6.42605 151.845 6.3753 152.1 6.28228C152.284 6.18322 152.139 6.1544 151.738 6.21861C151.271 6.29351 150.893 6.16289 150.837 5.92854C150.753 5.57702 150.403 5.56356 148.867 5.80968C147.866 5.97019 146.715 6.08515 146.232 6.0931C144.986 6.10158 142.128 6.61194 142.51 6.7593ZM84.9321 16.4066C84.9095 16.6014 85.2045 16.6758 85.5222 16.5553C85.844 16.4516 86.8106 16.4357 87.597 16.5356C88.5957 16.6536 88.9375 16.6336 88.6223 16.4755C88.386 16.357 88.5462 16.1575 89.0054 16.0491C89.4647 15.9407 89.2604 15.9561 88.5969 16.0798C87.6077 16.2906 87.1043 16.2148 87.2831 15.8037C87.267 15.7368 86.7878 15.7615 86.1202 15.8685C85.386 15.9862 84.9508 16.195 84.9321 16.4066ZM153.153 5.47032C152.977 5.60285 153.248 5.57679 153.77 5.44096C154.943 5.13117 155.115 4.9819 154.181 5.13171C153.78 5.19592 153.329 5.33778 153.153 5.47032ZM118.084 10.9878C118.092 11.0213 118.587 11.0636 119.149 11.0951C119.991 11.1341 120.191 11.102 120.135 10.8677C120.099 10.717 119.603 10.6748 119.069 10.7604C118.535 10.846 118.076 10.9544 118.084 10.9878ZM92.4711 15.1807C92.2241 15.3072 92.6994 15.2657 93.4217 15.0978C94.9329 14.7512 95.1051 14.602 93.77 14.816C93.236 14.9016 92.6513 15.0649 92.4711 15.1807ZM127.89 9.6766C127.643 9.8031 128.118 9.76167 128.841 9.59374C130.352 9.24719 130.524 9.09791 129.189 9.31193C128.655 9.39753 128.07 9.5608 127.89 9.6766ZM125.571 10.4134C125.591 10.497 125.745 10.5593 125.878 10.5379C126.078 10.5058 126.392 10.3686 126.572 10.2528C126.749 10.1203 126.599 10.0747 126.265 10.1283C125.865 10.1925 125.547 10.3129 125.571 10.4134ZM152.031 6.57151C150.578 6.87389 150.782 6.85853 152.781 6.52076C154.312 6.2579 156.276 6.06474 157.247 6.06559C159.121 6.07797 162.07 5.65735 161.339 5.49653C161.118 5.44494 161.353 5.26823 161.8 5.10963C162.444 4.90218 161.965 4.92687 160.359 5.16695C156.074 5.80159 155.803 5.82765 155.237 5.77934C154.954 5.75519 154.558 5.83614 154.377 5.95194C154.197 6.06773 153.087 6.35008 152.031 6.57151ZM91.5434 15.9377C91.5554 15.988 91.8425 16.0289 92.255 16.0149C92.6008 16.0116 92.9266 15.9246 92.9065 15.8409C92.8825 15.7405 92.5287 15.7103 92.1949 15.7638C91.7944 15.828 91.5354 15.9043 91.5434 15.9377ZM147.028 7.39082C147.06 7.52473 147.63 7.58977 148.243 7.54368C148.927 7.50363 149.194 7.46083 148.911 7.43667C148.628 7.41252 148.725 7.24047 149.093 7.04236C149.654 6.77865 149.509 6.74984 148.374 6.93175C147.639 7.04946 146.996 7.25691 147.028 7.39082ZM15.6571 29.5977C15.529 29.9311 15.8321 30.039 16.3661 29.9533C16.9001 29.8677 17.143 29.7245 16.9107 29.6227C16.6823 29.5376 16.7918 29.4158 17.1256 29.3623C17.5261 29.2981 17.8091 29.3222 17.8332 29.4227C17.8532 29.5064 18.3406 29.5152 18.8746 29.4295C19.4086 29.3439 19.8558 29.1853 19.8318 29.0849C19.8117 29.0012 19.47 29.0212 19.0187 29.1631C18.5715 29.3217 18.426 29.2929 18.6489 29.0659C18.9892 28.7506 18.2189 28.7177 16.5501 28.9852C16.1496 29.0494 15.7304 29.3252 15.6571 29.5977ZM93.8507 16.8889C93.8708 16.9726 94.2246 17.0028 94.6251 16.9386C94.9588 16.8851 95.0723 16.78 94.852 16.7284C94.6277 16.6601 94.2779 16.6466 94.0777 16.6787C93.9441 16.7001 93.8267 16.7885 93.8507 16.8889ZM10.4503 30.4324C9.93636 30.6017 9.75617 30.7175 10.0899 30.664C11.5585 30.4285 8.9419 31.3695 7.34385 31.643C6.34257 31.8035 6.02085 31.9073 6.63365 31.8612C7.1797 31.8258 8.21713 31.8159 8.84998 31.8535C9.55359 31.8972 10.5668 31.7869 11.4853 31.5701C12.2703 31.3747 12.7417 31.3166 12.5615 31.4324C12.3145 31.5589 12.6015 31.5998 13.1355 31.5142C13.6695 31.4286 14.2422 31.2151 14.4104 31.0491C14.6293 30.8054 14.2248 30.8528 12.1087 31.279C8.86996 31.9372 8.36662 31.8615 10.2248 30.9378C11.7774 30.1849 12.5584 29.9728 12.2968 30.3276C12.2541 30.4387 12.7494 30.481 13.3542 30.4014C14.0298 30.3279 14.5597 30.2255 14.5477 30.1753C14.5236 30.0749 12.2833 29.9821 11.7453 30.051C11.545 30.0831 10.9643 30.2631 10.4503 30.4324ZM158.238 7.01919C158.45 7.03731 159.055 6.95774 159.51 6.83261C160.032 6.69679 159.82 6.67868 159.085 6.79639C158.347 6.89736 157.959 7.01178 158.238 7.01919ZM151.165 8.74402C149.362 9.03295 149.3 9.06038 150.365 9.1677C151.285 9.2462 151.756 9.18803 152.454 8.91967C153.149 8.63457 153.895 8.56708 155.84 8.5855C160.08 8.6358 160.968 8.58038 161.313 8.28182C161.481 8.11581 161.056 8.07958 160.322 8.19729C159.584 8.29826 158.209 8.34488 157.23 8.31056C156.181 8.2702 154.876 8.32287 154.275 8.41918C153.671 8.49875 154.047 8.3341 155.15 8.01828C156.19 7.72989 156.696 7.5271 156.228 7.602C155.69 7.67087 155.537 7.60859 155.772 7.43187C156.015 7.28863 155.497 7.44119 154.61 7.79187C153.795 8.14859 152.233 8.57281 151.165 8.74402ZM22.546 28.841C22.566 28.9247 23.0533 28.9335 23.6541 28.8372C24.1881 28.7516 24.4351 28.6251 24.2148 28.5735C23.9905 28.5051 23.5072 28.5131 23.1066 28.5773C22.7729 28.6308 22.5219 28.7406 22.546 28.841ZM174.09 4.61701C174.098 4.65049 174.585 4.65928 175.198 4.61319C175.744 4.5778 176.007 4.51825 175.783 4.44992C175.342 4.34673 174.058 4.4831 174.09 4.61701ZM161.554 6.97426C160.997 7.2547 161.009 7.30491 161.673 7.18116C163.872 6.81129 164.96 6.72378 164.595 6.93864C164.352 7.08188 163.96 7.17956 163.614 7.18285C163.268 7.18613 162.876 7.28382 162.633 7.42706C162.272 7.65865 163.423 7.5437 166.081 7.06545C166.878 6.9203 167.703 6.89232 167.936 6.99413C168.475 7.22053 171.495 6.80595 172.094 6.41438C172.337 6.27114 172.121 6.23628 171.662 6.34466C169.738 6.70521 168.984 6.73922 169.116 6.42254C169.201 6.20027 168.847 6.17008 167.783 6.35803C166.982 6.48644 166.366 6.5158 166.412 6.4214C166.455 6.31026 165.755 6.28336 164.805 6.36622C163.176 6.51144 162.092 6.71413 161.554 6.97426ZM42.5078 26.232C42.2955 26.2139 41.7895 26.4166 41.4371 26.6817C41.0847 26.9468 40.9326 27.1798 41.1449 27.1979C41.715 27.2629 43.6574 26.6908 43.2168 26.5876C42.9965 26.536 43.2274 26.3426 43.6706 26.1672C44.6198 25.7891 45.8107 25.8416 45.2113 26.2331C44.9644 26.3596 45.377 26.3456 45.9737 26.2326C46.5665 26.1028 47.2059 25.8786 47.3074 25.7233C47.4755 25.5573 47.33 25.5285 47.079 25.6382C46.828 25.748 46.1445 25.788 45.5784 25.7397C44.804 25.6901 44.2619 25.7422 43.76 25.9617C43.3128 26.1203 42.7868 26.2394 42.5078 26.232ZM25.3564 28.9988C25.3885 29.1328 25.8838 29.175 26.4178 29.0894C26.9519 29.0038 27.3911 28.8117 27.359 28.6778C27.3269 28.5439 26.8316 28.5016 26.2975 28.5872C25.7635 28.6728 25.3243 28.8649 25.3564 28.9988ZM101.86 17.0477C102.827 17.0318 102.905 17.0713 102.199 17.3062C101.556 17.5136 101.906 17.5271 103.528 17.3539C105.759 17.118 107.229 17.1778 105.56 17.4453C105.093 17.5203 104.649 17.6956 104.681 17.8295C104.726 18.0136 104.997 17.9876 105.962 17.6764C106.601 17.4522 107.028 17.2099 106.867 17.1142C106.776 17.0244 107.258 16.7212 107.956 16.4528C108.761 16.1499 108.571 16.1282 107.386 16.3878C106.267 16.6367 105.592 16.7102 105.564 16.593C105.539 16.4926 104.919 16.5052 104.118 16.6336C103.383 16.7513 102.9 16.7593 103.08 16.6435C103.327 16.517 102.852 16.5584 102.063 16.737C100.815 17.024 100.756 17.0682 101.86 17.0477ZM97.6533 17.4265C97.8656 17.4447 98.4704 17.3651 98.9256 17.24C99.4476 17.1041 99.2352 17.086 98.501 17.2037C97.7627 17.3047 97.3743 17.4191 97.6533 17.4265ZM93.233 18.3611C92.986 18.4876 93.4613 18.4462 94.1835 18.2783C95.6948 17.9317 95.867 17.7824 94.5319 17.9964C93.9979 18.0821 93.4132 18.2453 93.233 18.3611ZM51.0309 25.3524C51.2632 25.4542 51.4514 25.3719 51.4073 25.1877C51.43 24.9929 51.2056 24.9246 51.0214 25.0236C50.8332 25.1059 50.8025 25.2673 51.0309 25.3524ZM32.674 28.2951C33.1693 28.3374 33.507 28.3006 33.483 28.2002C33.4268 27.9658 32.5777 27.8934 32.1385 28.0854C32.017 28.1571 32.2494 28.2589 32.674 28.2951ZM21.4274 29.9589C21.4395 30.0092 21.7265 30.05 22.1391 30.0361C22.4849 30.0328 22.8106 29.9458 22.7906 29.8621C22.7665 29.7617 22.4127 29.7315 22.0789 29.785C21.6784 29.8492 21.4194 29.9255 21.4274 29.9589ZM18.6093 30.6367C18.8376 30.7218 19.2501 30.7078 19.5718 30.6041C20.4743 30.3203 20.2219 30.1348 19.1538 30.306C18.6198 30.3916 18.3769 30.5349 18.6093 30.6367ZM96.2302 18.1414C96.2743 18.3255 97.5587 18.1891 97.9231 17.9743C98.1033 17.8585 97.8162 17.8176 97.2822 17.9032C96.6814 17.9995 96.2222 18.1079 96.2302 18.1414ZM52.4848 25.3453C52.6744 25.5582 53.641 25.5423 53.5929 25.3414L53.5328 25.0904C53.5087 24.9899 53.2256 24.9658 52.8919 25.0193C52.5581 25.0728 52.386 25.222 52.4848 25.3453ZM34.5791 28.1461C34.3908 28.2285 34.8661 28.187 35.5377 28.0968C36.276 27.9958 36.9982 27.8279 37.1744 27.6953C37.5388 27.4805 35.1438 27.8992 34.5791 28.1461ZM64.3881 23.8195C64.4282 23.9869 64.6405 24.005 64.746 23.8664C64.9182 23.7171 65.9075 23.5064 67.1838 23.3366C68.485 23.1743 68.6354 23.127 67.635 23.1947C64.9755 23.3777 64.2492 23.5289 64.3881 23.8195ZM56.9867 25.0408C57.0027 25.1077 57.486 25.0998 58.02 25.0142C59.0881 24.8429 59.319 24.6495 58.5406 24.5831C57.9745 24.5347 56.9426 24.8566 56.9867 25.0408ZM54.948 25.2111C54.9681 25.2948 55.1216 25.3571 55.2551 25.3357C55.4554 25.3036 55.7691 25.1664 55.9493 25.0506C56.1255 24.9181 55.9759 24.8725 55.6422 24.926C55.2416 24.9902 54.9239 25.1107 54.948 25.2111ZM27.7999 29.6501C27.868 29.9346 28.7478 29.8457 29.2257 29.5258C29.4727 29.3993 29.1776 29.3249 28.7691 29.3556C28.2898 29.3803 27.8772 29.3943 27.8105 29.405C27.8064 29.3883 27.7678 29.5161 27.7999 29.6501ZM80.0202 21.3657C79.84 21.4815 80.1271 21.5224 80.7279 21.4261C81.3286 21.3298 81.5756 21.2033 81.3553 21.1517C81.131 21.0833 80.7812 21.0699 80.6477 21.0913C80.5142 21.1127 80.1964 21.2332 80.0202 21.3657ZM69.7017 23.1415C69.7458 23.3256 70.0796 23.2721 71.0488 22.9777C71.759 22.7596 72.3317 22.5461 72.3237 22.5126C72.3157 22.4791 71.7109 22.5587 70.9806 22.6931C70.2503 22.8276 69.6736 23.0243 69.7017 23.1415ZM178.854 5.69581C179.074 5.74741 179.695 5.73479 180.096 5.67058C180.563 5.59568 180.48 5.53943 179.855 5.5353C178.539 5.53774 178.272 5.58055 178.854 5.69581ZM6.28291 33.2906C6.31499 33.4245 7.60335 33.3049 7.90904 33.1342C8.08925 33.0184 7.80619 32.9942 7.27217 33.0798C6.73815 33.1655 6.2789 33.2738 6.28291 33.2906ZM78.7654 21.9145C78.9857 21.9661 79.8068 21.9214 80.6079 21.793C81.6091 21.6324 81.8254 21.6673 81.6065 21.911C81.3289 22.1988 81.3996 22.2049 82.2233 21.8816C82.7293 21.6788 83.1564 21.4366 83.1324 21.3361C83.1083 21.2357 82.9001 21.2343 82.7118 21.3166C82.5236 21.3989 81.5851 21.532 80.5678 21.6256C79.5464 21.7024 78.6626 21.7745 78.5291 21.7959C78.3916 21.8006 78.5411 21.8462 78.7654 21.9145ZM61.7195 24.5428C61.7315 24.593 62.0186 24.6339 62.4311 24.6199C62.7769 24.6166 63.1026 24.5296 63.0826 24.4459C63.0585 24.3455 62.7047 24.3153 62.371 24.3688C61.9704 24.433 61.7115 24.5093 61.7195 24.5428ZM50.6747 26.4698C50.4237 26.5795 50.7028 26.5869 51.3035 26.4906C51.9043 26.3943 52.489 26.2311 52.6692 26.1153C53.0964 25.873 51.2981 26.1786 50.6747 26.4698ZM33.4646 29.2808C33.2964 29.4468 33.3792 29.5031 33.7677 29.3887C34.1562 29.2742 34.3951 29.1143 34.371 29.0138C34.3149 28.7795 33.8597 28.9046 33.4646 29.2808ZM21.6721 30.98C21.6801 31.0135 22.3797 31.0404 23.2048 31.0124C24.6507 30.9718 24.7174 30.9612 23.7895 30.8492C22.8575 30.7205 21.6279 30.7959 21.6721 30.98ZM15.6804 32.0101C15.7004 32.0938 16.3092 32.0309 17.0315 31.863C17.7537 31.6951 18.3384 31.5318 18.3304 31.4983C18.3224 31.4649 17.7136 31.5277 16.9793 31.6454C16.2451 31.7631 15.6603 31.9264 15.6804 32.0101ZM173.374 6.83507C173.519 6.86388 174.803 6.72753 176.147 6.54699C177.56 6.37249 178.982 6.23147 179.328 6.22818C179.741 6.2142 180.004 6.15465 179.979 6.05422C179.959 5.97052 179.268 5.97709 178.392 6.08272C176.098 6.34612 173.024 6.82161 173.374 6.83507ZM163.703 8.42017C164.178 8.37874 164.979 8.25033 165.371 8.15265C165.827 8.02753 165.485 8.04756 164.55 8.19737C163.616 8.34718 163.29 8.43416 163.703 8.42017ZM71.8873 23.2952C71.5415 23.2985 71.1531 23.4129 70.9849 23.5789C70.6952 23.8166 71.037 23.7965 72.4775 23.444C74.448 22.989 78.3371 22.7306 76.5708 23.1702C76.0489 23.306 75.9394 23.4278 76.2265 23.4687C76.5135 23.5096 77.1022 23.3631 77.4039 23.1757C77.8938 22.9059 78.1568 22.8464 78.3932 22.9649C78.6215 23.05 79.2304 22.9872 79.8191 22.8407C80.5373 22.656 80.2502 22.6151 78.6748 22.6938C77.5119 22.7586 76.5333 22.7242 76.5133 22.6406C76.4892 22.5401 76.0139 22.5815 75.4919 22.7174C74.974 22.8699 74.4947 22.8946 74.4666 22.7774C74.4265 22.6101 74.2262 22.6422 73.4653 22.938C72.9553 23.124 72.2998 23.2812 71.8873 23.2952ZM66.0518 24.109C66.2721 24.1606 67.0811 24.0657 67.8034 23.8978C69.6444 23.481 69.4201 23.4126 67.3508 23.7443C66.4162 23.8942 65.8315 24.0574 66.0518 24.109ZM37.7528 28.6629C37.7969 28.847 41.0572 28.5677 41.6219 28.3208C41.8768 28.2278 41.3976 28.2525 40.5965 28.3809C39.7955 28.5093 39.1079 28.5326 39.0878 28.4489C39.0638 28.3485 38.714 28.335 38.3802 28.3885C37.9797 28.4527 37.7287 28.5625 37.7528 28.6629ZM8.38172 33.3713C8.40177 33.455 8.68883 33.4959 9.08934 33.4317C9.4231 33.3782 9.73682 33.241 9.71677 33.1573C9.69271 33.0568 9.34291 33.0434 9.00914 33.0969C8.60863 33.1611 8.35766 33.2709 8.38172 33.3713ZM166.291 8.23115C166.115 8.36369 166.386 8.33763 166.908 8.2018C168.082 7.89201 168.254 7.74274 167.319 7.89255C166.919 7.95676 166.467 8.09862 166.291 8.23115ZM108.88 17.4172C108.7 17.533 108.932 17.6348 109.349 17.6375C109.832 17.6296 109.962 17.5914 109.667 17.5171C109.446 17.4655 109.614 17.2994 110.007 17.2018C110.592 17.0385 110.65 16.9943 110.05 17.0906C109.645 17.1381 109.127 17.2907 108.88 17.4172ZM25.8095 30.8904C25.8416 31.0243 28.8082 30.9659 29.8095 30.8054C30.21 30.7412 26.3783 30.6601 25.911 30.7351C25.8442 30.7458 25.7935 30.8234 25.8095 30.8904ZM30.7146 30.2431C30.9268 30.2612 31.5316 30.1817 31.9869 30.0565C32.5089 29.9207 32.2965 29.9026 31.5622 30.0203C30.824 30.1213 30.4355 30.2357 30.7146 30.2431ZM18.5349 32.352C18.567 32.486 19.0623 32.5282 19.5964 32.4426C20.4641 32.3035 20.5189 32.2426 19.7365 32.1594C18.5963 32.0293 18.4627 32.0507 18.5349 32.352ZM179.806 6.77729C181.786 6.6511 181.986 6.61899 181.926 6.3679C181.89 6.21725 181.277 6.26335 180.154 6.49548C178.639 6.8253 178.577 6.85273 179.806 6.77729ZM61.0376 25.7472C60.4915 25.7826 59.828 25.9063 59.6438 26.0054C59.5303 26.1105 60.0884 26.1253 61.031 26.009C61.9775 25.9094 62.6998 25.7414 62.7425 25.6303C62.7144 25.5131 62.9187 25.4978 63.147 25.5828C63.3086 25.6786 63.7999 25.7041 64.1336 25.6506C64.4674 25.5971 64.3646 25.4572 63.8532 25.3479C63.2711 25.2327 62.7918 25.2574 62.5528 25.4173C62.3099 25.5606 61.6504 25.7011 61.0376 25.7472ZM35.9748 29.9213C35.9828 29.9548 36.4581 29.9134 36.9921 29.8278C37.5261 29.7422 37.9773 29.6003 37.9533 29.4999C37.9332 29.4162 37.4579 29.4576 36.9359 29.5934C36.418 29.746 35.9667 29.8879 35.9748 29.9213ZM82.3837 22.5512C82.604 22.6028 83.2249 22.5902 83.6254 22.526C84.0927 22.4511 84.0098 22.3948 83.385 22.3907C82.0686 22.3931 81.8016 22.4359 82.3837 22.5512ZM39.3324 29.47C39.3445 29.5202 40.1028 29.5029 41.0453 29.3866C42.3297 29.2502 42.5887 29.174 42.0186 29.1089C41.2322 29.009 39.2843 29.2691 39.3324 29.47ZM22.6403 32.1285C22.6604 32.2122 22.8139 32.2745 22.9474 32.2531C23.1477 32.221 23.4614 32.0838 23.6416 31.968C23.8178 31.8354 23.6682 31.7899 23.3345 31.8434C22.934 31.9076 22.6163 32.028 22.6403 32.1285ZM14.0026 33.687C14.0227 33.7707 14.6435 33.7581 15.4445 33.6297C16.1788 33.5119 16.5592 33.364 16.3389 33.3124C16.1146 33.2441 15.4311 33.2842 14.8971 33.3698C14.363 33.4554 13.9785 33.5865 14.0026 33.687ZM84.8002 22.5115C84.8203 22.5952 85.1741 22.6253 85.5746 22.5611C85.9084 22.5076 86.0218 22.4025 85.8015 22.3509C85.5772 22.2826 85.2274 22.2692 85.0272 22.3013C84.8937 22.3227 84.7762 22.411 84.8002 22.5115ZM68.4459 25.1332C68.6662 25.1848 69.4206 25.1507 70.0213 25.0544C71.0226 24.8939 71.0146 24.8604 70.1147 24.8656C68.7275 24.8621 67.8598 25.0012 68.4459 25.1332ZM72.4445 24.7529C71.8718 24.9664 71.8918 25.0501 72.5166 25.0542C72.9372 25.0737 72.2697 25.1807 71.0561 25.3231C69.9053 25.4381 68.908 25.6153 68.928 25.699C68.9882 25.9501 72.7891 25.3234 73.53 24.9439C73.8984 24.7458 74.8836 24.5183 75.5632 24.4615C76.3762 24.3833 76.8982 24.2475 76.8702 24.1303C76.8421 24.0132 76.3628 24.0379 75.8448 24.1904C75.3228 24.3263 74.8475 24.3677 74.8275 24.284C74.7794 24.0831 73.4564 24.3473 72.4445 24.7529ZM48.5711 28.6843C48.7914 28.7358 49.7381 28.6362 50.7393 28.4757C51.8701 28.2771 52.1291 28.2008 51.3161 28.279C50.7073 28.3418 50.2826 28.3056 50.4629 28.1898C50.6471 28.0907 50.1718 28.1322 49.4495 28.3001C48.7273 28.468 48.3508 28.6327 48.5711 28.6843ZM118.932 17.4223C118.952 17.506 119.514 17.5375 120.127 17.4915C120.811 17.4514 121.644 17.4569 122.072 17.5099C123.012 17.6721 126.378 17.2542 126.86 16.951C127.166 16.7803 126.757 16.811 125.839 17.0278C124.787 17.266 124.445 17.286 124.609 17.1032C124.84 16.9098 124.423 16.907 123.493 17.0736C122.496 17.2508 122.004 17.2253 122.031 17.0472C122.053 16.8524 121.495 16.8376 120.494 16.9981C119.626 17.1372 118.912 17.3386 118.932 17.4223ZM56.4399 27.3881C56.8058 27.4685 60.1901 26.839 60.158 26.7051C60.15 26.6716 59.2074 26.788 58.0726 26.9699C57.0046 27.1411 56.2196 27.3365 56.4399 27.3881ZM44.6609 29.4328C44.8184 29.5118 44.5755 29.655 44.1082 29.7299C43.7077 29.7942 43.5195 29.8765 43.7985 29.8839C44.0148 29.9187 45.0508 29.6136 46.0039 29.2522L47.7847 28.5844L46.132 28.9188C45.2055 29.1021 44.5661 29.3263 44.6609 29.4328ZM42.1348 29.5944C42.1469 29.6446 42.4339 29.6855 42.8465 29.6715C43.1923 29.6682 43.518 29.5812 43.498 29.4975C43.4739 29.3971 43.1201 29.3669 42.7863 29.4204C42.3858 29.4846 42.1268 29.5609 42.1348 29.5944ZM179.925 7.85327C179.737 7.93559 180.15 7.9216 180.817 7.8146C181.551 7.69689 182.435 7.62473 182.789 7.65492C183.21 7.67442 184.172 7.64177 184.989 7.58031C186.144 7.4821 186.533 7.36768 186.488 7.18355C186.448 7.01616 185.824 7.01203 184.689 7.19394C183.754 7.34375 183.137 7.3731 183.318 7.2573C183.745 7.01501 180.549 7.56213 179.925 7.85327ZM65.5824 26.2006C65.6425 26.4517 64.9243 26.6363 62.9724 26.8797C62.4344 26.9486 62.1755 27.0248 62.4585 27.049C62.9539 27.0913 65.0512 26.8767 67.5999 26.5203C68.0711 26.4621 68.3035 26.564 68.0806 26.7909C67.9204 26.9904 68.1527 27.0922 68.5532 27.028C68.9537 26.9638 69.138 26.8647 68.8509 26.8238C68.6306 26.7722 68.9162 26.5179 69.4849 26.2876C70.3593 25.8867 70.2846 25.864 68.4622 26.0692C67.0444 26.2269 66.4823 26.1954 66.7132 26.0019C66.8814 25.8359 66.657 25.7676 66.2565 25.8318C65.856 25.896 65.5503 26.0667 65.5824 26.2006ZM32.8296 31.2599C32.8737 31.444 34.1581 31.3076 34.5225 31.0928C34.7027 30.977 34.4156 30.9361 33.8816 31.0217C33.2808 31.118 32.8216 31.2264 32.8296 31.2599ZM191.752 6.00944C191.049 5.96579 190.982 5.97649 191.352 6.07364C191.651 6.16475 191.538 6.26984 191.07 6.34475C189.602 6.58017 191.052 6.55633 193.554 6.29431C195.447 6.09512 195.914 6.02022 195.277 5.96587C194.286 5.88133 194.222 5.61349 195.26 5.60364C195.743 5.59569 195.806 5.56826 195.511 5.49389C195.145 5.41348 194.607 5.48234 193.834 5.72793C193.057 5.95677 192.385 6.04704 191.752 6.00944ZM85.3265 23.2614C85.5388 23.2796 86.0608 23.1437 86.5 22.9516C87.0607 22.6879 86.9899 22.6819 86.0794 22.9321C85.4239 23.0894 85.1142 23.2433 85.3265 23.2614ZM52.9195 28.3174C52.9395 28.4011 53.2933 28.4313 53.6938 28.3671C54.0276 28.3136 54.1411 28.2085 53.9208 28.1569C53.6965 28.0886 53.3467 28.0751 53.1464 28.1072C53.0129 28.1286 52.8954 28.217 52.9195 28.3174ZM87.3185 23.1855C87.2024 23.5691 88.181 23.6034 89.209 23.2648C89.7269 23.1122 89.6402 23.0392 89.0153 23.0351C88.253 23.0357 88.3118 22.9915 89.1795 22.8524C89.8471 22.7453 90.365 22.5928 90.3449 22.5091C90.2808 22.2413 87.4505 22.8688 87.3185 23.1855ZM119.768 18.0183C119.776 18.0518 120.271 18.0941 120.834 18.1256C121.745 18.1707 121.808 18.1432 121.418 17.9624C121.028 17.7815 119.724 17.8342 119.768 18.0183ZM92.4237 22.5061C91.9097 22.6754 91.6668 22.8187 91.8791 22.8368C92.0913 22.8549 92.8096 22.6702 93.5118 22.4186C94.8494 21.926 93.9656 21.9982 92.4237 22.5061ZM187.92 7.37127C187.94 7.45497 188.415 7.41355 188.937 7.27772C189.455 7.12516 189.906 6.9833 189.898 6.94982C189.89 6.91634 189.415 6.95776 188.881 7.04337C188.347 7.12898 187.896 7.27084 187.92 7.37127ZM74.1069 25.6162C74.3272 25.6678 75.0816 25.6338 75.6783 25.5208C76.6128 25.371 76.538 25.3482 75.4419 25.4022C74.211 25.4721 73.766 25.5434 74.1069 25.6162ZM124.653 18.1564C124.661 18.1899 125.25 18.0434 126.027 17.8146C126.733 17.5797 127.793 17.375 128.339 17.3396C128.885 17.3042 129.278 17.2065 129.262 17.1396C129.194 16.855 127.521 17.1058 126.046 17.603C125.277 17.8653 124.641 18.1062 124.653 18.1564ZM94.7469 22.6552C94.528 22.8988 94.5987 22.9049 95.0846 22.6184C95.4531 22.4203 96.1753 22.2524 96.8548 22.1956C97.5384 22.1555 97.8014 22.096 97.5063 22.0216C96.8494 21.8836 95.0084 22.3003 94.7469 22.6552ZM62.4106 27.7172C62.8432 27.7869 63.0795 27.9055 62.8953 28.0045C62.7071 28.0868 62.9661 28.0106 63.3466 27.8626C63.978 27.605 63.9619 27.538 63.1328 27.5493C61.6789 27.5564 61.4827 27.6052 62.4106 27.7172ZM48.9347 29.9122C49.171 30.0308 49.5248 30.061 49.6463 29.9894C49.8345 29.907 49.7437 29.8173 49.4526 29.7597C48.7877 29.5882 48.3992 29.7026 48.9347 29.9122ZM201.021 5.63613C200.778 5.77937 200.185 5.90915 199.639 5.94454C198.409 6.01998 196.714 6.4656 196.766 6.68321C196.794 6.80039 197.124 6.73014 197.696 6.51666C198.332 6.27574 198.937 6.19617 200.194 6.23791C201.731 6.28706 206.393 5.78304 205.328 5.67572C205.049 5.66831 205.146 5.49626 205.519 5.31488C206.075 5.03444 205.855 4.98284 204.625 5.05828C202.437 5.1831 201.436 5.34362 201.021 5.63613ZM89.8739 23.4363C89.8939 23.52 90.5816 23.4967 91.3826 23.3683C92.6509 23.165 92.7096 23.1208 91.8765 23.1153C90.556 23.101 89.8218 23.2187 89.8739 23.4363ZM81.5299 24.7739C81.7502 24.8255 82.5045 24.7915 83.1053 24.6952C84.1066 24.5347 84.0985 24.5012 83.1987 24.5064C81.8115 24.5028 80.9437 24.6419 81.5299 24.7739ZM9.39058 36.4253C10.0902 36.4522 11.0367 36.3526 11.4252 36.2381C11.8097 36.107 11.3851 36.0708 10.4345 36.1536C7.99135 36.3714 7.92462 36.3821 9.39058 36.4253ZM76.8973 25.6904C77.1176 25.742 77.6716 25.7401 78.0054 25.6866C78.4059 25.6224 78.4526 25.528 78.2323 25.4764C78.008 25.408 77.458 25.4267 77.1242 25.4802C76.7237 25.5444 76.673 25.6221 76.8973 25.6904ZM70.7401 26.6079C70.9523 26.626 71.5571 26.5464 72.0124 26.4213C72.5344 26.2855 72.322 26.2674 71.5877 26.3851C70.8495 26.4861 70.461 26.6005 70.7401 26.6079ZM66.3705 27.4648C66.6068 27.5834 66.9607 27.6136 67.0821 27.5419C67.2704 27.4596 67.1795 27.3699 66.8884 27.3123C66.2235 27.1407 65.8351 27.2551 66.3705 27.4648ZM58.2026 28.6699C58.0224 28.7857 58.1172 28.8922 58.463 28.8889C58.8088 28.8856 59.0598 28.7758 59.0277 28.6419C58.9596 28.3573 58.7512 28.356 58.2026 28.6699ZM99.9629 22.1492C99.987 22.2497 100.278 22.3073 100.557 22.3147C100.903 22.3114 101.154 22.2017 101.122 22.0678C101.09 21.9338 100.795 21.8595 100.461 21.913C100.194 21.9558 99.9429 22.0655 99.9629 22.1492ZM51.1337 30.4114C50.9028 30.6049 51.1858 30.6291 51.9121 30.4779C52.5049 30.3481 53.1643 30.2076 53.3646 30.1755C53.6276 30.116 51.8826 30.0654 51.5448 30.1022C51.4781 30.1129 51.3019 30.2454 51.1337 30.4114ZM91.9209 24.1685C92.248 24.3768 92.5898 24.3568 93.0917 24.1372C93.5937 23.9177 93.5068 23.8447 92.7445 23.8453C92.1904 23.8472 91.6364 23.8491 91.5696 23.8598C91.5696 23.8598 91.6725 23.9997 91.9209 24.1685ZM83.2737 25.3982C84.1936 25.4767 84.4646 25.4507 86.6128 25.1585C87.6848 25.004 87.6928 25.0375 86.8571 25.3105C86.0881 25.5728 86.2296 25.5849 87.5647 25.3709C88.4992 25.2211 89.6847 24.9615 90.1947 24.7755C91.2854 24.4094 90.5978 24.4327 86.8944 24.8874C85.6181 25.0572 84.4632 25.1554 84.1842 25.148C83.9719 25.1299 83.4925 25.1546 83.092 25.2188C82.6915 25.283 82.7784 25.356 83.2737 25.3982ZM40.7298 32.4095C40.7538 32.51 40.9581 32.4946 41.2131 32.4016C41.3973 32.3025 41.9353 32.2337 42.3599 32.2699C42.8472 32.2787 43.5147 32.1717 44.0874 31.9582C44.8564 31.6959 44.7856 31.6898 43.8044 31.934C42.9526 32.1401 42.6776 32.1494 42.9045 31.9392C43.1315 31.729 42.8564 31.7384 41.9339 31.9384C41.2784 32.0956 40.7057 32.3091 40.7298 32.4095ZM33.7087 33.4829C33.929 33.5345 34.4163 33.5433 34.8168 33.4791C35.1506 33.4256 35.3976 33.2991 35.3775 33.2154C35.3535 33.1149 34.8702 33.1229 34.2694 33.2192C33.7354 33.3048 33.4844 33.4146 33.7087 33.4829ZM30.7049 33.9644C30.7249 34.0481 31.0787 34.0783 31.4792 34.0141C31.813 33.9606 31.9265 33.8555 31.7061 33.8039C31.4818 33.7356 31.132 33.7221 30.9318 33.7542C30.7983 33.7756 30.6808 33.864 30.7049 33.9644ZM211.365 5.1251C211.118 5.2516 210.596 5.38741 210.262 5.44092C209.394 5.58003 209.471 5.89808 210.354 5.82592C210.763 5.7952 211.085 5.69148 211.061 5.59104C211.037 5.4906 211.484 5.332 212.018 5.2464C212.552 5.16079 212.999 5.00219 212.979 4.91849C212.931 4.71762 212.059 4.83999 211.365 5.1251ZM205.612 5.99515C205.62 6.02863 206.186 6.07693 206.815 6.09779C207.935 6.14419 207.998 6.11676 207.066 5.98805C206.134 5.85933 205.58 5.86124 205.612 5.99515ZM102.354 22.5829C102.567 22.601 103.171 22.5214 103.627 22.3963C104.149 22.2604 103.936 22.2423 103.202 22.3601C102.464 22.461 102.075 22.5754 102.354 22.5829ZM47.9204 31.4654C48.1568 31.584 48.5106 31.6141 48.6321 31.5425C48.8203 31.4602 48.7294 31.3705 48.4384 31.3128C47.7734 31.1413 47.385 31.2557 47.9204 31.4654ZM38.3161 33.0398C38.9249 32.977 39.2867 33.0407 39.1105 33.1732C38.8716 33.3332 39.0091 33.3285 39.4603 33.1866C40.4215 32.8587 39.6231 32.7086 38.2253 32.9501C37.228 33.1273 37.232 33.1441 38.3161 33.0398ZM59.1256 30.208C59.3379 30.2261 59.9427 30.1465 60.3979 30.0214C60.9199 29.8856 60.7076 29.8675 59.9733 29.9852C59.235 30.0862 58.8466 30.2006 59.1256 30.208ZM102.387 23.5858C102.419 23.7198 103.586 23.6717 105.604 23.4177C107.423 23.1957 109.378 22.9691 109.987 22.9062C110.663 22.8327 111.185 22.6969 111.165 22.6132C111.145 22.5295 110.127 22.6231 108.926 22.8157C107.724 23.0083 106.094 23.1479 105.328 23.1317C103.653 23.0872 102.314 23.2845 102.387 23.5858ZM97.7339 24.4186C97.7821 24.6195 99.212 24.5119 100.59 24.1868C102.497 23.7593 101.903 23.5938 99.7004 23.9469C98.5656 24.1288 97.7139 24.3349 97.7339 24.4186ZM207.252 7.05331C207.272 7.13701 207.626 7.16721 208.026 7.103C208.36 7.0495 208.474 6.9444 208.253 6.8928C208.029 6.82447 207.679 6.81101 207.479 6.84312C207.345 6.86452 207.228 6.95288 207.252 7.05331ZM75.0476 28.3856C75.5229 28.3442 76.2451 28.1763 76.5589 28.0391C77.0608 27.8195 76.7897 27.8456 75.671 28.0945C74.8193 28.3006 74.5015 28.421 75.0476 28.3856ZM224.434 4.99417C224.651 5.02902 224.258 5.1267 223.579 5.18349C222.903 5.25702 221.988 5.49054 221.553 5.69936C220.561 6.18862 221.571 6.06158 222.767 5.55696C223.34 5.34347 223.473 5.32206 223.297 5.4546C222.76 5.81874 224.599 5.68047 226.361 5.22415C227.538 4.9311 227.593 4.87018 226.639 4.9363C225.955 4.97635 225.448 4.88387 225.415 4.74996C225.379 4.5993 225.03 4.58585 224.708 4.68957C224.323 4.82074 224.214 4.94257 224.434 4.99417ZM112.978 22.9483C111.505 23.167 110.842 23.2907 111.517 23.2172C112.13 23.1711 112.555 23.2073 112.308 23.3338C112.127 23.4496 112.21 23.5059 112.54 23.4356C112.803 23.3761 113.208 23.3286 113.412 23.3133C113.616 23.2979 115.097 23.1127 116.64 22.9001C118.659 22.646 119.452 22.4841 119.09 22.4204C118.865 22.3521 118.178 22.3754 117.644 22.461C117.11 22.5466 116.764 22.5499 116.744 22.4662C116.876 22.1496 116.506 22.0524 116.079 22.2947C115.84 22.4547 114.454 22.7464 112.978 22.9483ZM99.0572 25.0234C98.3671 25.3253 99.3537 25.3931 100.331 25.1321C100.849 24.9796 101.092 24.8363 100.872 24.7847C100.427 24.6648 99.6219 24.7765 99.0572 25.0234ZM84.6828 27.5189C85.3236 27.59 85.269 27.6509 84.6054 27.7747C84.0714 27.8603 84.2877 27.8952 85.038 27.8444C86.9552 27.7457 88.4143 27.1815 86.8776 27.1323C85.2074 27.1046 83.6761 27.3675 84.6828 27.5189ZM218.385 6.36365C218.363 6.55848 218.391 6.67566 218.449 6.63148C218.575 6.5766 218.939 6.36174 219.371 6.13618C219.923 5.839 219.907 5.77204 219.24 5.87905C218.772 5.95395 218.341 6.17951 218.385 6.36365ZM108.278 23.8754C109.045 23.8917 110.141 23.8376 110.671 23.7353C111.272 23.639 110.776 23.5967 109.68 23.6507C107.005 23.7668 106.604 23.831 108.278 23.8754ZM210.83 7.52263C210.85 7.60632 211.137 7.64721 211.471 7.59371C211.872 7.5295 212.319 7.37091 212.499 7.25511C212.675 7.12257 212.392 7.09842 211.858 7.18402C211.257 7.28033 210.806 7.42219 210.83 7.52263ZM136.209 19.5197C135.142 19.9861 135.32 20.1489 136.655 19.9349C137.656 19.7743 137.715 19.7302 136.815 19.7354C135.915 19.7406 135.974 19.6964 136.909 19.5466C137.576 19.4396 138.09 19.2703 138.07 19.1866C138.014 18.9522 137.15 19.1081 136.209 19.5197ZM105.794 24.4997C105.614 24.6155 105.83 24.6503 106.297 24.5754C106.765 24.5005 107.845 24.3795 108.795 24.2967L110.492 24.1463L108.763 24.1628C106.755 24.1718 106.217 24.2407 105.794 24.4997ZM96.9079 25.8894C97.1202 25.9075 97.725 25.828 98.1803 25.7028C98.7023 25.567 98.4899 25.5489 97.7556 25.6666C97.0173 25.7676 96.6289 25.882 96.9079 25.8894ZM88.7134 27.2726C88.7335 27.3563 88.887 27.4186 89.0205 27.3972C89.2208 27.3651 89.5345 27.2279 89.7147 27.1121C89.8909 26.9795 89.7413 26.934 89.4076 26.9875C89.0071 27.0517 88.6893 27.1722 88.7134 27.2726ZM100.435 25.5673C100.655 25.6189 101.41 25.5849 102.007 25.4719C102.941 25.3221 102.866 25.2993 101.77 25.3533C100.539 25.4232 100.094 25.4945 100.435 25.5673ZM226.746 5.96207C227.312 6.01037 227.819 6.10286 227.839 6.18655C227.859 6.27025 228.268 6.23953 228.79 6.1037C229.312 5.96788 230.325 5.85757 231.017 5.851C231.803 5.85248 231.811 5.88596 231.041 5.95144C230.224 6.01289 229.898 6.09988 230.13 6.20169C230.292 6.29746 230.779 6.30625 231.242 6.21461C231.635 6.11693 232.935 6.04751 234.181 6.03903C236.88 6.02344 237.485 5.94388 237.409 5.62583C237.377 5.49192 236.677 5.46501 235.868 5.55994C235.059 5.65488 233.947 5.64196 233.494 5.48855C232.369 5.13015 230.353 5.10568 228.48 5.38857C227.412 5.55978 227.062 5.54634 227.36 5.34218C227.728 5.14406 227.528 5.17616 226.763 5.45522C225.876 5.8059 225.826 5.88357 226.746 5.96207ZM137.301 20.318C137.514 20.3361 138.036 20.2002 138.475 20.0082C139.036 19.7445 138.965 19.7384 138.054 19.9887C137.399 20.1459 137.089 20.2998 137.301 20.318ZM104.123 25.9148C103.892 26.1083 104.175 26.1324 104.901 25.9812C105.494 25.8514 106.153 25.711 106.354 25.6789C106.617 25.6193 104.872 25.5688 104.534 25.6056C104.467 25.6163 104.291 25.7488 104.123 25.9148ZM124.747 22.8868C124.571 23.0193 124.842 22.9933 125.364 22.8574C126.537 22.5476 126.709 22.3984 125.775 22.5482C125.374 22.6124 124.923 22.7542 124.747 22.8868ZM127.807 22.6396C127.819 22.6898 128.106 22.7307 128.518 22.7167C128.864 22.7134 129.19 22.6264 129.17 22.5427C129.146 22.4423 128.792 22.4121 128.458 22.4656C128.058 22.5298 127.799 22.6061 127.807 22.6396ZM230.555 7.10699C230.375 7.22279 230.658 7.24694 231.192 7.16133C231.726 7.07573 231.977 6.96597 231.757 6.91437C231.54 6.87952 231.257 6.85536 231.124 6.87676C230.99 6.89817 230.739 7.00793 230.555 7.10699ZM232.771 7.09934C232.395 7.26398 233.141 7.19649 235.14 6.85872C236.804 6.57446 238.018 6.43207 237.901 6.52043C237.72 6.63623 237.933 6.65434 238.333 6.59014C238.734 6.52593 238.883 6.57149 238.707 6.70403C238.527 6.81983 238.747 6.87141 239.214 6.79651C239.682 6.7216 241.222 6.7875 242.579 6.95244C243.935 7.11739 245.276 7.21537 245.543 7.17257C246.344 7.04416 246.076 6.7917 245.081 6.69042C244.585 6.64815 243.075 6.42092 241.77 6.17831C239.382 5.76144 239.245 5.76609 236.386 6.27645C234.726 6.57745 233.148 6.9347 232.771 7.09934ZM136.346 22.696C136.558 22.7141 137.163 22.6345 137.618 22.5094C138.14 22.3736 137.928 22.3555 137.194 22.4732C136.456 22.5742 136.067 22.6886 136.346 22.696ZM143.641 23.0562C143.414 23.2664 143.627 23.2845 144.211 23.1212C144.733 22.9854 144.976 22.8422 144.756 22.7906C144.241 22.6646 143.978 22.7241 143.641 23.0562ZM241.781 7.6714C242.395 7.92058 244.167 7.793 244.094 7.49169C244.066 7.37452 243.496 7.30947 242.821 7.383C242.208 7.42909 241.599 7.49192 241.528 7.48588C241.462 7.49658 241.548 7.56958 241.781 7.6714ZM140.902 23.7734C140.722 23.8892 141.009 23.9301 141.609 23.8338C142.21 23.7375 142.457 23.611 142.237 23.5594C142.012 23.4911 141.663 23.4776 141.529 23.499C141.396 23.5204 141.078 23.6409 140.902 23.7734Z" fill="#0841D1" fill-opacity="0.95"/>
<path fill-rule="evenodd" clip-rule="evenodd" d="M105.819 8.97369L107.543 8.94052L105.411 9.29968C103.743 9.5672 103.326 9.56446 103.549 9.33752C103.784 9.1608 103.956 9.01152 104.023 9.00082C104.027 9.01756 104.852 8.98959 105.819 8.97369Z" fill="#0841D1" fill-opacity="0.95"/>
<path fill-rule="evenodd" clip-rule="evenodd" d="M123.888 7.72838C124.108 7.77997 124.061 7.87437 123.661 7.93858C123.327 7.99208 122.773 7.99399 122.553 7.9424C122.328 7.87406 122.379 7.7964 122.78 7.7322C123.113 7.67869 123.663 7.66005 123.888 7.72838Z" fill="#0841D1" fill-opacity="0.95"/>
<path fill-rule="evenodd" clip-rule="evenodd" d="M149.148 6.11238C148.968 6.22818 148.521 6.38678 148.12 6.45098C147.786 6.50449 147.499 6.46359 147.479 6.3799C147.455 6.27946 147.906 6.1376 148.507 6.04129C149.041 5.95569 149.324 5.97984 149.148 6.11238Z" fill="#0841D1" fill-opacity="0.95"/>
<path fill-rule="evenodd" clip-rule="evenodd" d="M202.846 5.44749C202.391 5.57262 201.786 5.65219 201.574 5.63407C201.295 5.62666 201.683 5.51224 202.422 5.41127C203.156 5.29356 203.368 5.31167 202.846 5.44749Z" fill="#0841D1" fill-opacity="0.95"/>
<path fill-rule="evenodd" clip-rule="evenodd" d="M34.2379 12.835C32.5892 13.1862 31.6735 13.9935 33.2088 13.7474C34.7441 13.5013 34.3451 13.8608 32.7083 14.2622C29.6311 15.0162 29.0263 15.0958 27.9408 14.9048C26.926 14.7198 26.914 14.6696 28.1101 14.165C28.9925 13.7975 30.5625 13.4068 32.5611 13.069C34.2219 12.768 34.9602 12.6671 34.2379 12.835ZM29.3664 13.9114C29.3744 13.9449 29.8698 13.9872 30.4319 14.0187C31.3437 14.0638 31.4065 14.0363 31.0166 13.8555C30.6267 13.6746 29.3223 13.7273 29.3664 13.9114Z" fill="#0841D1" fill-opacity="0.95"/>
<path fill-rule="evenodd" clip-rule="evenodd" d="M173.344 3.24158C172.96 3.37274 172.678 3.64386 172.793 3.83403C172.841 4.0349 172.748 4.22368 172.418 4.29393C169.622 4.77684 167.938 4.97742 167.901 4.82677C167.877 4.72633 168.403 4.60724 169.016 4.56115C169.696 4.50436 170.689 4.31037 171.203 4.14106C171.717 3.97176 171.897 3.85597 171.563 3.90947C171.23 3.96297 171.335 3.82439 171.77 3.61557C172.205 3.40675 172.912 3.17187 173.312 3.10766C173.846 3.02206 173.854 3.05554 173.344 3.24158Z" fill="#0841D1" fill-opacity="0.95"/>
<path fill-rule="evenodd" clip-rule="evenodd" d="M176.508 3.13408C176.528 3.21778 176.202 3.30476 175.856 3.30805C175.444 3.32204 175.157 3.28115 175.145 3.23093C175.137 3.19745 175.396 3.12116 175.796 3.05696C176.13 3.00346 176.484 3.03365 176.508 3.13408Z" fill="#0841D1" fill-opacity="0.95"/>
<path fill-rule="evenodd" clip-rule="evenodd" d="M46.4954 24.654C47.1202 24.6582 47.203 24.7144 46.7358 24.7893C46.3353 24.8535 45.7144 24.8661 45.4941 24.8145C44.912 24.6993 45.179 24.6565 46.4954 24.654Z" fill="#0841D1" fill-opacity="0.95"/>
<path fill-rule="evenodd" clip-rule="evenodd" d="M184.093 4.12588C185.319 4.0337 185.464 4.06251 184.77 4.34762C184.268 4.56714 183.738 4.66948 183.447 4.61185C183.227 4.56025 182.618 4.62309 182.1 4.77565C181.511 4.92218 181.094 4.91942 181.054 4.75203C180.986 4.46746 181.65 4.34372 184.093 4.12588Z" fill="#0841D1" fill-opacity="0.95"/>
<path fill-rule="evenodd" clip-rule="evenodd" d="M191.75 3.10697C190.467 3.5386 188.932 3.78472 189.414 3.4815C189.59 3.34896 190.442 3.14289 191.243 3.01448C192.444 2.82186 192.519 2.84465 191.75 3.10697Z" fill="#0841D1" fill-opacity="0.95"/>
<path fill-rule="evenodd" clip-rule="evenodd" d="M195.687 3.04955C195.982 3.12392 197.161 3.12615 198.257 3.07211C199.903 2.99942 200.12 3.03427 199.347 3.27986C198.899 3.43846 197.839 3.64315 197.097 3.72738C196.351 3.79488 196.155 3.84371 196.567 3.82972C197.046 3.80504 197.475 3.85801 197.495 3.94171C197.519 4.04214 197.26 4.11843 196.91 4.10498C196.564 4.10826 196.042 4.24409 195.866 4.37662C195.561 4.5473 195.077 4.55525 194.358 4.44464C193.776 4.32938 192.872 4.31784 192.338 4.40345C191.737 4.49975 191.379 4.45282 191.551 4.30354C191.661 4.18171 192.175 4.01241 192.583 3.98168C193.054 3.92351 193.172 3.83516 192.881 3.77752C192.657 3.70919 192.821 3.52644 193.268 3.36784C194.488 2.96365 195.026 2.89477 195.687 3.04955ZM193.386 4.14854C193.434 4.34941 194.702 4.14609 194.921 3.90241C195.152 3.70896 194.94 3.69085 194.288 3.86481C193.833 3.98994 193.382 4.1318 193.386 4.14854Z" fill="#0841D1" fill-opacity="0.95"/>
<path fill-rule="evenodd" clip-rule="evenodd" d="M191.855 3.54204C191.923 3.82661 190.201 4.45032 189.685 4.32435C189.398 4.28346 189.504 4.14488 189.888 4.01372C190.21 3.91 190.544 3.85649 190.564 3.94019C190.58 4.00715 190.902 3.90342 191.203 3.71601C191.505 3.52859 191.831 3.44161 191.855 3.54204Z" fill="#0841D1" fill-opacity="0.95"/>
<path fill-rule="evenodd" clip-rule="evenodd" d="M187.238 4.52555C187.258 4.60924 186.811 4.76784 186.21 4.86415C185.676 4.94976 185.389 4.90887 185.569 4.79307C185.745 4.66053 186.196 4.51867 186.597 4.45446C186.931 4.40096 187.214 4.42511 187.238 4.52555Z" fill="#0841D1" fill-opacity="0.95"/>
<path fill-rule="evenodd" clip-rule="evenodd" d="M205.244 3.30756C205.477 3.40937 206.156 3.35258 206.812 3.19535C207.555 3.01828 207.563 3.05176 206.836 3.29579C205.298 3.82044 200.978 4.30443 201.373 3.92822C201.768 3.552 204.709 3.0979 205.244 3.30756Z" fill="#0841D1" fill-opacity="0.95"/>
<path fill-rule="evenodd" clip-rule="evenodd" d="M212.308 3.56613C213.432 3.62927 214.069 3.68361 213.59 3.7083C213.173 3.70555 212.584 3.85208 212.404 3.96787C212.098 4.13855 211.623 4.17998 210.974 4.07542C210.042 3.9467 209.975 3.95741 210.436 4.14429C211.062 4.44369 208.934 4.81958 208.312 4.53693C208.013 4.44582 207.53 4.45376 207.145 4.58492C206.761 4.71609 206.682 4.67658 206.984 4.48916C207.223 4.32918 207.053 4.19993 206.499 4.20184C205.807 4.20841 206.263 4.08329 207.865 3.82647C209.467 3.56965 210.905 3.49558 212.308 3.56613Z" fill="#0841D1" fill-opacity="0.95"/>
<path fill-rule="evenodd" clip-rule="evenodd" d="M216.784 3.43937C216.804 3.52306 216.49 3.66026 216.09 3.72446C215.756 3.77797 215.602 3.71568 215.783 3.59988C215.959 3.46734 216.276 3.34688 216.477 3.31478C216.61 3.29338 216.76 3.33893 216.784 3.43937Z" fill="#0841D1" fill-opacity="0.95"/>
<path fill-rule="evenodd" clip-rule="evenodd" d="M215.297 3.88638C217.881 3.68062 218.192 3.82196 216.289 4.2662C215.566 4.43412 214.958 4.49695 214.938 4.41326C214.917 4.32956 214.434 4.33751 213.9 4.42311C213.366 4.50872 212.871 4.46645 212.839 4.33254C212.807 4.19862 212.845 4.07074 212.916 4.07678C213.054 4.07212 214.142 3.9846 215.297 3.88638Z" fill="#0841D1" fill-opacity="0.95"/>
<path fill-rule="evenodd" clip-rule="evenodd" d="M219.906 3.46022C219.726 3.57601 220.013 3.6169 220.547 3.5313C221.081 3.44569 221.769 3.42239 222.064 3.49676C222.43 3.57717 222.234 3.626 221.483 3.67675C219.162 3.82297 220.431 3.91493 222.828 3.79149C224.47 3.70206 225.107 3.7564 224.73 3.92104C224.291 4.11312 223.203 4.20064 221.466 4.1836C220.075 4.16327 218.637 4.23733 218.315 4.34105C217.672 4.54849 217.486 4.35229 217.995 3.87098C218.159 3.68822 218.798 3.46403 219.332 3.37842C219.866 3.29281 220.083 3.32768 219.906 3.46022Z" fill="#0841D1" fill-opacity="0.95"/>
<path fill-rule="evenodd" clip-rule="evenodd" d="M18.1062 36.3492C18.1263 36.4329 17.8005 36.5199 17.4548 36.5231C17.0422 36.5371 16.7552 36.4962 16.7431 36.446C16.7351 36.4125 16.9941 36.3363 17.3946 36.272C17.7284 36.2185 18.0822 36.2487 18.1062 36.3492Z" fill="#0841D1" fill-opacity="0.95"/>
<path fill-rule="evenodd" clip-rule="evenodd" d="M220.856 4.52476C221.076 4.57635 220.963 4.68145 220.629 4.73496C220.229 4.79916 219.875 4.76897 219.855 4.68527C219.831 4.58484 219.948 4.49648 220.082 4.47507C220.282 4.44297 220.632 4.45643 220.856 4.52476Z" fill="#0841D1" fill-opacity="0.95"/>
<path fill-rule="evenodd" clip-rule="evenodd" d="M143.134 17.1753C143.154 17.259 142.828 17.346 142.483 17.3493C142.07 17.3633 141.783 17.3224 141.771 17.2722C141.763 17.2387 142.022 17.1624 142.423 17.0982C142.756 17.0447 143.11 17.0749 143.134 17.1753Z" fill="#0841D1" fill-opacity="0.95"/>
<path d="M66.5253 30.1342C66.1566 30.1933 65.8398 30.1662 65.8176 30.0738C65.7955 29.9813 66.0764 29.8585 66.4451 29.7994C66.8137 29.7403 67.1305 29.7673 67.1527 29.8598C67.1748 29.9522 66.8939 30.0751 66.5253 30.1342Z" fill="#0841D1" fill-opacity="0.95"/>
<path fill-rule="evenodd" clip-rule="evenodd" d="M101.838 26.5071C101.383 26.6322 100.778 26.7118 100.565 26.6936C100.286 26.6862 100.675 26.5718 101.413 26.4708C102.147 26.3531 102.36 26.3712 101.838 26.5071Z" fill="#0841D1" fill-opacity="0.95"/>
<path fill-rule="evenodd" clip-rule="evenodd" d="M248.911 7.34502C248.932 7.42872 248.606 7.5157 248.26 7.51899C247.847 7.53297 247.56 7.49208 247.548 7.44187C247.54 7.40839 247.799 7.3321 248.2 7.2679C248.534 7.21439 248.887 7.24459 248.911 7.34502Z" fill="#0841D1" fill-opacity="0.95"/>
</svg>
