<svg width="149" height="4" viewBox="0 0 149 4" fill="none" xmlns="http://www.w3.org/2000/svg">
<path d="M98.764 0.259735C100.792 0.266202 107.982 0.279131 112.588 0.23386C123.252 0.123917 133.91 -0.0506954 144.547 0.0139769C146.209 0.0269114 149.037 -0.0442243 149 1.04874C148.963 2.19344 147.083 2.91129 144.182 2.94363C137.156 3.04064 130.092 2.89835 123.109 3.19584C112.885 3.61621 102.677 3.51274 92.4687 3.58388C83.3036 3.59035 74.128 3.60329 64.963 3.60975C56.3539 3.65502 47.75 3.89431 39.1462 3.91371C31.7231 3.92665 24.3 3.7003 16.8716 3.69383C15.1244 3.69383 13.0225 3.93312 11.1058 3.93959C9.52269 3.94606 6.88065 3.99779 5.30814 3.93312C4.63043 3.90725 3.92625 3.86844 3.26442 3.92664C0.219993 4.17886 -0.595396 3.79731 0.405293 2.52326C0.627668 2.24517 0.362929 1.88946 1.09359 1.68251C1.12536 1.67605 1.18362 1.65665 1.21009 1.64371C3.43384 0.835308 5.73701 1.13926 8.05077 1.07459C19.4025 0.777099 30.7595 0.680097 42.1166 0.615424C49.0843 0.570154 56.0574 0.628357 63.0092 0.492545C64.91 0.453742 66.8161 0.292065 68.7486 0.395541H68.7169C70.7341 0.363205 72.7514 0.292069 74.7634 0.298537C82.3876 0.317938 90.3508 0.233857 97.668 0.311464C97.9539 0.311464 98.3404 0.259735 98.764 0.259735Z" fill="#FE833D" fill-opacity="0.7"/>
</svg>
