<svg width="60" height="57" viewBox="0 0 60 57" fill="none" xmlns="http://www.w3.org/2000/svg">
<path d="M22.0678 7.40064C15.9908 13.1401 12.8678 21.496 12.699 32.4684L23.8403 33.9877V56.017H0.54494V45.6354C0.54494 37.3638 0.882554 30.5272 1.55778 25.1253C2.40181 18.8795 4.84951 12.9713 8.90087 7.40064C11.0954 4.53094 13.6275 2.08324 16.4972 0.0575583L22.0678 7.40064ZM56.7576 7.40064C50.5117 12.6337 47.3044 20.9896 47.1356 32.4684L59.2897 33.9877V56.017H35.7411V45.6354C35.7411 40.5712 35.9099 36.5198 36.2476 33.4813C36.2476 31.6244 36.332 29.8519 36.5008 28.1639C36.6696 25.8006 36.9228 23.9437 37.2604 22.5932C37.2604 22.2556 37.4292 21.5804 37.7668 20.5676C38.1044 19.3859 38.3576 18.3731 38.5264 17.5291C38.6952 15.6722 39.2861 13.9841 40.2989 12.4649C41.3118 10.7768 42.1558 9.34192 42.831 8.16028C44.3503 5.62818 47.0512 2.92728 50.9337 0.0575583L56.7576 7.40064Z" fill="#FFFCF7" fill-opacity="0.1"/>
</svg>
